<svg version="1.1" xmlns="http://www.w3.org/2000/svg" xmlns:xlink="http://www.w3.org/1999/xlink" stroke-linecap="round" stroke-linejoin="round" stroke-width="0" fill-rule="evenodd" width="49.3885mm" height="49.203mm" viewBox="20603.5 -69729 49388.5 49203" id="wX1ffG0LgmgDb6iJEv7H"><g transform="translate(0,-90255) scale(1,-1)" fill="currentColor" stroke="currentColor"><path d="M 42037 -30480 42291 -30226 M 39751 -30226 39751 -32766 M 39497 -32512 39751 -32766 M 40005 -32512 39497 -32512 M 39751 -32766 40005 -32512 M 42037 -29972 42037 -30480 M 63556.796 -49580.8 A 56.796 56.796 0 0 1 63443.204 -49580.8 56.796 56.796 0 0 1 63556.796 -49580.8 M 32416.396 -35382.2 A 56.796 56.796 0 0 1 32302.804 -35382.2 56.796 56.796 0 0 1 32416.396 -35382.2 M 34981.796 -32004 A 56.796 56.796 0 0 1 34868.204 -32004 56.796 56.796 0 0 1 34981.796 -32004 M 56825.796 -32385 A 56.796 56.796 0 0 1 56712.204 -32385 56.796 56.796 0 0 1 56825.796 -32385 M 59187.996 -32486.6 A 56.796 56.796 0 0 1 59074.404 -32486.6 56.796 56.796 0 0 1 59187.996 -32486.6 M 43465.396 -67386.2 A 56.796 56.796 0 0 1 43351.804 -67386.2 56.796 56.796 0 0 1 43465.396 -67386.2 M 40112.596 -48310.8 A 56.796 56.796 0 0 1 39999.004 -48310.8 56.796 56.796 0 0 1 40112.596 -48310.8 M 42291 -30226 42037 -29972 M 39751 -30607 40132 -30607 40132 -30226 M 39751 -30226 42291 -30226" fill="none" stroke-width="150"/><path d="M 41592.523 -45831.914 41973.476 -45831.914 M 41783 -46022.39 41783 -45641.438 M 61429.923 -32395.314 61810.876 -32395.314 M 61620.4 -32585.79 61620.4 -32204.838 M 29679.923 -51013.514 30060.876 -51013.514 M 29870.4 -51203.99 29870.4 -50823.038 M 55054.523 -56576.114 55435.476 -56576.114 M 55245 -56766.59 55245 -56385.638 M 56832.523 -56576.114 57213.476 -56576.114 M 57023 -56766.59 57023 -56385.638 M 58610.523 -56550.714 58991.476 -56550.714 M 58801 -56741.19 58801 -56360.238 M 60388.523 -56525.314 60769.476 -56525.314 M 60579 -56715.79 60579 -56334.838" fill="none" stroke-width="50"/><path d="M 31027.619 -35036.166 31027.619 -35655.214 30646.666 -35321.88 30646.666 -35464.738 30599.047 -35559.976 30551.428 -35607.595 30456.19 -35655.214 30218.095 -35655.214 30122.857 -35607.595 30075.238 -35559.976 30027.619 -35464.738 30027.619 -35179.023 30075.238 -35083.785 30122.857 -35036.166 M 30694.285 -38099.976 30027.619 -38099.976 M 31075.238 -37861.88 30360.952 -37623.785 30360.952 -38242.833 M 30932.38 -32543.785 30980 -32591.404 31027.619 -32686.642 31027.619 -32924.738 30980 -33019.976 30932.38 -33067.595 30837.142 -33115.214 30741.904 -33115.214 30599.047 -33067.595 30027.619 -32496.166 30027.619 -33115.214 M 31027.619 -40687.595 31027.619 -40211.404 30551.428 -40163.785 30599.047 -40211.404 30646.666 -40306.642 30646.666 -40544.738 30599.047 -40639.976 30551.428 -40687.595 30456.19 -40735.214 30218.095 -40735.214 30122.857 -40687.595 30075.238 -40639.976 30027.619 -40544.738 30027.619 -40306.642 30075.238 -40211.404 30122.857 -40163.785 M 31027.619 -43179.976 31027.619 -42989.5 30980 -42894.261 30932.38 -42846.642 30789.523 -42751.404 30599.047 -42703.785 30218.095 -42703.785 30122.857 -42751.404 30075.238 -42799.023 30027.619 -42894.261 30027.619 -43084.738 30075.238 -43179.976 30122.857 -43227.595 30218.095 -43275.214 30456.19 -43275.214 30551.428 -43227.595 30599.047 -43179.976 30646.666 -43084.738 30646.666 -42894.261 30599.047 -42799.023 30551.428 -42751.404 30456.19 -42703.785 M 31027.619 -45132.666 31027.619 -45799.333 30027.619 -45370.761 M 30599.047 -47974.261 30646.666 -47879.023 30694.285 -47831.404 30789.523 -47783.785 30837.142 -47783.785 30932.38 -47831.404 30980 -47879.023 31027.619 -47974.261 31027.619 -48164.738 30980 -48259.976 30932.38 -48307.595 30837.142 -48355.214 30789.523 -48355.214 30694.285 -48307.595 30646.666 -48259.976 30599.047 -48164.738 30599.047 -47974.261 30551.428 -47879.023 30503.809 -47831.404 30408.571 -47783.785 30218.095 -47783.785 30122.857 -47831.404 30075.238 -47879.023 30027.619 -47974.261 30027.619 -48164.738 30075.238 -48259.976 30122.857 -48307.595 30218.095 -48355.214 30408.571 -48355.214 30503.809 -48307.595 30551.428 -48259.976 30599.047 -48164.738 M 27128.838 -50514.285 27081.219 -50657.142 27081.219 -50895.238 27128.838 -50990.476 27176.457 -51038.095 27271.695 -51085.714 27366.933 -51085.714 27462.171 -51038.095 27509.79 -50990.476 27557.409 -50895.238 27605.028 -50704.761 27652.647 -50609.523 27700.266 -50561.904 27795.504 -50514.285 27890.742 -50514.285 27985.98 -50561.904 28033.6 -50609.523 28081.219 -50704.761 28081.219 -50942.857 28033.6 -51085.714 M 25011.071 -50419.047 25011.071 -51180.952 M 24630.119 -50800 25392.023 -50800 M 22471.071 -50419.047 22471.071 -51180.952 M 48602.876 -26852.619 48936.209 -27328.809 M 49174.304 -26852.619 49174.304 -27852.619 48793.352 -27852.619 48698.114 -27805 48650.495 -27757.38 48602.876 -27662.142 48602.876 -27519.285 48650.495 -27424.047 48698.114 -27376.428 48793.352 -27328.809 49174.304 -27328.809 M 47602.876 -26947.857 47650.495 -26900.238 47793.352 -26852.619 47888.59 -26852.619 48031.447 -26900.238 48126.685 -26995.476 48174.304 -27090.714 48221.923 -27281.19 48221.923 -27424.047 48174.304 -27614.523 48126.685 -27709.761 48031.447 -27805 47888.59 -27852.619 47793.352 -27852.619 47650.495 -27805 47602.876 -27757.38" fill="none" stroke-width="150"/><path d="M 54395.714 -55929.571 54502.857 -55965.285 54681.428 -55965.285 54752.857 -55929.571 54788.571 -55893.857 54824.285 -55822.428 54824.285 -55751 54788.571 -55679.571 54752.857 -55643.857 54681.428 -55608.142 54538.571 -55572.428 54467.142 -55536.714 54431.428 -55501 54395.714 -55429.571 54395.714 -55358.142 54431.428 -55286.714 54467.142 -55251 54538.571 -55215.285 54717.142 -55215.285 54824.285 -55251 M 56495.142 -55597.828 56245.142 -55597.828 M 56245.142 -55990.685 56245.142 -55240.685 56602.285 -55240.685 M 57697.857 -55990.685 57697.857 -55240.685 57947.857 -55776.4 58197.857 -55240.685 58197.857 -55990.685 M 58697.857 -55240.685 58840.714 -55240.685 58912.142 -55276.4 58983.571 -55347.828 59019.285 -55490.685 59019.285 -55740.685 58983.571 -55883.542 58912.142 -55954.971 58840.714 -55990.685 58697.857 -55990.685 58626.428 -55954.971 58555 -55883.542 58519.285 -55740.685 58519.285 -55490.685 58555 -55347.828 58626.428 -55276.4 58697.857 -55240.685 M 59340.714 -55990.685 59340.714 -55240.685 59519.285 -55240.685 59626.428 -55276.4 59697.857 -55347.828 59733.571 -55419.257 59769.285 -55562.114 59769.285 -55669.257 59733.571 -55812.114 59697.857 -55883.542 59626.428 -55954.971 59519.285 -55990.685 59340.714 -55990.685 M 60090.714 -55597.828 60340.714 -55597.828 M 60447.857 -55990.685 60090.714 -55990.685 60090.714 -55240.685 60447.857 -55240.685" fill="none" stroke-width="100"/><path d="M 52943.357 -45057.19 52943.357 -44723.857 M 52943.357 -44771.476 52990.976 -44747.666 53086.214 -44723.857 53229.071 -44723.857 53324.309 -44747.666 53371.928 -44795.285 53371.928 -45057.19 M 53371.928 -44795.285 53419.547 -44747.666 53514.785 -44723.857 53657.642 -44723.857 53752.88 -44747.666 53800.5 -44795.285 53800.5 -45057.19 M 54276.69 -45057.19 54276.69 -44723.857 M 54276.69 -44557.19 54229.071 -44581 54276.69 -44604.809 54324.309 -44581 54276.69 -44557.19 54276.69 -44604.809 M 55181.452 -45033.38 55086.214 -45057.19 54895.738 -45057.19 54800.5 -45033.38 54752.88 -45009.571 54705.261 -44961.952 54705.261 -44819.095 54752.88 -44771.476 54800.5 -44747.666 54895.738 -44723.857 55086.214 -44723.857 55181.452 -44747.666 M 55610.023 -45057.19 55610.023 -44723.857 M 55610.023 -44819.095 55657.642 -44771.476 55705.261 -44747.666 55800.5 -44723.857 55895.738 -44723.857 M 56371.928 -45057.19 56276.69 -45033.38 56229.071 -45009.571 56181.452 -44961.952 56181.452 -44819.095 56229.071 -44771.476 56276.69 -44747.666 56371.928 -44723.857 56514.785 -44723.857 56610.023 -44747.666 56657.642 -44771.476 56705.261 -44819.095 56705.261 -44961.952 56657.642 -45009.571 56610.023 -45033.38 56514.785 -45057.19 56371.928 -45057.19" fill="none" stroke-width="93.75"/><path d="M 25455.571 -61214.047 25455.571 -61975.952" fill="none" stroke-width="150"/><path d="M 39930.028 -64589.428 40037.171 -64625.142 40072.885 -64660.857 40108.6 -64732.285 40108.6 -64839.428 40072.885 -64910.857 40037.171 -64946.571 39965.742 -64982.285 39680.028 -64982.285 39680.028 -64232.285 39930.028 -64232.285 40001.457 -64268 40037.171 -64303.714 40072.885 -64375.142 40072.885 -64446.571 40037.171 -64518 40001.457 -64553.714 39930.028 -64589.428 39680.028 -64589.428 M 40822.885 -64982.285 40394.314 -64982.285 M 40608.6 -64982.285 40608.6 -64232.285 40537.171 -64339.428 40465.742 -64410.857 40394.314 -64446.571 M 38989 -32494.142 38989 -32851.285 M 38739 -32101.285 38989 -32494.142 39239 -32101.285 M 42922 -30636.714 42422 -29886.714 M 42422 -30636.714 42922 -29886.714" fill="none" stroke-width="100"/><path d="M 30027.619 -30575.214 30027.619 -30003.785 M 30027.619 -30289.5 31027.619 -30289.5 30884.761 -30194.261 30789.523 -30099.023 30741.904 -30003.785" fill="none" stroke-width="150"/><path d="M 32945.028 -64589.428 33052.171 -64625.142 33087.885 -64660.857 33123.6 -64732.285 33123.6 -64839.428 33087.885 -64910.857 33052.171 -64946.571 32980.742 -64982.285 32695.028 -64982.285 32695.028 -64232.285 32945.028 -64232.285 33016.457 -64268 33052.171 -64303.714 33087.885 -64375.142 33087.885 -64446.571 33052.171 -64518 33016.457 -64553.714 32945.028 -64589.428 32695.028 -64589.428 M 33587.885 -64232.285 33659.314 -64232.285 33730.742 -64268 33766.457 -64303.714 33802.171 -64375.142 33837.885 -64518 33837.885 -64696.571 33802.171 -64839.428 33766.457 -64910.857 33730.742 -64946.571 33659.314 -64982.285 33587.885 -64982.285 33516.457 -64946.571 33480.742 -64910.857 33445.028 -64839.428 33409.314 -64696.571 33409.314 -64518 33445.028 -64375.142 33480.742 -64303.714 33516.457 -64268 33587.885 -64232.285" fill="none" stroke-width="100"/><path d="M 40627.323 -25511.914 41008.276 -25511.914 M 40817.8 -25702.39 40817.8 -25321.438" fill="none" stroke-width="50"/><path d="M 45823.857 -44049.071 45823.857 -42549.071 M 45823.857 -43263.357 47252.428 -43263.357 M 47252.428 -44049.071 47252.428 -42549.071 M 48323.857 -43620.5 49514.333 -43620.5 M 48085.761 -44049.071 48919.095 -42549.071 49752.428 -44049.071 M 50585.761 -44049.071 50585.761 -42549.071 51181 -42549.071 51538.142 -42620.5 51776.238 -42763.357 51895.285 -42906.214 52014.333 -43191.928 52014.333 -43406.214 51895.285 -43691.928 51776.238 -43834.785 51538.142 -43977.642 51181 -44049.071 50585.761 -44049.071 M 53085.761 -43263.357 53919.095 -43263.357 M 54276.238 -44049.071 53085.761 -44049.071 53085.761 -42549.071 54276.238 -42549.071 M 55228.619 -43977.642 55585.761 -44049.071 56181 -44049.071 56419.095 -43977.642 56538.142 -43906.214 56657.19 -43763.357 56657.19 -43620.5 56538.142 -43477.642 56419.095 -43406.214 56181 -43334.785 55704.809 -43263.357 55466.714 -43191.928 55347.666 -43120.5 55228.619 -42977.642 55228.619 -42834.785 55347.666 -42691.928 55466.714 -42620.5 55704.809 -42549.071 56300.047 -42549.071 56657.19 -42620.5" fill="none" stroke-width="200"/><path d="M 50772 -63610 51842 -63610 M 46232 -63320 45732 -63320 M 45942 -63610 44872 -63610 44872 -69330 M 46232 -63620 46232 -63320 M 51842 -69330 48357 -69330 M 48357 -63910 50772 -63910 M 48357 -63910 45942 -63910 45942 -63610 M 50772 -63910 50772 -63610 M 51842 -63610 51842 -69330 M 44872 -69330 48357 -69330" fill="none" stroke-width="120"/><path d="M 38403.8 -43326.4 38583.8 -43326.4 M 36523.8 -43726.4 36523.8 -43326.4 M 38583.8 -45386.4 38583.8 -44986.4 M 36523.8 -45386.4 36523.8 -44986.4 M 36523.8 -43326.4 36703.8 -43326.4 M 38583.8 -43326.4 38583.8 -43726.4 M 38403.8 -45386.4 38583.8 -45386.4 M 36703.8 -45386.4 36523.8 -45386.4" fill="none" stroke-width="127"/><path d="M 36153.8 -44056.4 A 100 100 0 0 1 35953.8 -44056.4 100 100 0 0 1 36153.8 -44056.4 M 34496 -67879 28496 -67879 M 29096 -69629 29096 -68229 M 28496 -67879 28496 -65979 M 34496 -65979 34496 -67879 M 28496 -65979 34496 -65979 M 41481 -67879 35481 -67879 M 41481 -65979 41481 -67879 M 36081 -69629 36081 -68229 M 35481 -65979 41481 -65979 M 35481 -67879 35481 -65979" fill="none" stroke-width="200"/><path d="M 36311.521 -27281.6 36637.079 -27281.6 M 36311.521 -26261.6 36637.079 -26261.6 M 40692.8 -23911.879 40692.8 -23586.321 M 39672.8 -23911.879 39672.8 -23586.321 M 48385 -31841.221 48385 -32166.779 M 49405 -31841.221 49405 -32166.779 M 55653 -59422.5 57123 -59422.5 57123 -57137.5 M 55653 -57137.5 55653 -59422.5 M 57431 -59422.5 58901 -59422.5 M 57431 -57137.5 57431 -59422.5 M 58901 -59422.5 58901 -57137.5 M 59209 -59422.5 60679 -59422.5 60679 -57137.5 M 59209 -57137.5 59209 -59422.5 M 62064 -29361 60364 -29361 M 62064 -29361 62064 -31911 M 60364 -29361 60364 -31911 M 32869 -51459.5 32869 -49759.5 M 32869 -51459.5 30319 -51459.5 M 32869 -49759.5 30319 -49759.5" fill="none" stroke-width="120"/><path d="M 37340.2 -29443.8 37340.2 -30093.8 M 34440.2 -29443.8 37340.2 -29443.8 M 37340.2 -30093.8 34440.2 -30093.8 34440.2 -29443.8 M 34390.2 -31593.8 34390.2 -30443.8" fill="none" stroke-width="200"/><path d="M 61085 -38161.279 61085 -37835.721 M 62105 -38161.279 62105 -37835.721 M 60454 -39105.721 60454 -39431.279 M 59434 -39105.721 59434 -39431.279" fill="none" stroke-width="120"/><path d="M 30167 -56806 A 125 125 0 0 1 29917 -56806 125 125 0 0 1 30167 -56806" fill="none" stroke-width="254"/><path d="M 61113 -69330 57628 -69330 M 57628 -63910 55213 -63910 M 61113 -63610 61113 -69330 M 60043 -63610 61113 -63610 M 54143 -69330 57628 -69330 M 54143 -63610 54143 -69330 M 55503 -63620 55503 -63320 M 55213 -63910 55213 -63610 54143 -63610 M 57628 -63910 60043 -63910 M 55503 -63320 55003 -63320 M 60043 -63910 60043 -63610 M 69330 -53314 69330 -56799 M 69330 -60284 69330 -56799 M 63320 -58924 63320 -59424 M 63620 -58924 63320 -58924 M 63910 -56799 63910 -54384 M 63610 -53314 69330 -53314 M 63910 -56799 63910 -59214 M 63610 -59214 63610 -60284 M 63910 -59214 63610 -59214 M 63610 -60284 69330 -60284 M 63910 -54384 63610 -54384 63610 -53314" fill="none" stroke-width="120"/><path d="M 43380 -67352 43380 -67352 M 43430 -67352 43430 -67352 A 25 25 0 0 1 43380 -67352 25 25 0 0 1 43430 -67352" fill="none" stroke-width="50"/><path d="M 42974 -37374 43254 -37374 M 47534 -37374 47254 -37374 M 42974 -40434 42974 -39404 M 47534 -39404 47534 -40434 47254 -40434 M 47534 -38404 47534 -37374 M 43254 -40434 42974 -40434 M 42974 -38404 42974 -37374" fill="none" stroke-width="127"/><path d="M 43725 -36804 A 100 100 0 0 1 43525 -36804 100 100 0 0 1 43725 -36804" fill="none" stroke-width="200"/><path d="M 31061.47 -52327.5 30259 -52327.5 M 30805.529 -53532.5 30259 -53532.5 M 32479 -53532.5 32479 -52327.5 M 30259 -53532.5 30259 -52327.5 M 32479 -53532.5 31932.471 -53532.5 M 32479 -55052.5 31369 -55052.5 M 32479 -54292.5 32479 -55052.5 M 32479 -52327.5 31676.53 -52327.5 M 38555 -40448 39305 -40448 M 33835 -40448 33085 -40448 M 39305 -40448 39305 -39698 M 39305 -34228 39305 -34978 M 38555 -34228 39305 -34228 M 33085 -40448 33085 -39698 M 33835 -34228 33085 -34228 M 26330 -46730 26330 -28890 M 23730 -49330 21130 -49330 M 26330 -28890 21130 -28890 M 26330 -48000 26330 -49330 M 23730 -46730 23730 -49330 M 21130 -49330 21130 -28890 M 26330 -49330 25000 -49330 M 26330 -46730 23730 -46730 M 26211.22 -28921.4 27541.22 -28921.4 M 28871.22 -31521.4 28871.22 -49361.4 M 26211.22 -31521.4 26211.22 -49361.4 M 26211.22 -31521.4 28871.22 -31521.4 M 26211.22 -49361.4 28871.22 -49361.4 M 26211.22 -30251.4 26211.22 -28921.4 M 39447.8 -26073.1 39447.8 -28358.1 40917.8 -28358.1 40917.8 -26073.1 M 46002 -26306 44932 -26306 M 48417 -26006 46002 -26006 46002 -26306 M 51902 -20586 48417 -20586 M 50542 -26296 50542 -26596 M 50832 -26006 50832 -26306 M 44932 -26306 44932 -20586 M 48417 -26006 50832 -26006 M 51902 -26306 51902 -20586 M 44932 -20586 48417 -20586 M 50832 -26306 51902 -26306 M 50542 -26596 51042 -26596" fill="none" stroke-width="120"/><path d="M 39032.8 -25373.6 A 125 125 0 0 1 38782.8 -25373.6 125 125 0 0 1 39032.8 -25373.6" fill="none" stroke-width="254"/><path d="M 60040.7 -46689.9 60040.7 -46689.9 M 59940.7 -46689.9 59940.7 -46689.9 M 60540.7 -47389.9 60540.7 -51589.9 M 59440.7 -51589.9 58440.7 -51589.9 M 57340.7 -47389.9 57340.7 -51589.9 M 59440.7 -47389.9 58440.7 -47389.9 M 59940.7 -46689.9 A 50 50 0 0 1 60040.7 -46689.9 50 50 0 0 1 59940.7 -46689.9" fill="none" stroke-width="100"/><path d="M 69210 -44209 69275 -44209 M 62805 -44209 62870 -44209 M 62805 -47739 62870 -47739 M 62870 -49064 62870 -47739 M 69210 -47739 69275 -47739 M 62805 -47739 62805 -44209 M 69275 -47739 69275 -44209 M 59341 -36103.2 61141 -36103.2 M 61141 -32883.2 58691 -32883.2 M 57594 -34095 57424 -34095 M 57594 -38295 57594 -34095 M 57424 -34095 57424 -32905 M 52294 -34095 52124 -34095 M 57594 -38295 57424 -38295 M 52304 -38295 52134 -38295 52134 -34095 M 30998 -26006 29833 -26006 M 31873 -26596 32373 -26596 M 29833 -26306 28763 -26306 M 29833 -26006 29833 -26306 M 31873 -26296 31873 -26596 M 28763 -20586 30998 -20586 M 33233 -20586 30998 -20586 M 30998 -26006 32163 -26006 M 32163 -26306 33233 -26306 33233 -20586 M 32163 -26006 32163 -26306 M 28763 -26306 28763 -20586" fill="none" stroke-width="120"/><path d="M 43854 -31154 43854 -31154 M 43954 -31154 43954 -31154 A 50 50 0 0 1 43854 -31154 50 50 0 0 1 43954 -31154" fill="none" stroke-width="100"/><path d="M 37464 -47954 34164 -47954 34164 -51954" fill="none" stroke-width="120"/><path d="M 51911 -46895 50836 -46895 M 51911 -46895 51911 -47970 M 41561 -57245 41561 -56170 M 41561 -57245 42636 -57245 M 41561 -46895 41561 -47895 M 51911 -57245 50836 -57245 M 51911 -57245 51911 -56170 M 41561 -47895 40536 -47895 M 41561 -46895 42636 -46895" fill="none" stroke-width="150"/><path d="M 36230.779 -53846 35905.221 -53846 M 36230.779 -54866 35905.221 -54866 M 41658 -44612.779 41658 -44287.221 M 40638 -44612.779 40638 -44287.221 M 55345 -59422.5 55345 -57137.5 M 53875 -59422.5 55345 -59422.5 M 53875 -57137.5 53875 -59422.5 M 59686 -26596 60186 -26596 M 59976 -26006 59976 -26306 M 59686 -26296 59686 -26596 M 54076 -26306 54076 -20586 M 57561 -26006 55146 -26006 M 55146 -26306 54076 -26306 M 54076 -20586 57561 -20586 M 61046 -26306 61046 -20586 57561 -20586 M 57561 -26006 59976 -26006 M 55146 -26006 55146 -26306 M 59976 -26306 61046 -26306 M 26532.5 -59956.5 26404.5 -59827.5 M 24522.5 -57536.5 24394.5 -57407.5 M 20903.5 -53371.5 20903.5 -60491.5 M 21303.5 -53131.5 20663.5 -53131.5 M 21363.5 -53371.5 21363.5 -60491.5 M 28623.5 -53371.5 28623.5 -60491.5 M 22463.5 -53371.5 22463.5 -60491.5 M 26738.5 -59751.5 26644.5 -59657.5 M 24282.5 -57706.5 24189.5 -57612.5 M 28623.5 -60491.5 20903.5 -60491.5 M 28623.5 -53371.5 20903.5 -53371.5 M 20663.5 -53131.5 20663.5 -53531.5 M 24023.5 -54315.5 A 1680.3575561 1680.3575561 0 0 1 23783.401 -55210.174 M 26903.501 -56047.5 A 1680.3431554 1680.3431554 0 0 1 26888.858 -54291.606 M 24572.5 -56606.5 A 1680.6292125 1680.6292125 0 0 1 26353.693 -56607.004 M 26329.5 -53741.499 A 1680.3431554 1680.3431554 0 0 1 24573.606 -53756.142 M 23783.5 -55181.5 A 1679.99 1679.99 0 0 1 24038.779 -56071.764 M 27143.5 -58681.5 A 1680 1680 0 0 1 23783.5 -58681.5 1680 1680 0 0 1 27143.5 -58681.5" fill="none" stroke-width="120"/><path d="M 69467 -30013 69317 -30013 M 69467 -30313 69467 -30013 M 69917 -30313 69467 -30313 M 63342 -35238 63342 -35963 M 63767 -32363 63767 -31638 M 69467 -38013 69917 -38013 M 63767 -35963 63767 -36688 M 63342 -35963 63767 -35963 M 65517 -38313 66917 -38313 M 69467 -38313 69467 -38013 M 69317 -38313 69467 -38313 M 66917 -30013 65517 -30013" fill="none" stroke-width="150"/></g></svg>