<svg version="1.1" xmlns="http://www.w3.org/2000/svg" xmlns:xlink="http://www.w3.org/1999/xlink" stroke-linecap="round" stroke-linejoin="round" stroke-width="0" fill-rule="evenodd" width="47.996629mm" height="45.915mm" viewBox="21393.285 -67852 47996.629 45915" id="qkzj2Kd47ikX04vYU1u6"><g transform="translate(0,-89789) scale(1,-1)" fill="currentColor" stroke="currentColor"><path d="M 32639 -60286.9 30099 -60286.9 M 33909 -60286.9 33909 -62826.9 M 38481 -60794.9 39497 -60794.9 M 40513 -61810.9 40259 -61556.9 M 42799 -61556.9 40259 -61556.9 M 36830 -61810.9 36576 -61556.9 M 39243 -63080.9 38989 -62826.9 M 36576 -61556.9 36830 -61302.9 M 32639 -62826.9 32639 -61556.9 M 31623 -65620.9 31877 -65366.9 M 30099 -60286.9 30099 -62826.9 M 31623 -65112.9 31623 -65620.9 M 40259 -61556.9 40513 -61302.9 M 36830 -61302.9 36830 -61810.9 M 40187.116 -61556.9 A 1198.116 1198.116 0 0 1 37790.884 -61556.9 1198.116 1198.116 0 0 1 40187.116 -61556.9 M 39751 -63080.9 40132 -63080.9 M 38989 -65366.9 38989 -62755.015 M 34544 -65366.9 38989 -65366.9 M 33020 -61302.9 33020 -61810.9 M 27559 -61556.9 30099 -61556.9 M 34544 -66636.9 32004 -66636.9 M 32639 -61556.9 32639 -60286.9 M 33909 -61556.9 32639 -61556.9 M 36449 -62826.9 36449 -61556.9 M 38735 -63080.9 39243 -63080.9 M 28829 -61556.9 28829 -65366.9 M 30099 -62826.9 32639 -62826.9 M 33909 -62826.9 36449 -62826.9 M 36449 -60286.9 33909 -60286.9 M 36449 -61556.9 36449 -60286.9 M 37790.885 -61556.9 36449 -61556.9 M 34544 -64096.9 34544 -66636.9 M 38989 -62826.9 38735 -63080.9 M 32004 -65366.9 32004 -64096.9 M 39497 -62318.9 38481 -62318.9 M 38862 -61556.9 39497 -62318.9 M 39497 -60794.9 38862 -61556.9 M 40513 -61302.9 40513 -61810.9 M 32004 -66636.9 32004 -65366.9 M 28829 -65366.9 32004 -65366.9 M 31877 -65366.9 31623 -65112.9 M 32766 -61556.9 33020 -61302.9 M 33020 -61810.9 32766 -61556.9 M 32004 -64096.9 34544 -64096.9" fill="none" stroke-width="150"/><path d="M 55342.285 -65873.428 55342.285 -66337.714 55628 -66087.714 55628 -66194.857 55663.714 -66266.285 55699.428 -66302 55770.857 -66337.714 55949.428 -66337.714 56020.857 -66302 56056.571 -66266.285 56092.285 -66194.857 56092.285 -65980.571 56056.571 -65909.142 56020.857 -65873.428 M 55342.285 -66552 56092.285 -66802 55342.285 -67052 M 55342.285 -67230.571 55342.285 -67694.857 55628 -67444.857 55628 -67552 55663.714 -67623.428 55699.428 -67659.142 55770.857 -67694.857 55949.428 -67694.857 56020.857 -67659.142 56056.571 -67623.428 56092.285 -67552 56092.285 -67337.714 56056.571 -67266.285 56020.857 -67230.571 M 57856.885 -65849.571 57856.885 -66278.142 M 58606.885 -66063.857 57856.885 -66063.857 M 57856.885 -66456.714 58606.885 -66956.714 M 57856.885 -66956.714 58606.885 -66456.714 M 59851.485 -66296 59494.342 -66046 M 59851.485 -65867.428 59101.485 -65867.428 59101.485 -66153.142 59137.2 -66224.571 59172.914 -66260.285 59244.342 -66296 59351.485 -66296 59422.914 -66260.285 59458.628 -66224.571 59494.342 -66153.142 59494.342 -65867.428 M 59101.485 -66546 59851.485 -67046 M 59101.485 -67046 59851.485 -66546 M 56622.6 -66230.571 56586.885 -66159.142 56586.885 -66052 56622.6 -65944.857 56694.028 -65873.428 56765.457 -65837.714 56908.314 -65802 57015.457 -65802 57158.314 -65837.714 57229.742 -65873.428 57301.171 -65944.857 57336.885 -66052 57336.885 -66123.428 57301.171 -66230.571 57265.457 -66266.285 57015.457 -66266.285 57015.457 -66123.428 M 57336.885 -66587.714 56586.885 -66587.714 57336.885 -67016.285 56586.885 -67016.285 M 57336.885 -67373.428 56586.885 -67373.428 56586.885 -67552 56622.6 -67659.142 56694.028 -67730.571 56765.457 -67766.285 56908.314 -67802 57015.457 -67802 57158.314 -67766.285 57229.742 -67730.571 57301.171 -67659.142 57336.885 -67552 57336.885 -67373.428" fill="none" stroke-width="100"/><path d="M 68314.914 -41335.66 69314.914 -41210.66 M 68362.533 -41329.708 68314.914 -41430.898 68314.914 -41621.375 68362.533 -41710.66 68410.152 -41752.327 68505.39 -41788.041 68791.104 -41752.327 68886.342 -41692.803 68933.961 -41639.232 68981.58 -41538.041 68981.58 -41347.565 68933.961 -41258.279 M 68981.58 -42157.089 67981.58 -42282.089 M 68981.58 -42585.66 68457.771 -42651.136 68362.533 -42615.422 68314.914 -42526.136 68314.914 -42383.279 68362.533 -42282.089 68410.152 -42228.517 M 68981.58 -43061.851 68314.914 -43145.184 M 67981.58 -43186.851 68029.2 -43133.279 68076.819 -43174.946 68029.2 -43228.517 67981.58 -43186.851 68076.819 -43174.946 M 68981.58 -43680.898 68933.961 -43591.613 68838.723 -43555.898 67981.58 -43663.041 M 68933.961 -44020.184 68981.58 -44109.47 68981.58 -44299.946 68933.961 -44401.136 68838.723 -44460.66 68791.104 -44466.613 68695.866 -44430.898 68648.247 -44341.613 68648.247 -44198.755 68600.628 -44109.47 68505.39 -44073.755 68457.771 -44079.708 68362.533 -44139.232 68314.914 -44240.422 68314.914 -44383.279 68362.533 -44472.565 M 68981.58 -45299.946 68457.771 -45365.422 68362.533 -45329.708 68314.914 -45240.422 68314.914 -45049.946 68362.533 -44948.755 M 68933.961 -45305.898 68981.58 -45204.708 68981.58 -44966.613 68933.961 -44877.327 68838.723 -44841.613 68743.485 -44853.517 68648.247 -44913.041 68600.628 -45014.232 68600.628 -45252.327 68553.009 -45353.517 M 68981.58 -45918.994 68933.961 -45829.708 68838.723 -45793.994 67981.58 -45901.136 M 68886.342 -46311.851 68933.961 -46353.517 68981.58 -46299.946 68933.961 -46258.279 68886.342 -46311.851 68981.58 -46299.946 M 68933.961 -47210.66 68981.58 -47109.47 68981.58 -46918.994 68933.961 -46829.708 68886.342 -46788.041 68791.104 -46752.327 68505.39 -46788.041 68410.152 -46847.565 68362.533 -46901.136 68314.914 -47002.327 68314.914 -47192.803 68362.533 -47282.089 M 68981.58 -47776.136 68933.961 -47686.851 68886.342 -47645.184 68791.104 -47609.47 68505.39 -47645.184 68410.152 -47704.708 68362.533 -47758.279 68314.914 -47859.47 68314.914 -48002.327 68362.533 -48091.613 68410.152 -48133.279 68505.39 -48168.994 68791.104 -48133.279 68886.342 -48073.755 68933.961 -48020.184 68981.58 -47918.994 68981.58 -47776.136 M 68886.342 -48549.946 68933.961 -48591.613 68981.58 -48538.041 68933.961 -48496.375 68886.342 -48549.946 68981.58 -48538.041 M 68314.914 -49526.136 68981.58 -49442.803 M 68314.914 -49097.565 68838.723 -49032.089 68933.961 -49067.803 68981.58 -49157.089 68981.58 -49299.946 68933.961 -49401.136 68886.342 -49454.708 M 68981.58 -49918.994 67981.58 -50043.994 M 68600.628 -50061.851 68981.58 -50299.946 M 68314.914 -50383.279 68695.866 -49954.708 M 35440.904 -62009.28 35440.904 -61009.28 35059.952 -61009.28 34964.714 -61056.9 34917.095 -61104.519 34869.476 -61199.757 34869.476 -61342.614 34917.095 -61437.852 34964.714 -61485.471 35059.952 -61533.09 35440.904 -61533.09 M 33559.714 -65771.661 33416.857 -65819.28 33178.761 -65819.28 33083.523 -65771.661 33035.904 -65724.042 32988.285 -65628.804 32988.285 -65533.566 33035.904 -65438.328 33083.523 -65390.709 33178.761 -65343.09 33369.238 -65295.471 33464.476 -65247.852 33512.095 -65200.233 33559.714 -65104.995 33559.714 -65009.757 33512.095 -64914.519 33464.476 -64866.9 33369.238 -64819.28 33131.142 -64819.28 32988.285 -64866.9 M 31702.333 -62009.28 31702.333 -61009.28 31369 -61723.566 31035.666 -61009.28 31035.666 -62009.28" fill="none" stroke-width="150"/><path d="M 50555.085 -66296 50197.942 -66046 M 50555.085 -65867.428 49805.085 -65867.428 49805.085 -66153.142 49840.8 -66224.571 49876.514 -66260.285 49947.942 -66296 50055.085 -66296 50126.514 -66260.285 50162.228 -66224.571 50197.942 -66153.142 50197.942 -65867.428 M 49805.085 -66546 50555.085 -67046 M 49805.085 -67046 50555.085 -66546 M 47351.6 -66230.571 47315.885 -66159.142 47315.885 -66052 47351.6 -65944.857 47423.028 -65873.428 47494.457 -65837.714 47637.314 -65802 47744.457 -65802 47887.314 -65837.714 47958.742 -65873.428 48030.171 -65944.857 48065.885 -66052 48065.885 -66123.428 48030.171 -66230.571 47994.457 -66266.285 47744.457 -66266.285 47744.457 -66123.428 M 48065.885 -66587.714 47315.885 -66587.714 48065.885 -67016.285 47315.885 -67016.285 M 48065.885 -67373.428 47315.885 -67373.428 47315.885 -67552 47351.6 -67659.142 47423.028 -67730.571 47494.457 -67766.285 47637.314 -67802 47744.457 -67802 47887.314 -67766.285 47958.742 -67730.571 48030.171 -67659.142 48065.885 -67552 48065.885 -67373.428 M 46071.285 -65873.428 46071.285 -66337.714 46357 -66087.714 46357 -66194.857 46392.714 -66266.285 46428.428 -66302 46499.857 -66337.714 46678.428 -66337.714 46749.857 -66302 46785.571 -66266.285 46821.285 -66194.857 46821.285 -65980.571 46785.571 -65909.142 46749.857 -65873.428 M 46071.285 -66552 46821.285 -66802 46071.285 -67052 M 46071.285 -67230.571 46071.285 -67694.857 46357 -67444.857 46357 -67552 46392.714 -67623.428 46428.428 -67659.142 46499.857 -67694.857 46678.428 -67694.857 46749.857 -67659.142 46785.571 -67623.428 46821.285 -67552 46821.285 -67337.714 46785.571 -67266.285 46749.857 -67230.571 M 48560.485 -65849.571 48560.485 -66278.142 M 49310.485 -66063.857 48560.485 -66063.857 M 48560.485 -66456.714 49310.485 -66956.714 M 48560.485 -66956.714 49310.485 -66456.714 M 67730.571 -58263.285 67266.285 -58263.285 67516.285 -58549 67409.142 -58549 67337.714 -58584.714 67302 -58620.428 67266.285 -58691.857 67266.285 -58870.428 67302 -58941.857 67337.714 -58977.571 67409.142 -59013.285 67623.428 -59013.285 67694.857 -58977.571 67730.571 -58941.857 M 67052 -58263.285 66802 -59013.285 66552 -58263.285 M 66373.428 -58263.285 65909.142 -58263.285 66159.142 -58549 66052 -58549 65980.571 -58584.714 65944.857 -58620.428 65909.142 -58691.857 65909.142 -58870.428 65944.857 -58941.857 65980.571 -58977.571 66052 -59013.285 66266.285 -59013.285 66337.714 -58977.571 66373.428 -58941.857 M 67424.228 -57029 67495.657 -56993.285 67602.8 -56993.285 67709.942 -57029 67781.371 -57100.428 67817.085 -57171.857 67852.8 -57314.714 67852.8 -57421.857 67817.085 -57564.714 67781.371 -57636.142 67709.942 -57707.571 67602.8 -57743.285 67531.371 -57743.285 67424.228 -57707.571 67388.514 -57671.857 67388.514 -57421.857 67531.371 -57421.857 M 67067.085 -57743.285 67067.085 -56993.285 66638.514 -57743.285 66638.514 -56993.285 M 66281.371 -57743.285 66281.371 -56993.285 66102.8 -56993.285 65995.657 -57029 65924.228 -57100.428 65888.514 -57171.857 65852.8 -57314.714 65852.8 -57421.857 65888.514 -57564.714 65924.228 -57636.142 65995.657 -57707.571 66102.8 -57743.285 66281.371 -57743.285 M 67771.057 -56437.571 67663.914 -56473.285 67485.342 -56473.285 67413.914 -56437.571 67378.2 -56401.857 67342.485 -56330.428 67342.485 -56259 67378.2 -56187.571 67413.914 -56151.857 67485.342 -56116.142 67628.2 -56080.428 67699.628 -56044.714 67735.342 -56009 67771.057 -55937.571 67771.057 -55866.142 67735.342 -55794.714 67699.628 -55759 67628.2 -55723.285 67449.628 -55723.285 67342.485 -55759 M 66592.485 -56401.857 66628.2 -56437.571 66735.342 -56473.285 66806.771 -56473.285 66913.914 -56437.571 66985.342 -56366.142 67021.057 -56294.714 67056.771 -56151.857 67056.771 -56044.714 67021.057 -55901.857 66985.342 -55830.428 66913.914 -55759 66806.771 -55723.285 66735.342 -55723.285 66628.2 -55759 66592.485 -55794.714 M 65913.914 -56473.285 66271.057 -56473.285 66271.057 -55723.285 M 67814.314 -55294.571 67707.171 -55330.285 67528.6 -55330.285 67457.171 -55294.571 67421.457 -55258.857 67385.742 -55187.428 67385.742 -55116 67421.457 -55044.571 67457.171 -55008.857 67528.6 -54973.142 67671.457 -54937.428 67742.885 -54901.714 67778.6 -54866 67814.314 -54794.571 67814.314 -54723.142 67778.6 -54651.714 67742.885 -54616 67671.457 -54580.285 67492.885 -54580.285 67385.742 -54616 M 67064.314 -55330.285 67064.314 -54580.285 66885.742 -54580.285 66778.6 -54616 66707.171 -54687.428 66671.457 -54758.857 66635.742 -54901.714 66635.742 -55008.857 66671.457 -55151.714 66707.171 -55223.142 66778.6 -55294.571 66885.742 -55330.285 67064.314 -55330.285 M 66350.028 -55116 65992.885 -55116 M 66421.457 -55330.285 66171.457 -54580.285 65921.457 -55330.285 M 23479 -55584.285 23479 -54834.285 23193.285 -54834.285 23121.857 -54870 23086.142 -54905.714 23050.428 -54977.142 23050.428 -55084.285 23086.142 -55155.714 23121.857 -55191.428 23193.285 -55227.142 23479 -55227.142 M 22800.428 -54834.285 22621.857 -55584.285 22479 -55048.571 22336.142 -55584.285 22157.571 -54834.285 M 21443.285 -55584.285 21693.285 -55227.142 M 21871.857 -55584.285 21871.857 -54834.285 21586.142 -54834.285 21514.714 -54870 21479 -54905.714 21443.285 -54977.142 21443.285 -55084.285 21479 -55155.714 21514.714 -55191.428 21586.142 -55227.142 21871.857 -55227.142 M 23050.428 -58299 23121.857 -58263.285 23229 -58263.285 23336.142 -58299 23407.571 -58370.428 23443.285 -58441.857 23479 -58584.714 23479 -58691.857 23443.285 -58834.714 23407.571 -58906.142 23336.142 -58977.571 23229 -59013.285 23157.571 -59013.285 23050.428 -58977.571 23014.714 -58941.857 23014.714 -58691.857 23157.571 -58691.857 M 22693.285 -59013.285 22693.285 -58263.285 22264.714 -59013.285 22264.714 -58263.285 M 21907.571 -59013.285 21907.571 -58263.285 21729 -58263.285 21621.857 -58299 21550.428 -58370.428 21514.714 -58441.857 21479 -58584.714 21479 -58691.857 21514.714 -58834.714 21550.428 -58906.142 21621.857 -58977.571 21729 -59013.285 21907.571 -59013.285 M 31962.285 -21987 31212.285 -21987 31212.285 -22272.714 31248 -22344.142 31283.714 -22379.857 31355.142 -22415.571 31462.285 -22415.571 31533.714 -22379.857 31569.428 -22344.142 31605.142 -22272.714 31605.142 -21987 M 31212.285 -22665.571 31962.285 -22844.142 31426.571 -22987 31962.285 -23129.857 31212.285 -23308.428 M 31962.285 -24022.714 31605.142 -23772.714 M 31962.285 -23594.142 31212.285 -23594.142 31212.285 -23879.857 31248 -23951.285 31283.714 -23987 31355.142 -24022.714 31462.285 -24022.714 31533.714 -23987 31569.428 -23951.285 31605.142 -23879.857 31605.142 -23594.142 M 29978 -22415.571 29942.285 -22344.142 29942.285 -22237 29978 -22129.857 30049.428 -22058.428 30120.857 -22022.714 30263.714 -21987 30370.857 -21987 30513.714 -22022.714 30585.142 -22058.428 30656.571 -22129.857 30692.285 -22237 30692.285 -22308.428 30656.571 -22415.571 30620.857 -22451.285 30370.857 -22451.285 30370.857 -22308.428 M 30692.285 -22772.714 29942.285 -22772.714 30692.285 -23201.285 29942.285 -23201.285 M 30692.285 -23558.428 29942.285 -23558.428 29942.285 -23737 29978 -23844.142 30049.428 -23915.571 30120.857 -23951.285 30263.714 -23987 30370.857 -23987 30513.714 -23951.285 30585.142 -23915.571 30656.571 -23844.142 30692.285 -23737 30692.285 -23558.428 M 57791 -22415.571 57755.285 -22344.142 57755.285 -22237 57791 -22129.857 57862.428 -22058.428 57933.857 -22022.714 58076.714 -21987 58183.857 -21987 58326.714 -22022.714 58398.142 -22058.428 58469.571 -22129.857 58505.285 -22237 58505.285 -22308.428 58469.571 -22415.571 58433.857 -22451.285 58183.857 -22451.285 58183.857 -22308.428 M 58505.285 -22772.714 57755.285 -22772.714 58505.285 -23201.285 57755.285 -23201.285 M 58505.285 -23558.428 57755.285 -23558.428 57755.285 -23737 57791 -23844.142 57862.428 -23915.571 57933.857 -23951.285 58076.714 -23987 58183.857 -23987 58326.714 -23951.285 58398.142 -23915.571 58469.571 -23844.142 58505.285 -23737 58505.285 -23558.428 M 59025.285 -22058.428 59025.285 -22522.714 59311 -22272.714 59311 -22379.857 59346.714 -22451.285 59382.428 -22487 59453.857 -22522.714 59632.428 -22522.714 59703.857 -22487 59739.571 -22451.285 59775.285 -22379.857 59775.285 -22165.571 59739.571 -22094.142 59703.857 -22058.428 M 59025.285 -22737 59775.285 -22987 59025.285 -23237 M 59025.285 -23415.571 59025.285 -23879.857 59311 -23629.857 59311 -23737 59346.714 -23808.428 59382.428 -23844.142 59453.857 -23879.857 59632.428 -23879.857 59703.857 -23844.142 59739.571 -23808.428 59775.285 -23737 59775.285 -23522.714 59739.571 -23451.285 59703.857 -23415.571 M 56536.085 -22847.371 56536.085 -23275.942 M 57286.085 -23061.657 56536.085 -23061.657 M 56536.085 -23454.514 57286.085 -23954.514 M 56536.085 -23954.514 57286.085 -23454.514 M 56016.085 -23204.9 55658.942 -22954.9 M 56016.085 -22776.328 55266.085 -22776.328 55266.085 -23062.042 55301.8 -23133.471 55337.514 -23169.185 55408.942 -23204.9 55516.085 -23204.9 55587.514 -23169.185 55623.228 -23133.471 55658.942 -23062.042 55658.942 -22776.328 M 55266.085 -23454.9 56016.085 -23954.9 M 55266.085 -23954.9 56016.085 -23454.9 M 50559.857 -22469.142 50595.571 -22433.428 50631.285 -22326.285 50631.285 -22254.857 50595.571 -22147.714 50524.142 -22076.285 50452.714 -22040.571 50309.857 -22004.857 50202.714 -22004.857 50059.857 -22040.571 49988.428 -22076.285 49917 -22147.714 49881.285 -22254.857 49881.285 -22326.285 49917 -22433.428 49952.714 -22469.142 M 50631.285 -22790.571 49881.285 -22790.571 M 50238.428 -22790.571 50238.428 -23219.142 M 50631.285 -23219.142 49881.285 -23219.142 M 50631.285 -23969.142 50631.285 -23540.571 M 50631.285 -23754.857 49881.285 -23754.857 49988.428 -23683.428 50059.857 -23612 50095.571 -23540.571 M 49289.857 -22469.142 49325.571 -22433.428 49361.285 -22326.285 49361.285 -22254.857 49325.571 -22147.714 49254.142 -22076.285 49182.714 -22040.571 49039.857 -22004.857 48932.714 -22004.857 48789.857 -22040.571 48718.428 -22076.285 48647 -22147.714 48611.285 -22254.857 48611.285 -22326.285 48647 -22433.428 48682.714 -22469.142 M 49361.285 -22790.571 48611.285 -22790.571 M 48968.428 -22790.571 48968.428 -23219.142 M 49361.285 -23219.142 48611.285 -23219.142 M 48682.714 -23540.571 48647 -23576.285 48611.285 -23647.714 48611.285 -23826.285 48647 -23897.714 48682.714 -23933.428 48754.142 -23969.142 48825.571 -23969.142 48932.714 -23933.428 49361.285 -23504.857 49361.285 -23969.142 M 48045.257 -22469.142 48080.971 -22433.428 48116.685 -22326.285 48116.685 -22254.857 48080.971 -22147.714 48009.542 -22076.285 47938.114 -22040.571 47795.257 -22004.857 47688.114 -22004.857 47545.257 -22040.571 47473.828 -22076.285 47402.4 -22147.714 47366.685 -22254.857 47366.685 -22326.285 47402.4 -22433.428 47438.114 -22469.142 M 48116.685 -22790.571 47366.685 -22790.571 M 47723.828 -22790.571 47723.828 -23219.142 M 48116.685 -23219.142 47366.685 -23219.142 M 47366.685 -23504.857 47366.685 -23969.142 47652.4 -23719.142 47652.4 -23826.285 47688.114 -23897.714 47723.828 -23933.428 47795.257 -23969.142 47973.828 -23969.142 48045.257 -23933.428 48080.971 -23897.714 48116.685 -23826.285 48116.685 -23612 48080.971 -23540.571 48045.257 -23504.857 M 46800.657 -22469.142 46836.371 -22433.428 46872.085 -22326.285 46872.085 -22254.857 46836.371 -22147.714 46764.942 -22076.285 46693.514 -22040.571 46550.657 -22004.857 46443.514 -22004.857 46300.657 -22040.571 46229.228 -22076.285 46157.8 -22147.714 46122.085 -22254.857 46122.085 -22326.285 46157.8 -22433.428 46193.514 -22469.142 M 46872.085 -22790.571 46122.085 -22790.571 M 46479.228 -22790.571 46479.228 -23219.142 M 46872.085 -23219.142 46122.085 -23219.142 M 46372.085 -23897.714 46872.085 -23897.714 M 46086.371 -23719.142 46622.085 -23540.571 46622.085 -24004.857 M 67076.533 -28572.59 67362.247 -28572.59 M 67219.39 -28572.59 67219.39 -28072.59 67267.009 -28144.019 67314.628 -28191.638 67362.247 -28215.447 M 66886.057 -28120.209 66862.247 -28096.4 66814.628 -28072.59 66695.58 -28072.59 66647.961 -28096.4 66624.152 -28120.209 66600.342 -28167.828 66600.342 -28215.447 66624.152 -28286.876 66909.866 -28572.59 66600.342 -28572.59 M 66028.914 -28048.78 66457.485 -28691.638 M 65600.342 -28572.59 65886.057 -28572.59 M 65743.2 -28572.59 65743.2 -28072.59 65790.819 -28144.019 65838.438 -28191.638 65886.057 -28215.447 M 65362.247 -28572.59 65267.009 -28572.59 65219.39 -28548.78 65195.58 -28524.971 65147.961 -28453.542 65124.152 -28358.304 65124.152 -28167.828 65147.961 -28120.209 65171.771 -28096.4 65219.39 -28072.59 65314.628 -28072.59 65362.247 -28096.4 65386.057 -28120.209 65409.866 -28167.828 65409.866 -28286.876 65386.057 -28334.495 65362.247 -28358.304 65314.628 -28382.114 65219.39 -28382.114 65171.771 -28358.304 65147.961 -28334.495 65124.152 -28286.876" fill="none" stroke-width="100"/><path d="M 25011.071 -50672.952 25011.071 -49911.047 M 24630.119 -50292 25392.023 -50292 M 22923.452 -50363.428 22161.547 -50363.428 M 27819.314 -50696.761 27676.457 -50744.38 27438.361 -50744.38 27343.123 -50696.761 27295.504 -50649.142 27247.885 -50553.904 27247.885 -50458.666 27295.504 -50363.428 27343.123 -50315.809 27438.361 -50268.19 27628.838 -50220.571 27724.076 -50172.952 27771.695 -50125.333 27819.314 -50030.095 27819.314 -49934.857 27771.695 -49839.619 27724.076 -49792 27628.838 -49744.38 27390.742 -49744.38 27247.885 -49792" fill="none" stroke-width="150"/></g></svg>