<svg version="1.1" xmlns="http://www.w3.org/2000/svg" xmlns:xlink="http://www.w3.org/1999/xlink" stroke-linecap="round" stroke-linejoin="round" stroke-width="0" fill-rule="evenodd" width="48.4mm" height="48.829mm" viewBox="20800 -69629 48400 48829" id="cdZ_XI_uEISb9uYFLAh7"><defs><rect x="-400" y="-650" width="800" height="1300" id="cdZ_XI_uEISb9uYFLAh7_pad-10"/><rect x="-400" y="-650" width="800" height="1300" rx="400" ry="400" id="cdZ_XI_uEISb9uYFLAh7_pad-11"/><g id="cdZ_XI_uEISb9uYFLAh7_pad-12"><polygon points="-147.5,-172.5 147.5,-172.5 147.5,172.5 -147.5,172.5"/><circle cx="-147.5" cy="-172.5" r="147.5"/><circle cx="147.5" cy="-172.5" r="147.5"/><circle cx="147.5" cy="172.5" r="147.5"/><circle cx="-147.5" cy="172.5" r="147.5"/><polygon points="-147.5,-320 147.5,-320 147.5,-25 -147.5,-25"/><polygon points="295,-172.5 295,172.5 0,172.5 0,-172.5"/><polygon points="147.5,25 -147.5,25 -147.5,320 147.5,320"/><polygon points="0,172.5 0,-172.5 -295,-172.5 -295,172.5"/></g><g id="cdZ_XI_uEISb9uYFLAh7_pad-13"><polygon points="147.5,172.5 -147.5,172.5 -147.5,-172.5 147.5,-172.5"/><circle cx="147.5" cy="172.5" r="147.5"/><circle cx="-147.5" cy="172.5" r="147.5"/><circle cx="-147.5" cy="-172.5" r="147.5"/><circle cx="147.5" cy="-172.5" r="147.5"/><polygon points="147.5,25 -147.5,25 -147.5,320 147.5,320"/><polygon points="0,172.5 0,-172.5 -295,-172.5 -295,172.5"/><polygon points="-147.5,-320 147.5,-320 147.5,-25 -147.5,-25"/><polygon points="295,-172.5 295,172.5 0,172.5 0,-172.5"/></g><g id="cdZ_XI_uEISb9uYFLAh7_pad-14"><polygon points="-172.5,147.5 -172.5,-147.5 172.5,-147.5 172.5,147.5"/><circle cx="-172.5" cy="147.5" r="147.5"/><circle cx="-172.5" cy="-147.5" r="147.5"/><circle cx="172.5" cy="-147.5" r="147.5"/><circle cx="172.5" cy="147.5" r="147.5"/><polygon points="-25,147.5 -25,-147.5 -320,-147.5 -320,147.5"/><polygon points="-172.5,-295 172.5,-295 172.5,0 -172.5,0"/><polygon points="320,-147.5 320,147.5 25,147.5 25,-147.5"/><polygon points="172.5,0 -172.5,0 -172.5,295 172.5,295"/></g><g id="cdZ_XI_uEISb9uYFLAh7_pad-15"><polygon points="172.5,-147.5 172.5,147.5 -172.5,147.5 -172.5,-147.5"/><circle cx="172.5" cy="-147.5" r="147.5"/><circle cx="172.5" cy="147.5" r="147.5"/><circle cx="-172.5" cy="147.5" r="147.5"/><circle cx="-172.5" cy="-147.5" r="147.5"/><polygon points="320,-147.5 320,147.5 25,147.5 25,-147.5"/><polygon points="172.5,0 -172.5,0 -172.5,295 172.5,295"/><polygon points="-25,147.5 -25,-147.5 -320,-147.5 -320,147.5"/><polygon points="-172.5,-295 172.5,-295 172.5,0 -172.5,0"/></g><rect x="-175" y="-190" width="350" height="380" id="cdZ_XI_uEISb9uYFLAh7_pad-16"/><rect x="-400" y="-700" width="800" height="1400" id="cdZ_XI_uEISb9uYFLAh7_pad-17"/><g id="cdZ_XI_uEISb9uYFLAh7_pad-18"><polygon points="-218.75,-256.25 218.75,-256.25 218.75,256.25 -218.75,256.25"/><circle cx="-218.75" cy="-256.25" r="218.75"/><circle cx="218.75" cy="-256.25" r="218.75"/><circle cx="218.75" cy="256.25" r="218.75"/><circle cx="-218.75" cy="256.25" r="218.75"/><polygon points="-218.75,-475 218.75,-475 218.75,-37.5 -218.75,-37.5"/><polygon points="437.5,-256.25 437.5,256.25 0,256.25 0,-256.25"/><polygon points="218.75,37.5 -218.75,37.5 -218.75,475 218.75,475"/><polygon points="0,256.25 0,-256.25 -437.5,-256.25 -437.5,256.25"/></g><g id="cdZ_XI_uEISb9uYFLAh7_pad-19"><polygon points="256.25,-218.75 256.25,218.75 -256.25,218.75 -256.25,-218.75"/><circle cx="256.25" cy="-218.75" r="218.75"/><circle cx="256.25" cy="218.75" r="218.75"/><circle cx="-256.25" cy="218.75" r="218.75"/><circle cx="-256.25" cy="-218.75" r="218.75"/><polygon points="475,-218.75 475,218.75 37.5,218.75 37.5,-218.75"/><polygon points="256.25,0 -256.25,0 -256.25,437.5 256.25,437.5"/><polygon points="-37.5,218.75 -37.5,-218.75 -475,-218.75 -475,218.75"/><polygon points="-256.25,-437.5 256.25,-437.5 256.25,0 -256.25,0"/></g><g id="cdZ_XI_uEISb9uYFLAh7_pad-20"><polygon points="-256.25,218.75 -256.25,-218.75 256.25,-218.75 256.25,218.75"/><circle cx="-256.25" cy="218.75" r="218.75"/><circle cx="-256.25" cy="-218.75" r="218.75"/><circle cx="256.25" cy="-218.75" r="218.75"/><circle cx="256.25" cy="218.75" r="218.75"/><polygon points="-37.5,218.75 -37.5,-218.75 -475,-218.75 -475,218.75"/><polygon points="-256.25,-437.5 256.25,-437.5 256.25,0 -256.25,0"/><polygon points="475,-218.75 475,218.75 37.5,218.75 37.5,-218.75"/><polygon points="256.25,0 -256.25,0 -256.25,437.5 256.25,437.5"/></g><rect x="-225" y="-300" width="450" height="600" id="cdZ_XI_uEISb9uYFLAh7_pad-21"/><rect x="-300" y="-225" width="600" height="450" id="cdZ_XI_uEISb9uYFLAh7_pad-22"/><rect x="-300" y="-575" width="600" height="1150" id="cdZ_XI_uEISb9uYFLAh7_pad-23"/><rect x="-475" y="-225" width="950" height="450" id="cdZ_XI_uEISb9uYFLAh7_pad-24"/><rect x="-1725" y="-2175" width="3450" height="4350" id="cdZ_XI_uEISb9uYFLAh7_pad-25"/><rect x="-650" y="-400" width="1300" height="800" id="cdZ_XI_uEISb9uYFLAh7_pad-26"/><rect x="-650" y="-400" width="1300" height="800" rx="400" ry="400" id="cdZ_XI_uEISb9uYFLAh7_pad-27"/><rect x="-165" y="-150" width="330" height="300" id="cdZ_XI_uEISb9uYFLAh7_pad-28"/><rect x="-150" y="-165" width="300" height="330" id="cdZ_XI_uEISb9uYFLAh7_pad-29"/><rect x="-175" y="-290" width="350" height="580" id="cdZ_XI_uEISb9uYFLAh7_pad-30"/><rect x="-290" y="-175" width="580" height="350" id="cdZ_XI_uEISb9uYFLAh7_pad-31"/><rect x="-500" y="-500" width="1000" height="1000" id="cdZ_XI_uEISb9uYFLAh7_pad-32"/><rect x="-500" y="-500" width="1000" height="1000" rx="500" ry="500" id="cdZ_XI_uEISb9uYFLAh7_pad-33"/><g id="cdZ_XI_uEISb9uYFLAh7_pad-34"><polygon points="-437.5,-75 437.5,-75 437.5,75 -437.5,75"/><circle cx="-437.5" cy="-75" r="75"/><circle cx="437.5" cy="-75" r="75"/><circle cx="437.5" cy="75" r="75"/><circle cx="-437.5" cy="75" r="75"/><polygon points="-437.5,-150 437.5,-150 437.5,0 -437.5,0"/><polygon points="512.5,-75 512.5,75 362.5,75 362.5,-75"/><polygon points="437.5,0 -437.5,0 -437.5,150 437.5,150"/><polygon points="-362.5,75 -362.5,-75 -512.5,-75 -512.5,75"/></g><g id="cdZ_XI_uEISb9uYFLAh7_pad-35"><polygon points="-75,-437.5 75,-437.5 75,437.5 -75,437.5"/><circle cx="-75" cy="-437.5" r="75"/><circle cx="75" cy="-437.5" r="75"/><circle cx="75" cy="437.5" r="75"/><circle cx="-75" cy="437.5" r="75"/><polygon points="-75,-512.5 75,-512.5 75,-362.5 -75,-362.5"/><polygon points="150,-437.5 150,437.5 0,437.5 0,-437.5"/><polygon points="75,362.5 -75,362.5 -75,512.5 75,512.5"/><polygon points="0,437.5 0,-437.5 -150,-437.5 -150,437.5"/></g><g id="cdZ_XI_uEISb9uYFLAh7_pad-36"><polygon points="-1874.998,-1874.998 1874.998,-1874.998 1874.998,1874.998 -1874.998,1874.998"/><circle cx="-1874.998" cy="-1874.998" r="250.002"/><circle cx="1874.998" cy="-1874.998" r="250.002"/><circle cx="1874.998" cy="1874.998" r="250.002"/><circle cx="-1874.998" cy="1874.998" r="250.002"/><polygon points="-1874.998,-2125 1874.998,-2125 1874.998,-1624.996 -1874.998,-1624.996"/><polygon points="2125,-1874.998 2125,1874.998 1624.996,1874.998 1624.996,-1874.998"/><polygon points="1874.998,1624.996 -1874.998,1624.996 -1874.998,2125 1874.998,2125"/><polygon points="-1624.996,1874.998 -1624.996,-1874.998 -2125,-1874.998 -2125,1874.998"/></g><rect x="-850" y="-850" width="1700" height="1700" id="cdZ_XI_uEISb9uYFLAh7_pad-37"/><rect x="-850" y="-850" width="1700" height="1700" rx="850" ry="850" id="cdZ_XI_uEISb9uYFLAh7_pad-38"/><rect x="-400" y="-200" width="800" height="400" id="cdZ_XI_uEISb9uYFLAh7_pad-39"/><rect x="-875" y="-1250" width="1750" height="2500" id="cdZ_XI_uEISb9uYFLAh7_pad-40"/><rect x="-325" y="-525" width="650" height="1050" id="cdZ_XI_uEISb9uYFLAh7_pad-41"/><rect x="-370" y="-1200" width="740" height="2400" id="cdZ_XI_uEISb9uYFLAh7_pad-42"/><rect x="-530" y="-325" width="1060" height="650" id="cdZ_XI_uEISb9uYFLAh7_pad-43"/><rect x="-400" y="-725" width="800" height="1450" id="cdZ_XI_uEISb9uYFLAh7_pad-44"/><rect x="-175" y="-150" width="350" height="300" id="cdZ_XI_uEISb9uYFLAh7_pad-45"/><rect x="-150" y="-175" width="300" height="350" id="cdZ_XI_uEISb9uYFLAh7_pad-46"/><circle cx="0" cy="0" r="3200" id="cdZ_XI_uEISb9uYFLAh7_pad-47"/><circle cx="0" cy="0" r="400" id="cdZ_XI_uEISb9uYFLAh7_pad-48"/><rect x="-600" y="-700" width="1200" height="1400" id="cdZ_XI_uEISb9uYFLAh7_pad-49"/><rect x="-500" y="-125" width="1000" height="250" id="cdZ_XI_uEISb9uYFLAh7_pad-50"/><rect x="-125" y="-500" width="250" height="1000" id="cdZ_XI_uEISb9uYFLAh7_pad-51"/><g id="cdZ_XI_uEISb9uYFLAh7_pad-52"><polygon points="218.75,256.25 -218.75,256.25 -218.75,-256.25 218.75,-256.25"/><circle cx="218.75" cy="256.25" r="218.75"/><circle cx="-218.75" cy="256.25" r="218.75"/><circle cx="-218.75" cy="-256.25" r="218.75"/><circle cx="218.75" cy="-256.25" r="218.75"/><polygon points="218.75,37.5 -218.75,37.5 -218.75,475 218.75,475"/><polygon points="0,256.25 0,-256.25 -437.5,-256.25 -437.5,256.25"/><polygon points="-218.75,-475 218.75,-475 218.75,-37.5 -218.75,-37.5"/><polygon points="437.5,-256.25 437.5,256.25 0,256.25 0,-256.25"/></g><rect x="-1200" y="-1200" width="2400" height="2400" id="cdZ_XI_uEISb9uYFLAh7_pad-53"/><circle cx="0" cy="0" r="1200" id="cdZ_XI_uEISb9uYFLAh7_pad-54"/><rect x="-650" y="-225" width="1300" height="450" id="cdZ_XI_uEISb9uYFLAh7_pad-55"/><circle cx="0" cy="0" r="900" id="cdZ_XI_uEISb9uYFLAh7_pad-56"/><circle cx="0" cy="0" r="1000" id="cdZ_XI_uEISb9uYFLAh7_pad-57"/></defs><g transform="translate(0,-90429) scale(1,-1)" fill="currentColor" stroke="currentColor"><use xlink:href="#cdZ_XI_uEISb9uYFLAh7_pad-10" x="46482" y="-64770"/><use xlink:href="#cdZ_XI_uEISb9uYFLAh7_pad-11" x="47732" y="-64770"/><use xlink:href="#cdZ_XI_uEISb9uYFLAh7_pad-11" x="48982" y="-64770"/><use xlink:href="#cdZ_XI_uEISb9uYFLAh7_pad-11" x="50232" y="-64770"/><use xlink:href="#cdZ_XI_uEISb9uYFLAh7_pad-12" x="52728" y="-47244"/><use xlink:href="#cdZ_XI_uEISb9uYFLAh7_pad-12" x="53698" y="-47244"/><use xlink:href="#cdZ_XI_uEISb9uYFLAh7_pad-13" x="36276" y="-52832"/><use xlink:href="#cdZ_XI_uEISb9uYFLAh7_pad-13" x="35306" y="-52832"/><use xlink:href="#cdZ_XI_uEISb9uYFLAh7_pad-14" x="49403" y="-35034.5"/><use xlink:href="#cdZ_XI_uEISb9uYFLAh7_pad-14" x="49403" y="-36004.5"/><use xlink:href="#cdZ_XI_uEISb9uYFLAh7_pad-15" x="55499" y="-41506"/><use xlink:href="#cdZ_XI_uEISb9uYFLAh7_pad-15" x="55499" y="-40536"/><use xlink:href="#cdZ_XI_uEISb9uYFLAh7_pad-16" x="36788.8" y="-44106.4"/><use xlink:href="#cdZ_XI_uEISb9uYFLAh7_pad-16" x="36788.8" y="-44606.4"/><use xlink:href="#cdZ_XI_uEISb9uYFLAh7_pad-16" x="37053.8" y="-45121.4"/><use xlink:href="#cdZ_XI_uEISb9uYFLAh7_pad-16" x="37553.8" y="-45121.4"/><use xlink:href="#cdZ_XI_uEISb9uYFLAh7_pad-16" x="38053.8" y="-45121.4"/><use xlink:href="#cdZ_XI_uEISb9uYFLAh7_pad-16" x="38318.8" y="-44606.4"/><use xlink:href="#cdZ_XI_uEISb9uYFLAh7_pad-16" x="38318.8" y="-44106.4"/><use xlink:href="#cdZ_XI_uEISb9uYFLAh7_pad-16" x="38053.8" y="-43591.4"/><use xlink:href="#cdZ_XI_uEISb9uYFLAh7_pad-16" x="37553.8" y="-43591.4"/><use xlink:href="#cdZ_XI_uEISb9uYFLAh7_pad-16" x="37053.8" y="-43591.4"/><use xlink:href="#cdZ_XI_uEISb9uYFLAh7_pad-17" x="29746" y="-68929"/><use xlink:href="#cdZ_XI_uEISb9uYFLAh7_pad-17" x="33246" y="-68929"/><use xlink:href="#cdZ_XI_uEISb9uYFLAh7_pad-17" x="31496" y="-64929"/><use xlink:href="#cdZ_XI_uEISb9uYFLAh7_pad-17" x="36731" y="-68929"/><use xlink:href="#cdZ_XI_uEISb9uYFLAh7_pad-17" x="40231" y="-68929"/><use xlink:href="#cdZ_XI_uEISb9uYFLAh7_pad-17" x="38481" y="-64929"/><use xlink:href="#cdZ_XI_uEISb9uYFLAh7_pad-18" x="35686.8" y="-26771.6"/><use xlink:href="#cdZ_XI_uEISb9uYFLAh7_pad-18" x="37261.8" y="-26771.6"/><use xlink:href="#cdZ_XI_uEISb9uYFLAh7_pad-19" x="40182.8" y="-24536.6"/><use xlink:href="#cdZ_XI_uEISb9uYFLAh7_pad-19" x="40182.8" y="-22961.6"/><use xlink:href="#cdZ_XI_uEISb9uYFLAh7_pad-12" x="42718" y="-43815"/><use xlink:href="#cdZ_XI_uEISb9uYFLAh7_pad-12" x="43688" y="-43815"/><use xlink:href="#cdZ_XI_uEISb9uYFLAh7_pad-15" x="39624" y="-54229"/><use xlink:href="#cdZ_XI_uEISb9uYFLAh7_pad-15" x="39624" y="-53259"/><use xlink:href="#cdZ_XI_uEISb9uYFLAh7_pad-14" x="38176.2" y="-29283.8"/><use xlink:href="#cdZ_XI_uEISb9uYFLAh7_pad-14" x="38176.2" y="-30253.8"/><use xlink:href="#cdZ_XI_uEISb9uYFLAh7_pad-12" x="44496" y="-36322"/><use xlink:href="#cdZ_XI_uEISb9uYFLAh7_pad-12" x="45466" y="-36322"/><use xlink:href="#cdZ_XI_uEISb9uYFLAh7_pad-12" x="45720" y="-41402"/><use xlink:href="#cdZ_XI_uEISb9uYFLAh7_pad-12" x="46690" y="-41402"/><use xlink:href="#cdZ_XI_uEISb9uYFLAh7_pad-12" x="44750" y="-34036"/><use xlink:href="#cdZ_XI_uEISb9uYFLAh7_pad-12" x="45720" y="-34036"/><use xlink:href="#cdZ_XI_uEISb9uYFLAh7_pad-13" x="45928" y="-29845"/><use xlink:href="#cdZ_XI_uEISb9uYFLAh7_pad-13" x="44958" y="-29845"/><use xlink:href="#cdZ_XI_uEISb9uYFLAh7_pad-14" x="47371" y="-31542"/><use xlink:href="#cdZ_XI_uEISb9uYFLAh7_pad-14" x="47371" y="-32512"/><use xlink:href="#cdZ_XI_uEISb9uYFLAh7_pad-20" x="48895" y="-31216.5"/><use xlink:href="#cdZ_XI_uEISb9uYFLAh7_pad-20" x="48895" y="-32791.5"/><use xlink:href="#cdZ_XI_uEISb9uYFLAh7_pad-12" x="36776.8" y="-42316.4"/><use xlink:href="#cdZ_XI_uEISb9uYFLAh7_pad-12" x="37746.8" y="-42316.4"/><use xlink:href="#cdZ_XI_uEISb9uYFLAh7_pad-14" x="35102.8" y="-44117.4"/><use xlink:href="#cdZ_XI_uEISb9uYFLAh7_pad-14" x="35102.8" y="-45087.4"/><use xlink:href="#cdZ_XI_uEISb9uYFLAh7_pad-13" x="36068" y="-33045.4"/><use xlink:href="#cdZ_XI_uEISb9uYFLAh7_pad-13" x="35098" y="-33045.4"/><use xlink:href="#cdZ_XI_uEISb9uYFLAh7_pad-13" x="59425.7" y="-45872.4"/><use xlink:href="#cdZ_XI_uEISb9uYFLAh7_pad-13" x="58455.7" y="-45872.4"/><use xlink:href="#cdZ_XI_uEISb9uYFLAh7_pad-12" x="39751" y="-57531"/><use xlink:href="#cdZ_XI_uEISb9uYFLAh7_pad-12" x="40721" y="-57531"/><use xlink:href="#cdZ_XI_uEISb9uYFLAh7_pad-12" x="42718" y="-68199"/><use xlink:href="#cdZ_XI_uEISb9uYFLAh7_pad-12" x="43688" y="-68199"/><use xlink:href="#cdZ_XI_uEISb9uYFLAh7_pad-13" x="60152" y="-37084"/><use xlink:href="#cdZ_XI_uEISb9uYFLAh7_pad-13" x="59182" y="-37084"/><use xlink:href="#cdZ_XI_uEISb9uYFLAh7_pad-14" x="58420" y="-38250"/><use xlink:href="#cdZ_XI_uEISb9uYFLAh7_pad-14" x="58420" y="-39220"/><use xlink:href="#cdZ_XI_uEISb9uYFLAh7_pad-15" x="51181" y="-38816"/><use xlink:href="#cdZ_XI_uEISb9uYFLAh7_pad-15" x="51181" y="-37846"/><use xlink:href="#cdZ_XI_uEISb9uYFLAh7_pad-19" x="56388" y="-58725"/><use xlink:href="#cdZ_XI_uEISb9uYFLAh7_pad-19" x="56388" y="-57150"/><use xlink:href="#cdZ_XI_uEISb9uYFLAh7_pad-19" x="58166" y="-58725"/><use xlink:href="#cdZ_XI_uEISb9uYFLAh7_pad-19" x="58166" y="-57150"/><use xlink:href="#cdZ_XI_uEISb9uYFLAh7_pad-19" x="59944" y="-58725"/><use xlink:href="#cdZ_XI_uEISb9uYFLAh7_pad-19" x="59944" y="-57150"/><use xlink:href="#cdZ_XI_uEISb9uYFLAh7_pad-21" x="61214" y="-29811"/><use xlink:href="#cdZ_XI_uEISb9uYFLAh7_pad-21" x="61214" y="-31911"/><use xlink:href="#cdZ_XI_uEISb9uYFLAh7_pad-22" x="32419" y="-50609.5"/><use xlink:href="#cdZ_XI_uEISb9uYFLAh7_pad-22" x="30319" y="-50609.5"/><use xlink:href="#cdZ_XI_uEISb9uYFLAh7_pad-23" x="34940.2" y="-31018.8"/><use xlink:href="#cdZ_XI_uEISb9uYFLAh7_pad-23" x="35890.2" y="-31018.8"/><use xlink:href="#cdZ_XI_uEISb9uYFLAh7_pad-23" x="36840.2" y="-31018.8"/><use xlink:href="#cdZ_XI_uEISb9uYFLAh7_pad-23" x="36840.2" y="-28518.8"/><use xlink:href="#cdZ_XI_uEISb9uYFLAh7_pad-23" x="34940.2" y="-28518.8"/><use xlink:href="#cdZ_XI_uEISb9uYFLAh7_pad-19" x="61595" y="-38786"/><use xlink:href="#cdZ_XI_uEISb9uYFLAh7_pad-19" x="61595" y="-37211"/><use xlink:href="#cdZ_XI_uEISb9uYFLAh7_pad-20" x="59944" y="-38481"/><use xlink:href="#cdZ_XI_uEISb9uYFLAh7_pad-20" x="59944" y="-40056"/><use xlink:href="#cdZ_XI_uEISb9uYFLAh7_pad-24" x="30517" y="-57531"/><use xlink:href="#cdZ_XI_uEISb9uYFLAh7_pad-24" x="30517" y="-58801"/><use xlink:href="#cdZ_XI_uEISb9uYFLAh7_pad-24" x="30517" y="-60071"/><use xlink:href="#cdZ_XI_uEISb9uYFLAh7_pad-24" x="30517" y="-61341"/><use xlink:href="#cdZ_XI_uEISb9uYFLAh7_pad-24" x="38317" y="-61341"/><use xlink:href="#cdZ_XI_uEISb9uYFLAh7_pad-24" x="38317" y="-60071"/><use xlink:href="#cdZ_XI_uEISb9uYFLAh7_pad-24" x="38317" y="-58801"/><use xlink:href="#cdZ_XI_uEISb9uYFLAh7_pad-24" x="38317" y="-57531"/><use xlink:href="#cdZ_XI_uEISb9uYFLAh7_pad-25" x="34417" y="-59436"/><use xlink:href="#cdZ_XI_uEISb9uYFLAh7_pad-10" x="55753" y="-64770"/><use xlink:href="#cdZ_XI_uEISb9uYFLAh7_pad-11" x="57003" y="-64770"/><use xlink:href="#cdZ_XI_uEISb9uYFLAh7_pad-11" x="58253" y="-64770"/><use xlink:href="#cdZ_XI_uEISb9uYFLAh7_pad-11" x="59503" y="-64770"/><use xlink:href="#cdZ_XI_uEISb9uYFLAh7_pad-26" x="64770" y="-58674"/><use xlink:href="#cdZ_XI_uEISb9uYFLAh7_pad-27" x="64770" y="-57424"/><use xlink:href="#cdZ_XI_uEISb9uYFLAh7_pad-27" x="64770" y="-56174"/><use xlink:href="#cdZ_XI_uEISb9uYFLAh7_pad-27" x="64770" y="-54924"/><use xlink:href="#cdZ_XI_uEISb9uYFLAh7_pad-28" x="43430" y="-67027"/><use xlink:href="#cdZ_XI_uEISb9uYFLAh7_pad-29" x="43405" y="-66552"/><use xlink:href="#cdZ_XI_uEISb9uYFLAh7_pad-28" x="42930" y="-66577"/><use xlink:href="#cdZ_XI_uEISb9uYFLAh7_pad-29" x="42955" y="-67052"/><use xlink:href="#cdZ_XI_uEISb9uYFLAh7_pad-30" x="43754" y="-37744"/><use xlink:href="#cdZ_XI_uEISb9uYFLAh7_pad-30" x="44254" y="-37744"/><use xlink:href="#cdZ_XI_uEISb9uYFLAh7_pad-30" x="44754" y="-37744"/><use xlink:href="#cdZ_XI_uEISb9uYFLAh7_pad-30" x="45254" y="-37744"/><use xlink:href="#cdZ_XI_uEISb9uYFLAh7_pad-30" x="45754" y="-37744"/><use xlink:href="#cdZ_XI_uEISb9uYFLAh7_pad-30" x="46254" y="-37744"/><use xlink:href="#cdZ_XI_uEISb9uYFLAh7_pad-30" x="46754" y="-37744"/><use xlink:href="#cdZ_XI_uEISb9uYFLAh7_pad-31" x="47164" y="-38904"/><use xlink:href="#cdZ_XI_uEISb9uYFLAh7_pad-30" x="46754" y="-40064"/><use xlink:href="#cdZ_XI_uEISb9uYFLAh7_pad-30" x="46254" y="-40064"/><use xlink:href="#cdZ_XI_uEISb9uYFLAh7_pad-30" x="45754" y="-40064"/><use xlink:href="#cdZ_XI_uEISb9uYFLAh7_pad-30" x="45254" y="-40064"/><use xlink:href="#cdZ_XI_uEISb9uYFLAh7_pad-30" x="44754" y="-40064"/><use xlink:href="#cdZ_XI_uEISb9uYFLAh7_pad-30" x="44254" y="-40064"/><use xlink:href="#cdZ_XI_uEISb9uYFLAh7_pad-30" x="43754" y="-40064"/><use xlink:href="#cdZ_XI_uEISb9uYFLAh7_pad-31" x="43344" y="-38904"/><use xlink:href="#cdZ_XI_uEISb9uYFLAh7_pad-32" x="31369" y="-54292.5"/><use xlink:href="#cdZ_XI_uEISb9uYFLAh7_pad-33" x="31369" y="-53022.5"/><use xlink:href="#cdZ_XI_uEISb9uYFLAh7_pad-34" x="33357.5" y="-35388"/><use xlink:href="#cdZ_XI_uEISb9uYFLAh7_pad-34" x="33357.5" y="-36038"/><use xlink:href="#cdZ_XI_uEISb9uYFLAh7_pad-34" x="33357.5" y="-36688"/><use xlink:href="#cdZ_XI_uEISb9uYFLAh7_pad-34" x="33357.5" y="-37338"/><use xlink:href="#cdZ_XI_uEISb9uYFLAh7_pad-34" x="33357.5" y="-37988"/><use xlink:href="#cdZ_XI_uEISb9uYFLAh7_pad-34" x="33357.5" y="-38638"/><use xlink:href="#cdZ_XI_uEISb9uYFLAh7_pad-34" x="33357.5" y="-39288"/><use xlink:href="#cdZ_XI_uEISb9uYFLAh7_pad-35" x="34245" y="-40175.5"/><use xlink:href="#cdZ_XI_uEISb9uYFLAh7_pad-35" x="34895" y="-40175.5"/><use xlink:href="#cdZ_XI_uEISb9uYFLAh7_pad-35" x="35545" y="-40175.5"/><use xlink:href="#cdZ_XI_uEISb9uYFLAh7_pad-35" x="36195" y="-40175.5"/><use xlink:href="#cdZ_XI_uEISb9uYFLAh7_pad-35" x="36845" y="-40175.5"/><use xlink:href="#cdZ_XI_uEISb9uYFLAh7_pad-35" x="37495" y="-40175.5"/><use xlink:href="#cdZ_XI_uEISb9uYFLAh7_pad-35" x="38145" y="-40175.5"/><use xlink:href="#cdZ_XI_uEISb9uYFLAh7_pad-34" x="39032.5" y="-39288"/><use xlink:href="#cdZ_XI_uEISb9uYFLAh7_pad-34" x="39032.5" y="-38638"/><use xlink:href="#cdZ_XI_uEISb9uYFLAh7_pad-34" x="39032.5" y="-37988"/><use xlink:href="#cdZ_XI_uEISb9uYFLAh7_pad-34" x="39032.5" y="-37338"/><use xlink:href="#cdZ_XI_uEISb9uYFLAh7_pad-34" x="39032.5" y="-36688"/><use xlink:href="#cdZ_XI_uEISb9uYFLAh7_pad-34" x="39032.5" y="-36038"/><use xlink:href="#cdZ_XI_uEISb9uYFLAh7_pad-34" x="39032.5" y="-35388"/><use xlink:href="#cdZ_XI_uEISb9uYFLAh7_pad-35" x="38145" y="-34500.5"/><use xlink:href="#cdZ_XI_uEISb9uYFLAh7_pad-35" x="37495" y="-34500.5"/><use xlink:href="#cdZ_XI_uEISb9uYFLAh7_pad-35" x="36845" y="-34500.5"/><use xlink:href="#cdZ_XI_uEISb9uYFLAh7_pad-35" x="36195" y="-34500.5"/><use xlink:href="#cdZ_XI_uEISb9uYFLAh7_pad-35" x="35545" y="-34500.5"/><use xlink:href="#cdZ_XI_uEISb9uYFLAh7_pad-35" x="34895" y="-34500.5"/><use xlink:href="#cdZ_XI_uEISb9uYFLAh7_pad-35" x="34245" y="-34500.5"/><use xlink:href="#cdZ_XI_uEISb9uYFLAh7_pad-36" x="36195" y="-37338"/><use xlink:href="#cdZ_XI_uEISb9uYFLAh7_pad-37" x="25000" y="-48000"/><use xlink:href="#cdZ_XI_uEISb9uYFLAh7_pad-38" x="22460" y="-48000"/><use xlink:href="#cdZ_XI_uEISb9uYFLAh7_pad-38" x="25000" y="-45460"/><use xlink:href="#cdZ_XI_uEISb9uYFLAh7_pad-38" x="22460" y="-45460"/><use xlink:href="#cdZ_XI_uEISb9uYFLAh7_pad-38" x="25000" y="-42920"/><use xlink:href="#cdZ_XI_uEISb9uYFLAh7_pad-38" x="22460" y="-42920"/><use xlink:href="#cdZ_XI_uEISb9uYFLAh7_pad-38" x="25000" y="-40380"/><use xlink:href="#cdZ_XI_uEISb9uYFLAh7_pad-38" x="22460" y="-40380"/><use xlink:href="#cdZ_XI_uEISb9uYFLAh7_pad-38" x="25000" y="-37840"/><use xlink:href="#cdZ_XI_uEISb9uYFLAh7_pad-38" x="22460" y="-37840"/><use xlink:href="#cdZ_XI_uEISb9uYFLAh7_pad-38" x="25000" y="-35300"/><use xlink:href="#cdZ_XI_uEISb9uYFLAh7_pad-38" x="22460" y="-35300"/><use xlink:href="#cdZ_XI_uEISb9uYFLAh7_pad-38" x="25000" y="-32760"/><use xlink:href="#cdZ_XI_uEISb9uYFLAh7_pad-38" x="22460" y="-32760"/><use xlink:href="#cdZ_XI_uEISb9uYFLAh7_pad-38" x="25000" y="-30220"/><use xlink:href="#cdZ_XI_uEISb9uYFLAh7_pad-38" x="22460" y="-30220"/><use xlink:href="#cdZ_XI_uEISb9uYFLAh7_pad-37" x="27541.22" y="-30251.4"/><use xlink:href="#cdZ_XI_uEISb9uYFLAh7_pad-38" x="27541.22" y="-32791.4"/><use xlink:href="#cdZ_XI_uEISb9uYFLAh7_pad-38" x="27541.22" y="-35331.4"/><use xlink:href="#cdZ_XI_uEISb9uYFLAh7_pad-38" x="27541.22" y="-37871.4"/><use xlink:href="#cdZ_XI_uEISb9uYFLAh7_pad-38" x="27541.22" y="-40411.4"/><use xlink:href="#cdZ_XI_uEISb9uYFLAh7_pad-38" x="27541.22" y="-42951.4"/><use xlink:href="#cdZ_XI_uEISb9uYFLAh7_pad-38" x="27541.22" y="-45491.4"/><use xlink:href="#cdZ_XI_uEISb9uYFLAh7_pad-38" x="27541.22" y="-48031.4"/><use xlink:href="#cdZ_XI_uEISb9uYFLAh7_pad-19" x="40182.8" y="-27660.6"/><use xlink:href="#cdZ_XI_uEISb9uYFLAh7_pad-19" x="40182.8" y="-26085.6"/><use xlink:href="#cdZ_XI_uEISb9uYFLAh7_pad-13" x="42676.8" y="-27660.6"/><use xlink:href="#cdZ_XI_uEISb9uYFLAh7_pad-13" x="41706.8" y="-27660.6"/><use xlink:href="#cdZ_XI_uEISb9uYFLAh7_pad-14" x="50736.5" y="-35034.5"/><use xlink:href="#cdZ_XI_uEISb9uYFLAh7_pad-14" x="50736.5" y="-36004.5"/><use xlink:href="#cdZ_XI_uEISb9uYFLAh7_pad-14" x="66103.5" y="-51077"/><use xlink:href="#cdZ_XI_uEISb9uYFLAh7_pad-14" x="66103.5" y="-52047"/><use xlink:href="#cdZ_XI_uEISb9uYFLAh7_pad-14" x="64770" y="-51077"/><use xlink:href="#cdZ_XI_uEISb9uYFLAh7_pad-14" x="64770" y="-52047"/><use xlink:href="#cdZ_XI_uEISb9uYFLAh7_pad-14" x="54610" y="-60244"/><use xlink:href="#cdZ_XI_uEISb9uYFLAh7_pad-14" x="54610" y="-61214"/><use xlink:href="#cdZ_XI_uEISb9uYFLAh7_pad-14" x="58166" y="-60244"/><use xlink:href="#cdZ_XI_uEISb9uYFLAh7_pad-14" x="58166" y="-61214"/><use xlink:href="#cdZ_XI_uEISb9uYFLAh7_pad-14" x="59944" y="-60248.8"/><use xlink:href="#cdZ_XI_uEISb9uYFLAh7_pad-14" x="59944" y="-61218.8"/><use xlink:href="#cdZ_XI_uEISb9uYFLAh7_pad-15" x="54229" y="-41508.4"/><use xlink:href="#cdZ_XI_uEISb9uYFLAh7_pad-15" x="54229" y="-40538.4"/><use xlink:href="#cdZ_XI_uEISb9uYFLAh7_pad-13" x="30076" y="-64897"/><use xlink:href="#cdZ_XI_uEISb9uYFLAh7_pad-13" x="29106" y="-64897"/><use xlink:href="#cdZ_XI_uEISb9uYFLAh7_pad-13" x="37061" y="-64897"/><use xlink:href="#cdZ_XI_uEISb9uYFLAh7_pad-13" x="36091" y="-64897"/><use xlink:href="#cdZ_XI_uEISb9uYFLAh7_pad-12" x="39751" y="-58801"/><use xlink:href="#cdZ_XI_uEISb9uYFLAh7_pad-12" x="40721" y="-58801"/><use xlink:href="#cdZ_XI_uEISb9uYFLAh7_pad-12" x="27668.5" y="-61722"/><use xlink:href="#cdZ_XI_uEISb9uYFLAh7_pad-12" x="28638.5" y="-61722"/><use xlink:href="#cdZ_XI_uEISb9uYFLAh7_pad-10" x="50292" y="-25146"/><use xlink:href="#cdZ_XI_uEISb9uYFLAh7_pad-11" x="49042" y="-25146"/><use xlink:href="#cdZ_XI_uEISb9uYFLAh7_pad-11" x="47792" y="-25146"/><use xlink:href="#cdZ_XI_uEISb9uYFLAh7_pad-11" x="46542" y="-25146"/><use xlink:href="#cdZ_XI_uEISb9uYFLAh7_pad-39" x="38507.8" y="-24673.6"/><use xlink:href="#cdZ_XI_uEISb9uYFLAh7_pad-39" x="38507.8" y="-23723.6"/><use xlink:href="#cdZ_XI_uEISb9uYFLAh7_pad-39" x="38507.8" y="-22773.6"/><use xlink:href="#cdZ_XI_uEISb9uYFLAh7_pad-39" x="35507.8" y="-22773.6"/><use xlink:href="#cdZ_XI_uEISb9uYFLAh7_pad-39" x="35507.8" y="-23723.6"/><use xlink:href="#cdZ_XI_uEISb9uYFLAh7_pad-39" x="35507.8" y="-24673.6"/><use xlink:href="#cdZ_XI_uEISb9uYFLAh7_pad-40" x="37007.8" y="-23723.6"/><use xlink:href="#cdZ_XI_uEISb9uYFLAh7_pad-41" x="60015.7" y="-47414.9"/><use xlink:href="#cdZ_XI_uEISb9uYFLAh7_pad-41" x="60015.7" y="-51564.9"/><use xlink:href="#cdZ_XI_uEISb9uYFLAh7_pad-41" x="57865.7" y="-47414.9"/><use xlink:href="#cdZ_XI_uEISb9uYFLAh7_pad-41" x="57865.7" y="-51564.9"/><use xlink:href="#cdZ_XI_uEISb9uYFLAh7_pad-42" x="63500" y="-47924"/><use xlink:href="#cdZ_XI_uEISb9uYFLAh7_pad-42" x="63500" y="-44024"/><use xlink:href="#cdZ_XI_uEISb9uYFLAh7_pad-42" x="64770" y="-47924"/><use xlink:href="#cdZ_XI_uEISb9uYFLAh7_pad-42" x="64770" y="-44024"/><use xlink:href="#cdZ_XI_uEISb9uYFLAh7_pad-42" x="66040" y="-47924"/><use xlink:href="#cdZ_XI_uEISb9uYFLAh7_pad-42" x="66040" y="-44024"/><use xlink:href="#cdZ_XI_uEISb9uYFLAh7_pad-42" x="67310" y="-47924"/><use xlink:href="#cdZ_XI_uEISb9uYFLAh7_pad-42" x="67310" y="-44024"/><use xlink:href="#cdZ_XI_uEISb9uYFLAh7_pad-42" x="68580" y="-47924"/><use xlink:href="#cdZ_XI_uEISb9uYFLAh7_pad-42" x="68580" y="-44024"/><use xlink:href="#cdZ_XI_uEISb9uYFLAh7_pad-43" x="59141" y="-33543.2"/><use xlink:href="#cdZ_XI_uEISb9uYFLAh7_pad-43" x="59141" y="-34493.2"/><use xlink:href="#cdZ_XI_uEISb9uYFLAh7_pad-43" x="59141" y="-35443.2"/><use xlink:href="#cdZ_XI_uEISb9uYFLAh7_pad-43" x="61341" y="-35443.2"/><use xlink:href="#cdZ_XI_uEISb9uYFLAh7_pad-43" x="61341" y="-34493.2"/><use xlink:href="#cdZ_XI_uEISb9uYFLAh7_pad-43" x="61341" y="-33543.2"/><use xlink:href="#cdZ_XI_uEISb9uYFLAh7_pad-44" x="56769" y="-33570"/><use xlink:href="#cdZ_XI_uEISb9uYFLAh7_pad-44" x="55499" y="-33570"/><use xlink:href="#cdZ_XI_uEISb9uYFLAh7_pad-44" x="54229" y="-33570"/><use xlink:href="#cdZ_XI_uEISb9uYFLAh7_pad-44" x="52959" y="-33570"/><use xlink:href="#cdZ_XI_uEISb9uYFLAh7_pad-44" x="52959" y="-38820"/><use xlink:href="#cdZ_XI_uEISb9uYFLAh7_pad-44" x="54229" y="-38820"/><use xlink:href="#cdZ_XI_uEISb9uYFLAh7_pad-44" x="55499" y="-38820"/><use xlink:href="#cdZ_XI_uEISb9uYFLAh7_pad-44" x="56769" y="-38820"/><use xlink:href="#cdZ_XI_uEISb9uYFLAh7_pad-10" x="31623" y="-25146"/><use xlink:href="#cdZ_XI_uEISb9uYFLAh7_pad-11" x="30373" y="-25146"/><use xlink:href="#cdZ_XI_uEISb9uYFLAh7_pad-14" x="56388" y="-60244"/><use xlink:href="#cdZ_XI_uEISb9uYFLAh7_pad-14" x="56388" y="-61214"/><use xlink:href="#cdZ_XI_uEISb9uYFLAh7_pad-45" x="44504" y="-31154"/><use xlink:href="#cdZ_XI_uEISb9uYFLAh7_pad-45" x="44504" y="-31654"/><use xlink:href="#cdZ_XI_uEISb9uYFLAh7_pad-45" x="44504" y="-32154"/><use xlink:href="#cdZ_XI_uEISb9uYFLAh7_pad-45" x="44504" y="-32654"/><use xlink:href="#cdZ_XI_uEISb9uYFLAh7_pad-46" x="45004" y="-32654"/><use xlink:href="#cdZ_XI_uEISb9uYFLAh7_pad-46" x="45504" y="-32654"/><use xlink:href="#cdZ_XI_uEISb9uYFLAh7_pad-45" x="46004" y="-32654"/><use xlink:href="#cdZ_XI_uEISb9uYFLAh7_pad-45" x="46004" y="-32154"/><use xlink:href="#cdZ_XI_uEISb9uYFLAh7_pad-45" x="46004" y="-31654"/><use xlink:href="#cdZ_XI_uEISb9uYFLAh7_pad-45" x="46004" y="-31154"/><use xlink:href="#cdZ_XI_uEISb9uYFLAh7_pad-46" x="45504" y="-31154"/><use xlink:href="#cdZ_XI_uEISb9uYFLAh7_pad-46" x="45004" y="-31154"/><use xlink:href="#cdZ_XI_uEISb9uYFLAh7_pad-47" x="24000" y="-66000"/><use xlink:href="#cdZ_XI_uEISb9uYFLAh7_pad-48" x="24000" y="-63600"/><use xlink:href="#cdZ_XI_uEISb9uYFLAh7_pad-48" x="24000" y="-68400"/><use xlink:href="#cdZ_XI_uEISb9uYFLAh7_pad-48" x="22302.944" y="-67697.056"/><use xlink:href="#cdZ_XI_uEISb9uYFLAh7_pad-48" x="21600" y="-66000"/><use xlink:href="#cdZ_XI_uEISb9uYFLAh7_pad-48" x="26400" y="-66000"/><use xlink:href="#cdZ_XI_uEISb9uYFLAh7_pad-48" x="22302.944" y="-64302.944"/><use xlink:href="#cdZ_XI_uEISb9uYFLAh7_pad-48" x="25697.056" y="-64302.944"/><use xlink:href="#cdZ_XI_uEISb9uYFLAh7_pad-48" x="25697.056" y="-67697.056"/><use xlink:href="#cdZ_XI_uEISb9uYFLAh7_pad-48" x="66000" y="-68400"/><use xlink:href="#cdZ_XI_uEISb9uYFLAh7_pad-48" x="68400" y="-66000"/><use xlink:href="#cdZ_XI_uEISb9uYFLAh7_pad-48" x="64302.944" y="-67697.056"/><use xlink:href="#cdZ_XI_uEISb9uYFLAh7_pad-48" x="67697.056" y="-67697.056"/><use xlink:href="#cdZ_XI_uEISb9uYFLAh7_pad-48" x="63600" y="-66000"/><use xlink:href="#cdZ_XI_uEISb9uYFLAh7_pad-48" x="67697.056" y="-64302.944"/><use xlink:href="#cdZ_XI_uEISb9uYFLAh7_pad-47" x="66000" y="-66000"/><use xlink:href="#cdZ_XI_uEISb9uYFLAh7_pad-48" x="66000" y="-63600"/><use xlink:href="#cdZ_XI_uEISb9uYFLAh7_pad-48" x="64302.944" y="-64302.944"/><use xlink:href="#cdZ_XI_uEISb9uYFLAh7_pad-48" x="64302.944" y="-25697.056"/><use xlink:href="#cdZ_XI_uEISb9uYFLAh7_pad-48" x="64302.944" y="-22302.944"/><use xlink:href="#cdZ_XI_uEISb9uYFLAh7_pad-48" x="63600" y="-24000"/><use xlink:href="#cdZ_XI_uEISb9uYFLAh7_pad-47" x="66000" y="-24000"/><use xlink:href="#cdZ_XI_uEISb9uYFLAh7_pad-48" x="67697.056" y="-25697.056"/><use xlink:href="#cdZ_XI_uEISb9uYFLAh7_pad-48" x="66000" y="-26400"/><use xlink:href="#cdZ_XI_uEISb9uYFLAh7_pad-48" x="68400" y="-24000"/><use xlink:href="#cdZ_XI_uEISb9uYFLAh7_pad-48" x="66000" y="-21600"/><use xlink:href="#cdZ_XI_uEISb9uYFLAh7_pad-48" x="67697.056" y="-22302.944"/><use xlink:href="#cdZ_XI_uEISb9uYFLAh7_pad-48" x="25697.056" y="-22302.944"/><use xlink:href="#cdZ_XI_uEISb9uYFLAh7_pad-48" x="25697.056" y="-25697.056"/><use xlink:href="#cdZ_XI_uEISb9uYFLAh7_pad-48" x="24000" y="-21600"/><use xlink:href="#cdZ_XI_uEISb9uYFLAh7_pad-48" x="26400" y="-24000"/><use xlink:href="#cdZ_XI_uEISb9uYFLAh7_pad-48" x="22302.944" y="-25697.056"/><use xlink:href="#cdZ_XI_uEISb9uYFLAh7_pad-48" x="22302.944" y="-22302.944"/><use xlink:href="#cdZ_XI_uEISb9uYFLAh7_pad-48" x="21600" y="-24000"/><use xlink:href="#cdZ_XI_uEISb9uYFLAh7_pad-47" x="24000" y="-24000"/><use xlink:href="#cdZ_XI_uEISb9uYFLAh7_pad-48" x="24000" y="-26400"/><use xlink:href="#cdZ_XI_uEISb9uYFLAh7_pad-13" x="39324" y="-51054"/><use xlink:href="#cdZ_XI_uEISb9uYFLAh7_pad-13" x="38354" y="-51054"/><use xlink:href="#cdZ_XI_uEISb9uYFLAh7_pad-49" x="34964" y="-48854"/><use xlink:href="#cdZ_XI_uEISb9uYFLAh7_pad-49" x="34964" y="-51054"/><use xlink:href="#cdZ_XI_uEISb9uYFLAh7_pad-49" x="36664" y="-51054"/><use xlink:href="#cdZ_XI_uEISb9uYFLAh7_pad-49" x="36664" y="-48854"/><use xlink:href="#cdZ_XI_uEISb9uYFLAh7_pad-50" x="41036" y="-48320"/><use xlink:href="#cdZ_XI_uEISb9uYFLAh7_pad-50" x="41036" y="-48820"/><use xlink:href="#cdZ_XI_uEISb9uYFLAh7_pad-50" x="41036" y="-49320"/><use xlink:href="#cdZ_XI_uEISb9uYFLAh7_pad-50" x="41036" y="-49820"/><use xlink:href="#cdZ_XI_uEISb9uYFLAh7_pad-50" x="41036" y="-50320"/><use xlink:href="#cdZ_XI_uEISb9uYFLAh7_pad-50" x="41036" y="-50820"/><use xlink:href="#cdZ_XI_uEISb9uYFLAh7_pad-50" x="41036" y="-51320"/><use xlink:href="#cdZ_XI_uEISb9uYFLAh7_pad-50" x="41036" y="-51820"/><use xlink:href="#cdZ_XI_uEISb9uYFLAh7_pad-50" x="41036" y="-52320"/><use xlink:href="#cdZ_XI_uEISb9uYFLAh7_pad-50" x="41036" y="-52820"/><use xlink:href="#cdZ_XI_uEISb9uYFLAh7_pad-50" x="41036" y="-53320"/><use xlink:href="#cdZ_XI_uEISb9uYFLAh7_pad-50" x="41036" y="-53820"/><use xlink:href="#cdZ_XI_uEISb9uYFLAh7_pad-50" x="41036" y="-54320"/><use xlink:href="#cdZ_XI_uEISb9uYFLAh7_pad-50" x="41036" y="-54820"/><use xlink:href="#cdZ_XI_uEISb9uYFLAh7_pad-50" x="41036" y="-55320"/><use xlink:href="#cdZ_XI_uEISb9uYFLAh7_pad-50" x="41036" y="-55820"/><use xlink:href="#cdZ_XI_uEISb9uYFLAh7_pad-51" x="42986" y="-57770"/><use xlink:href="#cdZ_XI_uEISb9uYFLAh7_pad-51" x="43486" y="-57770"/><use xlink:href="#cdZ_XI_uEISb9uYFLAh7_pad-51" x="43986" y="-57770"/><use xlink:href="#cdZ_XI_uEISb9uYFLAh7_pad-51" x="44486" y="-57770"/><use xlink:href="#cdZ_XI_uEISb9uYFLAh7_pad-51" x="44986" y="-57770"/><use xlink:href="#cdZ_XI_uEISb9uYFLAh7_pad-51" x="45486" y="-57770"/><use xlink:href="#cdZ_XI_uEISb9uYFLAh7_pad-51" x="45986" y="-57770"/><use xlink:href="#cdZ_XI_uEISb9uYFLAh7_pad-51" x="46486" y="-57770"/><use xlink:href="#cdZ_XI_uEISb9uYFLAh7_pad-51" x="46986" y="-57770"/><use xlink:href="#cdZ_XI_uEISb9uYFLAh7_pad-51" x="47486" y="-57770"/><use xlink:href="#cdZ_XI_uEISb9uYFLAh7_pad-51" x="47986" y="-57770"/><use xlink:href="#cdZ_XI_uEISb9uYFLAh7_pad-51" x="48486" y="-57770"/><use xlink:href="#cdZ_XI_uEISb9uYFLAh7_pad-51" x="48986" y="-57770"/><use xlink:href="#cdZ_XI_uEISb9uYFLAh7_pad-51" x="49486" y="-57770"/><use xlink:href="#cdZ_XI_uEISb9uYFLAh7_pad-51" x="49986" y="-57770"/><use xlink:href="#cdZ_XI_uEISb9uYFLAh7_pad-51" x="50486" y="-57770"/><use xlink:href="#cdZ_XI_uEISb9uYFLAh7_pad-50" x="52436" y="-55820"/><use xlink:href="#cdZ_XI_uEISb9uYFLAh7_pad-50" x="52436" y="-55320"/><use xlink:href="#cdZ_XI_uEISb9uYFLAh7_pad-50" x="52436" y="-54820"/><use xlink:href="#cdZ_XI_uEISb9uYFLAh7_pad-50" x="52436" y="-54320"/><use xlink:href="#cdZ_XI_uEISb9uYFLAh7_pad-50" x="52436" y="-53820"/><use xlink:href="#cdZ_XI_uEISb9uYFLAh7_pad-50" x="52436" y="-53320"/><use xlink:href="#cdZ_XI_uEISb9uYFLAh7_pad-50" x="52436" y="-52820"/><use xlink:href="#cdZ_XI_uEISb9uYFLAh7_pad-50" x="52436" y="-52320"/><use xlink:href="#cdZ_XI_uEISb9uYFLAh7_pad-50" x="52436" y="-51820"/><use xlink:href="#cdZ_XI_uEISb9uYFLAh7_pad-50" x="52436" y="-51320"/><use xlink:href="#cdZ_XI_uEISb9uYFLAh7_pad-50" x="52436" y="-50820"/><use xlink:href="#cdZ_XI_uEISb9uYFLAh7_pad-50" x="52436" y="-50320"/><use xlink:href="#cdZ_XI_uEISb9uYFLAh7_pad-50" x="52436" y="-49820"/><use xlink:href="#cdZ_XI_uEISb9uYFLAh7_pad-50" x="52436" y="-49320"/><use xlink:href="#cdZ_XI_uEISb9uYFLAh7_pad-50" x="52436" y="-48820"/><use xlink:href="#cdZ_XI_uEISb9uYFLAh7_pad-50" x="52436" y="-48320"/><use xlink:href="#cdZ_XI_uEISb9uYFLAh7_pad-51" x="50486" y="-46370"/><use xlink:href="#cdZ_XI_uEISb9uYFLAh7_pad-51" x="49986" y="-46370"/><use xlink:href="#cdZ_XI_uEISb9uYFLAh7_pad-51" x="49486" y="-46370"/><use xlink:href="#cdZ_XI_uEISb9uYFLAh7_pad-51" x="48986" y="-46370"/><use xlink:href="#cdZ_XI_uEISb9uYFLAh7_pad-51" x="48486" y="-46370"/><use xlink:href="#cdZ_XI_uEISb9uYFLAh7_pad-51" x="47986" y="-46370"/><use xlink:href="#cdZ_XI_uEISb9uYFLAh7_pad-51" x="47486" y="-46370"/><use xlink:href="#cdZ_XI_uEISb9uYFLAh7_pad-51" x="46986" y="-46370"/><use xlink:href="#cdZ_XI_uEISb9uYFLAh7_pad-51" x="46486" y="-46370"/><use xlink:href="#cdZ_XI_uEISb9uYFLAh7_pad-51" x="45986" y="-46370"/><use xlink:href="#cdZ_XI_uEISb9uYFLAh7_pad-51" x="45486" y="-46370"/><use xlink:href="#cdZ_XI_uEISb9uYFLAh7_pad-51" x="44986" y="-46370"/><use xlink:href="#cdZ_XI_uEISb9uYFLAh7_pad-51" x="44486" y="-46370"/><use xlink:href="#cdZ_XI_uEISb9uYFLAh7_pad-51" x="43986" y="-46370"/><use xlink:href="#cdZ_XI_uEISb9uYFLAh7_pad-51" x="43486" y="-46370"/><use xlink:href="#cdZ_XI_uEISb9uYFLAh7_pad-51" x="42986" y="-46370"/><use xlink:href="#cdZ_XI_uEISb9uYFLAh7_pad-52" x="36855.5" y="-54356"/><use xlink:href="#cdZ_XI_uEISb9uYFLAh7_pad-52" x="35280.5" y="-54356"/><use xlink:href="#cdZ_XI_uEISb9uYFLAh7_pad-14" x="52705" y="-58062"/><use xlink:href="#cdZ_XI_uEISb9uYFLAh7_pad-14" x="52705" y="-59032"/><use xlink:href="#cdZ_XI_uEISb9uYFLAh7_pad-13" x="44173" y="-60325"/><use xlink:href="#cdZ_XI_uEISb9uYFLAh7_pad-13" x="43203" y="-60325"/><use xlink:href="#cdZ_XI_uEISb9uYFLAh7_pad-14" x="51562" y="-58062"/><use xlink:href="#cdZ_XI_uEISb9uYFLAh7_pad-14" x="51562" y="-59032"/><use xlink:href="#cdZ_XI_uEISb9uYFLAh7_pad-12" x="52728" y="-46075.6"/><use xlink:href="#cdZ_XI_uEISb9uYFLAh7_pad-12" x="53698" y="-46075.6"/><use xlink:href="#cdZ_XI_uEISb9uYFLAh7_pad-13" x="40744" y="-47117"/><use xlink:href="#cdZ_XI_uEISb9uYFLAh7_pad-13" x="39774" y="-47117"/><use xlink:href="#cdZ_XI_uEISb9uYFLAh7_pad-12" x="53848" y="-48641"/><use xlink:href="#cdZ_XI_uEISb9uYFLAh7_pad-12" x="54818" y="-48641"/><use xlink:href="#cdZ_XI_uEISb9uYFLAh7_pad-14" x="50165" y="-59182"/><use xlink:href="#cdZ_XI_uEISb9uYFLAh7_pad-14" x="50165" y="-60152"/><use xlink:href="#cdZ_XI_uEISb9uYFLAh7_pad-12" x="35352" y="-46990"/><use xlink:href="#cdZ_XI_uEISb9uYFLAh7_pad-12" x="36322" y="-46990"/><use xlink:href="#cdZ_XI_uEISb9uYFLAh7_pad-15" x="38354" y="-54229"/><use xlink:href="#cdZ_XI_uEISb9uYFLAh7_pad-15" x="38354" y="-53259"/><use xlink:href="#cdZ_XI_uEISb9uYFLAh7_pad-13" x="44173" y="-59182"/><use xlink:href="#cdZ_XI_uEISb9uYFLAh7_pad-13" x="43203" y="-59182"/><use xlink:href="#cdZ_XI_uEISb9uYFLAh7_pad-12" x="42718" y="-44958"/><use xlink:href="#cdZ_XI_uEISb9uYFLAh7_pad-12" x="43688" y="-44958"/><use xlink:href="#cdZ_XI_uEISb9uYFLAh7_pad-19" x="41148" y="-45237.5"/><use xlink:href="#cdZ_XI_uEISb9uYFLAh7_pad-19" x="41148" y="-43662.5"/><use xlink:href="#cdZ_XI_uEISb9uYFLAh7_pad-19" x="54610" y="-58725"/><use xlink:href="#cdZ_XI_uEISb9uYFLAh7_pad-19" x="54610" y="-57150"/><use xlink:href="#cdZ_XI_uEISb9uYFLAh7_pad-10" x="59436" y="-25146"/><use xlink:href="#cdZ_XI_uEISb9uYFLAh7_pad-11" x="58186" y="-25146"/><use xlink:href="#cdZ_XI_uEISb9uYFLAh7_pad-11" x="56936" y="-25146"/><use xlink:href="#cdZ_XI_uEISb9uYFLAh7_pad-11" x="55686" y="-25146"/><use xlink:href="#cdZ_XI_uEISb9uYFLAh7_pad-53" x="25463.5" y="-55181.5"/><use xlink:href="#cdZ_XI_uEISb9uYFLAh7_pad-54" x="25463.5" y="-58681.5"/><use xlink:href="#cdZ_XI_uEISb9uYFLAh7_pad-48" x="65367" y="-31663"/><use xlink:href="#cdZ_XI_uEISb9uYFLAh7_pad-48" x="65367" y="-36663"/><use xlink:href="#cdZ_XI_uEISb9uYFLAh7_pad-55" x="64267" y="-35463"/><use xlink:href="#cdZ_XI_uEISb9uYFLAh7_pad-55" x="64267" y="-34813"/><use xlink:href="#cdZ_XI_uEISb9uYFLAh7_pad-55" x="64267" y="-34163"/><use xlink:href="#cdZ_XI_uEISb9uYFLAh7_pad-55" x="64267" y="-33513"/><use xlink:href="#cdZ_XI_uEISb9uYFLAh7_pad-55" x="64267" y="-32863"/><use xlink:href="#cdZ_XI_uEISb9uYFLAh7_pad-56" x="68117" y="-30288"/><use xlink:href="#cdZ_XI_uEISb9uYFLAh7_pad-57" x="64317" y="-30438"/><use xlink:href="#cdZ_XI_uEISb9uYFLAh7_pad-56" x="68117" y="-38038"/><use xlink:href="#cdZ_XI_uEISb9uYFLAh7_pad-57" x="64317" y="-37888"/></g></svg>