<svg version="1.1" xmlns="http://www.w3.org/2000/svg" xmlns:xlink="http://www.w3.org/1999/xlink" stroke-linecap="round" stroke-linejoin="round" stroke-width="0" fill-rule="evenodd" width="48.4mm" height="48.4mm" viewBox="20800 -69200 48400 48400" id="lu6D16-Y9SAAiZNrxG-p"><defs><rect x="-400" y="-650" width="800" height="1300" id="lu6D16-Y9SAAiZNrxG-p_pad-10"/><rect x="-400" y="-650" width="800" height="1300" rx="400" ry="400" id="lu6D16-Y9SAAiZNrxG-p_pad-11"/><rect x="-650" y="-400" width="1300" height="800" id="lu6D16-Y9SAAiZNrxG-p_pad-12"/><rect x="-650" y="-400" width="1300" height="800" rx="400" ry="400" id="lu6D16-Y9SAAiZNrxG-p_pad-13"/><rect x="-500" y="-500" width="1000" height="1000" id="lu6D16-Y9SAAiZNrxG-p_pad-14"/><rect x="-500" y="-500" width="1000" height="1000" rx="500" ry="500" id="lu6D16-Y9SAAiZNrxG-p_pad-15"/><rect x="-850" y="-850" width="1700" height="1700" id="lu6D16-Y9SAAiZNrxG-p_pad-16"/><rect x="-850" y="-850" width="1700" height="1700" rx="850" ry="850" id="lu6D16-Y9SAAiZNrxG-p_pad-17"/><circle cx="0" cy="0" r="3200" id="lu6D16-Y9SAAiZNrxG-p_pad-18"/><circle cx="0" cy="0" r="400" id="lu6D16-Y9SAAiZNrxG-p_pad-19"/><rect x="-1200" y="-1200" width="2400" height="2400" id="lu6D16-Y9SAAiZNrxG-p_pad-20"/><circle cx="0" cy="0" r="1200" id="lu6D16-Y9SAAiZNrxG-p_pad-21"/><circle cx="0" cy="0" r="900" id="lu6D16-Y9SAAiZNrxG-p_pad-22"/><circle cx="0" cy="0" r="1000" id="lu6D16-Y9SAAiZNrxG-p_pad-23"/></defs><g transform="translate(0,-90000) scale(1,-1)" fill="currentColor" stroke="currentColor"><use xlink:href="#lu6D16-Y9SAAiZNrxG-p_pad-10" x="46482" y="-64770"/><use xlink:href="#lu6D16-Y9SAAiZNrxG-p_pad-11" x="47732" y="-64770"/><use xlink:href="#lu6D16-Y9SAAiZNrxG-p_pad-11" x="48982" y="-64770"/><use xlink:href="#lu6D16-Y9SAAiZNrxG-p_pad-11" x="50232" y="-64770"/><use xlink:href="#lu6D16-Y9SAAiZNrxG-p_pad-10" x="55753" y="-64770"/><use xlink:href="#lu6D16-Y9SAAiZNrxG-p_pad-11" x="57003" y="-64770"/><use xlink:href="#lu6D16-Y9SAAiZNrxG-p_pad-11" x="58253" y="-64770"/><use xlink:href="#lu6D16-Y9SAAiZNrxG-p_pad-11" x="59503" y="-64770"/><use xlink:href="#lu6D16-Y9SAAiZNrxG-p_pad-12" x="64770" y="-58674"/><use xlink:href="#lu6D16-Y9SAAiZNrxG-p_pad-13" x="64770" y="-57424"/><use xlink:href="#lu6D16-Y9SAAiZNrxG-p_pad-13" x="64770" y="-56174"/><use xlink:href="#lu6D16-Y9SAAiZNrxG-p_pad-13" x="64770" y="-54924"/><use xlink:href="#lu6D16-Y9SAAiZNrxG-p_pad-14" x="31369" y="-54292.5"/><use xlink:href="#lu6D16-Y9SAAiZNrxG-p_pad-15" x="31369" y="-53022.5"/><use xlink:href="#lu6D16-Y9SAAiZNrxG-p_pad-16" x="25000" y="-48000"/><use xlink:href="#lu6D16-Y9SAAiZNrxG-p_pad-17" x="22460" y="-48000"/><use xlink:href="#lu6D16-Y9SAAiZNrxG-p_pad-17" x="25000" y="-45460"/><use xlink:href="#lu6D16-Y9SAAiZNrxG-p_pad-17" x="22460" y="-45460"/><use xlink:href="#lu6D16-Y9SAAiZNrxG-p_pad-17" x="25000" y="-42920"/><use xlink:href="#lu6D16-Y9SAAiZNrxG-p_pad-17" x="22460" y="-42920"/><use xlink:href="#lu6D16-Y9SAAiZNrxG-p_pad-17" x="25000" y="-40380"/><use xlink:href="#lu6D16-Y9SAAiZNrxG-p_pad-17" x="22460" y="-40380"/><use xlink:href="#lu6D16-Y9SAAiZNrxG-p_pad-17" x="25000" y="-37840"/><use xlink:href="#lu6D16-Y9SAAiZNrxG-p_pad-17" x="22460" y="-37840"/><use xlink:href="#lu6D16-Y9SAAiZNrxG-p_pad-17" x="25000" y="-35300"/><use xlink:href="#lu6D16-Y9SAAiZNrxG-p_pad-17" x="22460" y="-35300"/><use xlink:href="#lu6D16-Y9SAAiZNrxG-p_pad-17" x="25000" y="-32760"/><use xlink:href="#lu6D16-Y9SAAiZNrxG-p_pad-17" x="22460" y="-32760"/><use xlink:href="#lu6D16-Y9SAAiZNrxG-p_pad-17" x="25000" y="-30220"/><use xlink:href="#lu6D16-Y9SAAiZNrxG-p_pad-17" x="22460" y="-30220"/><use xlink:href="#lu6D16-Y9SAAiZNrxG-p_pad-16" x="27541.22" y="-30251.4"/><use xlink:href="#lu6D16-Y9SAAiZNrxG-p_pad-17" x="27541.22" y="-32791.4"/><use xlink:href="#lu6D16-Y9SAAiZNrxG-p_pad-17" x="27541.22" y="-35331.4"/><use xlink:href="#lu6D16-Y9SAAiZNrxG-p_pad-17" x="27541.22" y="-37871.4"/><use xlink:href="#lu6D16-Y9SAAiZNrxG-p_pad-17" x="27541.22" y="-40411.4"/><use xlink:href="#lu6D16-Y9SAAiZNrxG-p_pad-17" x="27541.22" y="-42951.4"/><use xlink:href="#lu6D16-Y9SAAiZNrxG-p_pad-17" x="27541.22" y="-45491.4"/><use xlink:href="#lu6D16-Y9SAAiZNrxG-p_pad-17" x="27541.22" y="-48031.4"/><use xlink:href="#lu6D16-Y9SAAiZNrxG-p_pad-10" x="50292" y="-25146"/><use xlink:href="#lu6D16-Y9SAAiZNrxG-p_pad-11" x="49042" y="-25146"/><use xlink:href="#lu6D16-Y9SAAiZNrxG-p_pad-11" x="47792" y="-25146"/><use xlink:href="#lu6D16-Y9SAAiZNrxG-p_pad-11" x="46542" y="-25146"/><use xlink:href="#lu6D16-Y9SAAiZNrxG-p_pad-10" x="31623" y="-25146"/><use xlink:href="#lu6D16-Y9SAAiZNrxG-p_pad-11" x="30373" y="-25146"/><use xlink:href="#lu6D16-Y9SAAiZNrxG-p_pad-18" x="24000" y="-66000"/><use xlink:href="#lu6D16-Y9SAAiZNrxG-p_pad-19" x="24000" y="-63600"/><use xlink:href="#lu6D16-Y9SAAiZNrxG-p_pad-19" x="24000" y="-68400"/><use xlink:href="#lu6D16-Y9SAAiZNrxG-p_pad-19" x="22302.944" y="-67697.056"/><use xlink:href="#lu6D16-Y9SAAiZNrxG-p_pad-19" x="21600" y="-66000"/><use xlink:href="#lu6D16-Y9SAAiZNrxG-p_pad-19" x="26400" y="-66000"/><use xlink:href="#lu6D16-Y9SAAiZNrxG-p_pad-19" x="22302.944" y="-64302.944"/><use xlink:href="#lu6D16-Y9SAAiZNrxG-p_pad-19" x="25697.056" y="-64302.944"/><use xlink:href="#lu6D16-Y9SAAiZNrxG-p_pad-19" x="25697.056" y="-67697.056"/><use xlink:href="#lu6D16-Y9SAAiZNrxG-p_pad-19" x="66000" y="-68400"/><use xlink:href="#lu6D16-Y9SAAiZNrxG-p_pad-19" x="68400" y="-66000"/><use xlink:href="#lu6D16-Y9SAAiZNrxG-p_pad-19" x="64302.944" y="-67697.056"/><use xlink:href="#lu6D16-Y9SAAiZNrxG-p_pad-19" x="67697.056" y="-67697.056"/><use xlink:href="#lu6D16-Y9SAAiZNrxG-p_pad-19" x="63600" y="-66000"/><use xlink:href="#lu6D16-Y9SAAiZNrxG-p_pad-19" x="67697.056" y="-64302.944"/><use xlink:href="#lu6D16-Y9SAAiZNrxG-p_pad-18" x="66000" y="-66000"/><use xlink:href="#lu6D16-Y9SAAiZNrxG-p_pad-19" x="66000" y="-63600"/><use xlink:href="#lu6D16-Y9SAAiZNrxG-p_pad-19" x="64302.944" y="-64302.944"/><use xlink:href="#lu6D16-Y9SAAiZNrxG-p_pad-19" x="64302.944" y="-25697.056"/><use xlink:href="#lu6D16-Y9SAAiZNrxG-p_pad-19" x="64302.944" y="-22302.944"/><use xlink:href="#lu6D16-Y9SAAiZNrxG-p_pad-19" x="63600" y="-24000"/><use xlink:href="#lu6D16-Y9SAAiZNrxG-p_pad-18" x="66000" y="-24000"/><use xlink:href="#lu6D16-Y9SAAiZNrxG-p_pad-19" x="67697.056" y="-25697.056"/><use xlink:href="#lu6D16-Y9SAAiZNrxG-p_pad-19" x="66000" y="-26400"/><use xlink:href="#lu6D16-Y9SAAiZNrxG-p_pad-19" x="68400" y="-24000"/><use xlink:href="#lu6D16-Y9SAAiZNrxG-p_pad-19" x="66000" y="-21600"/><use xlink:href="#lu6D16-Y9SAAiZNrxG-p_pad-19" x="67697.056" y="-22302.944"/><use xlink:href="#lu6D16-Y9SAAiZNrxG-p_pad-19" x="25697.056" y="-22302.944"/><use xlink:href="#lu6D16-Y9SAAiZNrxG-p_pad-19" x="25697.056" y="-25697.056"/><use xlink:href="#lu6D16-Y9SAAiZNrxG-p_pad-19" x="24000" y="-21600"/><use xlink:href="#lu6D16-Y9SAAiZNrxG-p_pad-19" x="26400" y="-24000"/><use xlink:href="#lu6D16-Y9SAAiZNrxG-p_pad-19" x="22302.944" y="-25697.056"/><use xlink:href="#lu6D16-Y9SAAiZNrxG-p_pad-19" x="22302.944" y="-22302.944"/><use xlink:href="#lu6D16-Y9SAAiZNrxG-p_pad-19" x="21600" y="-24000"/><use xlink:href="#lu6D16-Y9SAAiZNrxG-p_pad-18" x="24000" y="-24000"/><use xlink:href="#lu6D16-Y9SAAiZNrxG-p_pad-19" x="24000" y="-26400"/><use xlink:href="#lu6D16-Y9SAAiZNrxG-p_pad-10" x="59436" y="-25146"/><use xlink:href="#lu6D16-Y9SAAiZNrxG-p_pad-11" x="58186" y="-25146"/><use xlink:href="#lu6D16-Y9SAAiZNrxG-p_pad-11" x="56936" y="-25146"/><use xlink:href="#lu6D16-Y9SAAiZNrxG-p_pad-11" x="55686" y="-25146"/><use xlink:href="#lu6D16-Y9SAAiZNrxG-p_pad-20" x="25463.5" y="-55181.5"/><use xlink:href="#lu6D16-Y9SAAiZNrxG-p_pad-21" x="25463.5" y="-58681.5"/><use xlink:href="#lu6D16-Y9SAAiZNrxG-p_pad-19" x="65367" y="-31663"/><use xlink:href="#lu6D16-Y9SAAiZNrxG-p_pad-19" x="65367" y="-36663"/><use xlink:href="#lu6D16-Y9SAAiZNrxG-p_pad-22" x="68117" y="-30288"/><use xlink:href="#lu6D16-Y9SAAiZNrxG-p_pad-23" x="64317" y="-30438"/><use xlink:href="#lu6D16-Y9SAAiZNrxG-p_pad-22" x="68117" y="-38038"/><use xlink:href="#lu6D16-Y9SAAiZNrxG-p_pad-23" x="64317" y="-37888"/></g></svg>