<svg version="1.1" xmlns="http://www.w3.org/2000/svg" xmlns:xlink="http://www.w3.org/1999/xlink" stroke-linecap="round" stroke-linejoin="round" stroke-width="0" fill-rule="evenodd" width="49.6785mm" height="48.624mm" viewBox="20913.5 -69270 49678.5 48624" id="w1rgyOj0Mi7MiHgo01LD"><g transform="translate(0,-89916) scale(1,-1)" fill="currentColor" stroke="currentColor"><path d="M 43815 -67386.2 A 25.4 25.4 0 0 1 43764.2 -67386.2 25.4 25.4 0 0 1 43815 -67386.2 M 43846.396 -67386.2 A 56.796 56.796 0 0 1 43732.804 -67386.2 56.796 56.796 0 0 1 43846.396 -67386.2" fill="none" stroke-width="150"/><path d="M 34271.152 -28412.285 34437.819 -28412.285 M 34509.247 -28674.19 34271.152 -28674.19 34271.152 -28174.19 34509.247 -28174.19 M 34723.533 -28412.285 34890.2 -28412.285 M 34961.628 -28674.19 34723.533 -28674.19 34723.533 -28174.19 34961.628 -28174.19 M 35175.914 -28674.19 35175.914 -28174.19 35366.39 -28174.19 35414.009 -28198 35437.819 -28221.809 35461.628 -28269.428 35461.628 -28340.857 35437.819 -28388.476 35414.009 -28412.285 35366.39 -28436.095 35175.914 -28436.095 M 35961.628 -28674.19 35794.961 -28436.095 M 35675.914 -28674.19 35675.914 -28174.19 35866.39 -28174.19 35914.009 -28198 35937.819 -28221.809 35961.628 -28269.428 35961.628 -28340.857 35937.819 -28388.476 35914.009 -28412.285 35866.39 -28436.095 35675.914 -28436.095 M 36271.152 -28174.19 36366.39 -28174.19 36414.009 -28198 36461.628 -28245.619 36485.438 -28340.857 36485.438 -28507.523 36461.628 -28602.761 36414.009 -28650.38 36366.39 -28674.19 36271.152 -28674.19 36223.533 -28650.38 36175.914 -28602.761 36152.104 -28507.523 36152.104 -28340.857 36175.914 -28245.619 36223.533 -28198 36271.152 -28174.19 M 36699.723 -28674.19 36699.723 -28174.19 36866.39 -28531.333 37033.057 -28174.19 37033.057 -28674.19 M 37533.057 -28674.19 37247.342 -28674.19 M 37390.2 -28674.19 37390.2 -28174.19 37342.58 -28245.619 37294.961 -28293.238 37247.342 -28317.047 M 35044.866 -26924.771 35021.057 -26948.58 34949.628 -26972.39 34902.009 -26972.39 34830.58 -26948.58 34782.961 -26900.961 34759.152 -26853.342 34735.342 -26758.104 34735.342 -26686.676 34759.152 -26591.438 34782.961 -26543.819 34830.58 -26496.2 34902.009 -26472.39 34949.628 -26472.39 35021.057 -26496.2 35044.866 -26520.009 M 35521.057 -26972.39 35235.342 -26972.39 M 35378.2 -26972.39 35378.2 -26472.39 35330.58 -26543.819 35282.961 -26591.438 35235.342 -26615.247 M 41064.666 -23902.171 41040.857 -23925.98 40969.428 -23949.79 40921.809 -23949.79 40850.38 -23925.98 40802.761 -23878.361 40778.952 -23830.742 40755.142 -23735.504 40755.142 -23664.076 40778.952 -23568.838 40802.761 -23521.219 40850.38 -23473.6 40921.809 -23449.79 40969.428 -23449.79 41040.857 -23473.6 41064.666 -23497.409 M 41255.142 -23497.409 41278.952 -23473.6 41326.571 -23449.79 41445.619 -23449.79 41493.238 -23473.6 41517.047 -23497.409 41540.857 -23545.028 41540.857 -23592.647 41517.047 -23664.076 41231.333 -23949.79 41540.857 -23949.79 M 39458.99 -28298.752 39458.99 -27898.752 39611.371 -27898.752 39649.466 -27917.8 39668.514 -27936.847 39687.561 -27974.942 39687.561 -28032.085 39668.514 -28070.18 39649.466 -28089.228 39611.371 -28108.276 39458.99 -28108.276 M 39820.895 -27898.752 39916.133 -28298.752 39992.323 -28013.038 40068.514 -28298.752 40163.752 -27898.752 M 40544.704 -28298.752 40411.371 -28108.276 M 40316.133 -28298.752 40316.133 -27898.752 40468.514 -27898.752 40506.609 -27917.8 40525.657 -27936.847 40544.704 -27974.942 40544.704 -28032.085 40525.657 -28070.18 40506.609 -28089.228 40468.514 -28108.276 40316.133 -28108.276 M 40925.657 -28298.752 40697.085 -28298.752 M 40811.371 -28298.752 40811.371 -27898.752 40773.276 -27955.895 40735.18 -27993.99 40697.085 -28013.038 M 42122.733 -28476.552 41989.4 -28286.076 M 41894.161 -28476.552 41894.161 -28076.552 42046.542 -28076.552 42084.638 -28095.6 42103.685 -28114.647 42122.733 -28152.742 42122.733 -28209.885 42103.685 -28247.98 42084.638 -28267.028 42046.542 -28286.076 41894.161 -28286.076 M 42256.066 -28076.552 42503.685 -28076.552 42370.352 -28228.933 42427.495 -28228.933 42465.59 -28247.98 42484.638 -28267.028 42503.685 -28305.123 42503.685 -28400.361 42484.638 -28438.457 42465.59 -28457.504 42427.495 -28476.552 42313.209 -28476.552 42275.114 -28457.504 42256.066 -28438.457 M 38954.057 -30102.142 38973.104 -30121.19 38992.152 -30178.333 38992.152 -30216.428 38973.104 -30273.571 38935.009 -30311.666 38896.914 -30330.714 38820.723 -30349.761 38763.58 -30349.761 38687.39 -30330.714 38649.295 -30311.666 38611.2 -30273.571 38592.152 -30216.428 38592.152 -30178.333 38611.2 -30121.19 38630.247 -30102.142 M 38992.152 -29721.19 38992.152 -29949.761 M 38992.152 -29835.476 38592.152 -29835.476 38649.295 -29873.571 38687.39 -29911.666 38706.438 -29949.761 M 38992.152 -29530.714 38992.152 -29454.523 38973.104 -29416.428 38954.057 -29397.38 38896.914 -29359.285 38820.723 -29340.238 38668.342 -29340.238 38630.247 -29359.285 38611.2 -29378.333 38592.152 -29416.428 38592.152 -29492.619 38611.2 -29530.714 38630.247 -29549.761 38668.342 -29568.809 38763.58 -29568.809 38801.676 -29549.761 38820.723 -29530.714 38839.771 -29492.619 38839.771 -29416.428 38820.723 -29378.333 38801.676 -29359.285 38763.58 -29340.238" fill="none" stroke-width="100"/><path d="M 29834.828 -22525.485 30084.828 -23275.485 30334.828 -22525.485 M 30584.828 -23275.485 30584.828 -22525.485 M 30941.971 -23275.485 30941.971 -22525.485 31370.542 -23275.485 31370.542 -22525.485 M 32120.542 -23275.485 31691.971 -23275.485 M 31906.257 -23275.485 31906.257 -22525.485 31834.828 -22632.628 31763.4 -22704.057 31691.971 -22739.771 M 47912.4 -23326.285 47662.4 -22969.142 M 47483.828 -23326.285 47483.828 -22576.285 47769.542 -22576.285 47840.971 -22612 47876.685 -22647.714 47912.4 -22719.142 47912.4 -22826.285 47876.685 -22897.714 47840.971 -22933.428 47769.542 -22969.142 47483.828 -22969.142 M 48662.4 -23254.857 48626.685 -23290.571 48519.542 -23326.285 48448.114 -23326.285 48340.971 -23290.571 48269.542 -23219.142 48233.828 -23147.714 48198.114 -23004.857 48198.114 -22897.714 48233.828 -22754.857 48269.542 -22683.428 48340.971 -22612 48448.114 -22576.285 48519.542 -22576.285 48626.685 -22612 48662.4 -22647.714 M 49376.685 -23326.285 48948.114 -23326.285 M 49162.4 -23326.285 49162.4 -22576.285 49090.971 -22683.428 49019.542 -22754.857 48948.114 -22790.571 M 55498.057 -22550.885 55926.628 -22550.885 M 55712.342 -23300.885 55712.342 -22550.885 M 56176.628 -22908.028 56426.628 -22908.028 M 56533.771 -23300.885 56176.628 -23300.885 56176.628 -22550.885 56533.771 -22550.885 M 57212.342 -23300.885 56855.2 -23300.885 56855.2 -22550.885 M 57462.342 -22908.028 57712.342 -22908.028 M 57819.485 -23300.885 57462.342 -23300.885 57462.342 -22550.885 57819.485 -22550.885 M 58140.914 -23300.885 58140.914 -22550.885 58390.914 -23086.6 58640.914 -22550.885 58640.914 -23300.885 M 59390.914 -23300.885 58962.342 -23300.885 M 59176.628 -23300.885 59176.628 -22550.885 59105.2 -22658.028 59033.771 -22729.457 58962.342 -22765.171 M 65295.228 -33879.285 65295.228 -34486.428 65330.942 -34557.857 65366.657 -34593.571 65438.085 -34629.285 65580.942 -34629.285 65652.371 -34593.571 65688.085 -34557.857 65723.8 -34486.428 65723.8 -33879.285 M 66045.228 -34593.571 66152.371 -34629.285 66330.942 -34629.285 66402.371 -34593.571 66438.085 -34557.857 66473.8 -34486.428 66473.8 -34415 66438.085 -34343.571 66402.371 -34307.857 66330.942 -34272.142 66188.085 -34236.428 66116.657 -34200.714 66080.942 -34165 66045.228 -34093.571 66045.228 -34022.142 66080.942 -33950.714 66116.657 -33915 66188.085 -33879.285 66366.657 -33879.285 66473.8 -33915 M 67045.228 -34236.428 67152.371 -34272.142 67188.085 -34307.857 67223.8 -34379.285 67223.8 -34486.428 67188.085 -34557.857 67152.371 -34593.571 67080.942 -34629.285 66795.228 -34629.285 66795.228 -33879.285 67045.228 -33879.285 67116.657 -33915 67152.371 -33950.714 67188.085 -34022.142 67188.085 -34093.571 67152.371 -34165 67116.657 -34200.714 67045.228 -34236.428 66795.228 -34236.428 M 67938.085 -34629.285 67509.514 -34629.285 M 67723.8 -34629.285 67723.8 -33879.285 67652.371 -33986.428 67580.942 -34057.857 67509.514 -34093.571 M 34758.885 -37753.485 34758.885 -37003.485 35044.6 -37003.485 35116.028 -37039.2 35151.742 -37074.914 35187.457 -37146.342 35187.457 -37253.485 35151.742 -37324.914 35116.028 -37360.628 35044.6 -37396.342 34758.885 -37396.342 M 35437.457 -37003.485 35616.028 -37753.485 35758.885 -37217.771 35901.742 -37753.485 36080.314 -37003.485 M 36366.028 -37753.485 36366.028 -37003.485 36616.028 -37539.2 36866.028 -37003.485 36866.028 -37753.485 M 37616.028 -37753.485 37187.457 -37753.485 M 37401.742 -37753.485 37401.742 -37003.485 37330.314 -37110.628 37258.885 -37182.057 37187.457 -37217.771 M 44008.028 -39277.485 44008.028 -38527.485 M 44365.171 -39277.485 44365.171 -38527.485 44615.171 -39063.2 44865.171 -38527.485 44865.171 -39277.485 M 45222.314 -38527.485 45222.314 -39134.628 45258.028 -39206.057 45293.742 -39241.771 45365.171 -39277.485 45508.028 -39277.485 45579.457 -39241.771 45615.171 -39206.057 45650.885 -39134.628 45650.885 -38527.485 M 46400.885 -39277.485 45972.314 -39277.485 M 46186.6 -39277.485 46186.6 -38527.485 46115.171 -38634.628 46043.742 -38706.057 45972.314 -38741.771" fill="none" stroke-width="150"/><path d="M 44419.152 -32103.19 44419.152 -31603.19 44585.819 -31960.333 44752.485 -31603.19 44752.485 -32103.19 M 44966.771 -31960.333 45204.866 -31960.333 M 44919.152 -32103.19 45085.819 -31603.19 45252.485 -32103.19 M 45681.057 -31627 45633.438 -31603.19 45562.009 -31603.19 45490.58 -31627 45442.961 -31674.619 45419.152 -31722.238 45395.342 -31817.476 45395.342 -31888.904 45419.152 -31984.142 45442.961 -32031.761 45490.58 -32079.38 45562.009 -32103.19 45609.628 -32103.19 45681.057 -32079.38 45704.866 -32055.571 45704.866 -31888.904 45609.628 -31888.904 M 46181.057 -32103.19 45895.342 -32103.19 M 46038.2 -32103.19 46038.2 -31603.19 45990.58 -31674.619 45942.961 -31722.238 45895.342 -31746.047" fill="none" stroke-width="100"/><path d="M 44877.266 -52623.98 44877.266 -51623.98 45210.6 -52338.266 45543.933 -51623.98 45543.933 -52623.98 M 46591.552 -52528.742 46543.933 -52576.361 46401.076 -52623.98 46305.838 -52623.98 46162.98 -52576.361 46067.742 -52481.123 46020.123 -52385.885 45972.504 -52195.409 45972.504 -52052.552 46020.123 -51862.076 46067.742 -51766.838 46162.98 -51671.6 46305.838 -51623.98 46401.076 -51623.98 46543.933 -51671.6 46591.552 -51719.219 M 47020.123 -51623.98 47020.123 -52433.504 47067.742 -52528.742 47115.361 -52576.361 47210.6 -52623.98 47401.076 -52623.98 47496.314 -52576.361 47543.933 -52528.742 47591.552 -52433.504 47591.552 -51623.98 M 48591.552 -52623.98 48020.123 -52623.98 M 48305.838 -52623.98 48305.838 -51623.98 48210.6 -51766.838 48115.361 -51862.076 48020.123 -51909.695 M 54025.895 -35748.98 54025.895 -36558.504 54073.514 -36653.742 54121.133 -36701.361 54216.371 -36748.98 54406.847 -36748.98 54502.085 -36701.361 54549.704 -36653.742 54597.323 -36558.504 54597.323 -35748.98 M 55025.895 -35844.219 55073.514 -35796.6 55168.752 -35748.98 55406.847 -35748.98 55502.085 -35796.6 55549.704 -35844.219 55597.323 -35939.457 55597.323 -36034.695 55549.704 -36177.552 54978.276 -36748.98 55597.323 -36748.98 M 59726.58 -35382.104 60536.104 -35382.104 60631.342 -35334.485 60678.961 -35286.866 60726.58 -35191.628 60726.58 -35001.152 60678.961 -34905.914 60631.342 -34858.295 60536.104 -34810.676 59726.58 -34810.676 M 60726.58 -33810.676 60726.58 -34382.104 M 60726.58 -34096.39 59726.58 -34096.39 59869.438 -34191.628 59964.676 -34286.866 60012.295 -34382.104 M 64282.866 -46429.561 64425.723 -46477.18 64663.819 -46477.18 64759.057 -46429.561 64806.676 -46381.942 64854.295 -46286.704 64854.295 -46191.466 64806.676 -46096.228 64759.057 -46048.609 64663.819 -46000.99 64473.342 -45953.371 64378.104 -45905.752 64330.485 -45858.133 64282.866 -45762.895 64282.866 -45667.657 64330.485 -45572.419 64378.104 -45524.8 64473.342 -45477.18 64711.438 -45477.18 64854.295 -45524.8 M 65187.628 -45477.18 65425.723 -46477.18 65616.2 -45762.895 65806.676 -46477.18 66044.771 -45477.18 M 66425.723 -46477.18 66425.723 -45477.18 66663.819 -45477.18 66806.676 -45524.8 66901.914 -45620.038 66949.533 -45715.276 66997.152 -45905.752 66997.152 -46048.609 66949.533 -46239.085 66901.914 -46334.323 66806.676 -46429.561 66663.819 -46477.18 66425.723 -46477.18 M 67949.533 -46477.18 67378.104 -46477.18 M 67663.819 -46477.18 67663.819 -45477.18 67568.58 -45620.038 67473.342 -45715.276 67378.104 -45762.895 M 29967.466 -66781.371 30110.323 -66828.99 30157.942 -66876.609 30205.561 -66971.847 30205.561 -67114.704 30157.942 -67209.942 30110.323 -67257.561 30015.085 -67305.18 29634.133 -67305.18 29634.133 -66305.18 29967.466 -66305.18 30062.704 -66352.8 30110.323 -66400.419 30157.942 -66495.657 30157.942 -66590.895 30110.323 -66686.133 30062.704 -66733.752 29967.466 -66781.371 29634.133 -66781.371 M 30824.609 -66305.18 31015.085 -66305.18 31110.323 -66352.8 31205.561 -66448.038 31253.18 -66638.514 31253.18 -66971.847 31205.561 -67162.323 31110.323 -67257.561 31015.085 -67305.18 30824.609 -67305.18 30729.371 -67257.561 30634.133 -67162.323 30586.514 -66971.847 30586.514 -66638.514 30634.133 -66448.038 30729.371 -66352.8 30824.609 -66305.18 M 31872.228 -66305.18 32062.704 -66305.18 32157.942 -66352.8 32253.18 -66448.038 32300.8 -66638.514 32300.8 -66971.847 32253.18 -67162.323 32157.942 -67257.561 32062.704 -67305.18 31872.228 -67305.18 31776.99 -67257.561 31681.752 -67162.323 31634.133 -66971.847 31634.133 -66638.514 31681.752 -66448.038 31776.99 -66352.8 31872.228 -66305.18 M 32586.514 -66305.18 33157.942 -66305.18 M 32872.228 -67305.18 32872.228 -66305.18 M 33681.752 -66305.18 33776.99 -66305.18 33872.228 -66352.8 33919.847 -66400.419 33967.466 -66495.657 34015.085 -66686.133 34015.085 -66924.228 33967.466 -67114.704 33919.847 -67209.942 33872.228 -67257.561 33776.99 -67305.18 33681.752 -67305.18 33586.514 -67257.561 33538.895 -67209.942 33491.276 -67114.704 33443.657 -66924.228 33443.657 -66686.133 33491.276 -66495.657 33538.895 -66400.419 33586.514 -66352.8 33681.752 -66305.18 M 36977.866 -66781.371 37120.723 -66828.99 37168.342 -66876.609 37215.961 -66971.847 37215.961 -67114.704 37168.342 -67209.942 37120.723 -67257.561 37025.485 -67305.18 36644.533 -67305.18 36644.533 -66305.18 36977.866 -66305.18 37073.104 -66352.8 37120.723 -66400.419 37168.342 -66495.657 37168.342 -66590.895 37120.723 -66686.133 37073.104 -66733.752 36977.866 -66781.371 36644.533 -66781.371 M 37835.009 -66305.18 38025.485 -66305.18 38120.723 -66352.8 38215.961 -66448.038 38263.58 -66638.514 38263.58 -66971.847 38215.961 -67162.323 38120.723 -67257.561 38025.485 -67305.18 37835.009 -67305.18 37739.771 -67257.561 37644.533 -67162.323 37596.914 -66971.847 37596.914 -66638.514 37644.533 -66448.038 37739.771 -66352.8 37835.009 -66305.18 M 38882.628 -66305.18 39073.104 -66305.18 39168.342 -66352.8 39263.58 -66448.038 39311.2 -66638.514 39311.2 -66971.847 39263.58 -67162.323 39168.342 -67257.561 39073.104 -67305.18 38882.628 -67305.18 38787.39 -67257.561 38692.152 -67162.323 38644.533 -66971.847 38644.533 -66638.514 38692.152 -66448.038 38787.39 -66352.8 38882.628 -66305.18 M 39596.914 -66305.18 40168.342 -66305.18 M 39882.628 -67305.18 39882.628 -66305.18 M 41025.485 -67305.18 40454.057 -67305.18 M 40739.771 -67305.18 40739.771 -66305.18 40644.533 -66448.038 40549.295 -66543.276 40454.057 -66590.895 M 46588.971 -67054.771 46696.114 -67090.485 46874.685 -67090.485 46946.114 -67054.771 46981.828 -67019.057 47017.542 -66947.628 47017.542 -66876.2 46981.828 -66804.771 46946.114 -66769.057 46874.685 -66733.342 46731.828 -66697.628 46660.4 -66661.914 46624.685 -66626.2 46588.971 -66554.771 46588.971 -66483.342 46624.685 -66411.914 46660.4 -66376.2 46731.828 -66340.485 46910.4 -66340.485 47017.542 -66376.2 M 47588.971 -66697.628 47696.114 -66733.342 47731.828 -66769.057 47767.542 -66840.485 47767.542 -66947.628 47731.828 -67019.057 47696.114 -67054.771 47624.685 -67090.485 47338.971 -67090.485 47338.971 -66340.485 47588.971 -66340.485 47660.4 -66376.2 47696.114 -66411.914 47731.828 -66483.342 47731.828 -66554.771 47696.114 -66626.2 47660.4 -66661.914 47588.971 -66697.628 47338.971 -66697.628 M 48088.971 -66340.485 48088.971 -66947.628 48124.685 -67019.057 48160.4 -67054.771 48231.828 -67090.485 48374.685 -67090.485 48446.114 -67054.771 48481.828 -67019.057 48517.542 -66947.628 48517.542 -66340.485 M 48838.971 -67054.771 48946.114 -67090.485 49124.685 -67090.485 49196.114 -67054.771 49231.828 -67019.057 49267.542 -66947.628 49267.542 -66876.2 49231.828 -66804.771 49196.114 -66769.057 49124.685 -66733.342 48981.828 -66697.628 48910.4 -66661.914 48874.685 -66626.2 48838.971 -66554.771 48838.971 -66483.342 48874.685 -66411.914 48910.4 -66376.2 48981.828 -66340.485 49160.4 -66340.485 49267.542 -66376.2 M 49981.828 -67090.485 49553.257 -67090.485 M 49767.542 -67090.485 49767.542 -66340.485 49696.114 -66447.628 49624.685 -66519.057 49553.257 -66554.771 M 56917.542 -66376.2 56846.114 -66340.485 56738.971 -66340.485 56631.828 -66376.2 56560.4 -66447.628 56524.685 -66519.057 56488.971 -66661.914 56488.971 -66769.057 56524.685 -66911.914 56560.4 -66983.342 56631.828 -67054.771 56738.971 -67090.485 56810.4 -67090.485 56917.542 -67054.771 56953.257 -67019.057 56953.257 -66769.057 56810.4 -66769.057 M 57274.685 -67090.485 57274.685 -66340.485 57560.4 -66340.485 57631.828 -66376.2 57667.542 -66411.914 57703.257 -66483.342 57703.257 -66590.485 57667.542 -66661.914 57631.828 -66697.628 57560.4 -66733.342 57274.685 -66733.342 M 57988.971 -67054.771 58096.114 -67090.485 58274.685 -67090.485 58346.114 -67054.771 58381.828 -67019.057 58417.542 -66947.628 58417.542 -66876.2 58381.828 -66804.771 58346.114 -66769.057 58274.685 -66733.342 58131.828 -66697.628 58060.4 -66661.914 58024.685 -66626.2 57988.971 -66554.771 57988.971 -66483.342 58024.685 -66411.914 58060.4 -66376.2 58131.828 -66340.485 58310.4 -66340.485 58417.542 -66376.2 M 59131.828 -67090.485 58703.257 -67090.485 M 58917.542 -67090.485 58917.542 -66340.485 58846.114 -66447.628 58774.685 -66519.057 58703.257 -66554.771 M 65509.514 -57057.485 65509.514 -56307.485 M 65830.942 -56378.914 65866.657 -56343.2 65938.085 -56307.485 66116.657 -56307.485 66188.085 -56343.2 66223.8 -56378.914 66259.514 -56450.342 66259.514 -56521.771 66223.8 -56628.914 65795.228 -57057.485 66259.514 -57057.485 M 67009.514 -56986.057 66973.8 -57021.771 66866.657 -57057.485 66795.228 -57057.485 66688.085 -57021.771 66616.657 -56950.342 66580.942 -56878.914 66545.228 -56736.057 66545.228 -56628.914 66580.942 -56486.057 66616.657 -56414.628 66688.085 -56343.2 66795.228 -56307.485 66866.657 -56307.485 66973.8 -56343.2 67009.514 -56378.914 M 67259.514 -56307.485 67723.8 -56307.485 67473.8 -56593.2 67580.942 -56593.2 67652.371 -56628.914 67688.085 -56664.628 67723.8 -56736.057 67723.8 -56914.628 67688.085 -56986.057 67652.371 -57021.771 67580.942 -57057.485 67366.657 -57057.485 67295.228 -57021.771 67259.514 -56986.057 M 57557.771 -52688.685 57307.771 -52331.542 M 57129.2 -52688.685 57129.2 -51938.685 57414.914 -51938.685 57486.342 -51974.4 57522.057 -52010.114 57557.771 -52081.542 57557.771 -52188.685 57522.057 -52260.114 57486.342 -52295.828 57414.914 -52331.542 57129.2 -52331.542 M 57879.2 -52295.828 58129.2 -52295.828 M 58236.342 -52688.685 57879.2 -52688.685 57879.2 -51938.685 58236.342 -51938.685 M 58522.057 -52652.971 58629.2 -52688.685 58807.771 -52688.685 58879.2 -52652.971 58914.914 -52617.257 58950.628 -52545.828 58950.628 -52474.4 58914.914 -52402.971 58879.2 -52367.257 58807.771 -52331.542 58664.914 -52295.828 58593.485 -52260.114 58557.771 -52224.4 58522.057 -52152.971 58522.057 -52081.542 58557.771 -52010.114 58593.485 -51974.4 58664.914 -51938.685 58843.485 -51938.685 58950.628 -51974.4 M 59272.057 -52295.828 59522.057 -52295.828 M 59629.2 -52688.685 59272.057 -52688.685 59272.057 -51938.685 59629.2 -51938.685 M 59843.485 -51938.685 60272.057 -51938.685 M 60057.771 -52688.685 60057.771 -51938.685 M 60914.914 -52688.685 60486.342 -52688.685 M 60700.628 -52688.685 60700.628 -51938.685 60629.2 -52045.828 60557.771 -52117.257 60486.342 -52152.971" fill="none" stroke-width="150"/><path d="M 34994.161 -50213.39 34994.161 -49713.39 M 34994.161 -49951.485 35279.876 -49951.485 M 35279.876 -50213.39 35279.876 -49713.39 M 35494.161 -50189.58 35565.59 -50213.39 35684.638 -50213.39 35732.257 -50189.58 35756.066 -50165.771 35779.876 -50118.152 35779.876 -50070.533 35756.066 -50022.914 35732.257 -49999.104 35684.638 -49975.295 35589.4 -49951.485 35541.78 -49927.676 35517.971 -49903.866 35494.161 -49856.247 35494.161 -49808.628 35517.971 -49761.009 35541.78 -49737.2 35589.4 -49713.39 35708.447 -49713.39 35779.876 -49737.2 M 35994.161 -49951.485 36160.828 -49951.485 M 36232.257 -50213.39 35994.161 -50213.39 35994.161 -49713.39 36232.257 -49713.39 M 36708.447 -50213.39 36422.733 -50213.39 M 36565.59 -50213.39 36565.59 -49713.39 36517.971 -49784.819 36470.352 -49832.438 36422.733 -49856.247 M 36874.533 -44261.885 36945.961 -44285.695 36969.771 -44309.504 36993.58 -44357.123 36993.58 -44428.552 36969.771 -44476.171 36945.961 -44499.98 36898.342 -44523.79 36707.866 -44523.79 36707.866 -44023.79 36874.533 -44023.79 36922.152 -44047.6 36945.961 -44071.409 36969.771 -44119.028 36969.771 -44166.647 36945.961 -44214.266 36922.152 -44238.076 36874.533 -44261.885 36707.866 -44261.885 M 37184.057 -44380.933 37422.152 -44380.933 M 37136.438 -44523.79 37303.104 -44023.79 37469.771 -44523.79 M 37922.152 -44523.79 37755.485 -44285.695 M 37636.438 -44523.79 37636.438 -44023.79 37826.914 -44023.79 37874.533 -44047.6 37898.342 -44071.409 37922.152 -44119.028 37922.152 -44190.457 37898.342 -44238.076 37874.533 -44261.885 37826.914 -44285.695 37636.438 -44285.695 M 38398.342 -44523.79 38112.628 -44523.79 M 38255.485 -44523.79 38255.485 -44023.79 38207.866 -44095.219 38160.247 -44142.838 38112.628 -44166.647" fill="none" stroke-width="100"/><path d="M 23671.161 -59664.266 23718.78 -59521.409 23718.78 -59283.314 23671.161 -59188.076 23623.542 -59140.457 23528.304 -59092.838 23433.066 -59092.838 23337.828 -59140.457 23290.209 -59188.076 23242.59 -59283.314 23194.971 -59473.79 23147.352 -59569.028 23099.733 -59616.647 23004.495 -59664.266 22909.257 -59664.266 22814.019 -59616.647 22766.4 -59569.028 22718.78 -59473.79 22718.78 -59235.695 22766.4 -59092.838 M 23194.971 -58664.266 23194.971 -58330.933 M 23718.78 -58188.076 23718.78 -58664.266 22718.78 -58664.266 22718.78 -58188.076 M 23718.78 -57188.076 23242.59 -57521.409 M 23718.78 -57759.504 22718.78 -57759.504 22718.78 -57378.552 22766.4 -57283.314 22814.019 -57235.695 22909.257 -57188.076 23052.114 -57188.076 23147.352 -57235.695 23194.971 -57283.314 23242.59 -57378.552 23242.59 -57759.504 M 22718.78 -56902.361 23718.78 -56569.028 22718.78 -56235.695 M 22718.78 -55711.885 22718.78 -55521.409 22766.4 -55426.171 22861.638 -55330.933 23052.114 -55283.314 23385.447 -55283.314 23575.923 -55330.933 23671.161 -55426.171 23718.78 -55521.409 23718.78 -55711.885 23671.161 -55807.123 23575.923 -55902.361 23385.447 -55949.98 23052.114 -55949.98 22861.638 -55902.361 22766.4 -55807.123 22718.78 -55711.885 M 23718.78 -54330.933 23718.78 -54902.361 M 23718.78 -54616.647 22718.78 -54616.647 22861.638 -54711.885 22956.876 -54807.123 23004.495 -54902.361 M 25471.38 -41984.133 24471.38 -41984.133 24471.38 -41603.18 24519 -41507.942 24566.619 -41460.323 24661.857 -41412.704 24804.714 -41412.704 24899.952 -41460.323 24947.571 -41507.942 24995.19 -41603.18 24995.19 -41984.133 M 24471.38 -41079.371 25471.38 -40841.276 24757.095 -40650.8 25471.38 -40460.323 24471.38 -40222.228 M 25471.38 -39841.276 24471.38 -39841.276 25185.666 -39507.942 24471.38 -39174.609 25471.38 -39174.609 M 25566.619 -38936.514 25566.619 -38174.609 M 25471.38 -37936.514 24471.38 -37936.514 24471.38 -37555.561 24519 -37460.323 24566.619 -37412.704 24661.857 -37365.085 24804.714 -37365.085 24899.952 -37412.704 24947.571 -37460.323 24995.19 -37555.561 24995.19 -37936.514 M 24471.38 -37031.752 25471.38 -36793.657 24757.095 -36603.18 25471.38 -36412.704 24471.38 -36174.609 M 25471.38 -35222.228 24995.19 -35555.561 M 25471.38 -35793.657 24471.38 -35793.657 24471.38 -35412.704 24519 -35317.466 24566.619 -35269.847 24661.857 -35222.228 24804.714 -35222.228 24899.952 -35269.847 24947.571 -35317.466 24995.19 -35412.704 24995.19 -35793.657 M 25471.38 -34269.847 25471.38 -34841.276 M 25471.38 -34555.561 24471.38 -34555.561 24614.238 -34650.8 24709.476 -34746.038 24757.095 -34841.276" fill="none" stroke-width="150"/><path d="M 30977.733 -53396.39 30977.733 -53753.533 30953.923 -53824.961 30906.304 -53872.58 30834.876 -53896.39 30787.257 -53896.39 M 31215.828 -53896.39 31215.828 -53396.39 31406.304 -53396.39 31453.923 -53420.2 31477.733 -53444.009 31501.542 -53491.628 31501.542 -53563.057 31477.733 -53610.676 31453.923 -53634.485 31406.304 -53658.295 31215.828 -53658.295 M 31977.733 -53896.39 31692.019 -53896.39 M 31834.876 -53896.39 31834.876 -53396.39 31787.257 -53467.819 31739.638 -53515.438 31692.019 -53539.247 M 31025.352 -49756.19 31025.352 -49256.19 31144.4 -49256.19 31215.828 -49280 31263.447 -49327.619 31287.257 -49375.238 31311.066 -49470.476 31311.066 -49541.904 31287.257 -49637.142 31263.447 -49684.761 31215.828 -49732.38 31144.4 -49756.19 31025.352 -49756.19 M 31739.638 -49256.19 31644.4 -49256.19 31596.78 -49280 31572.971 -49303.809 31525.352 -49375.238 31501.542 -49470.476 31501.542 -49660.952 31525.352 -49708.571 31549.161 -49732.38 31596.78 -49756.19 31692.019 -49756.19 31739.638 -49732.38 31763.447 -49708.571 31787.257 -49660.952 31787.257 -49541.904 31763.447 -49494.285 31739.638 -49470.476 31692.019 -49446.666 31596.78 -49446.666 31549.161 -49470.476 31525.352 -49494.285 31501.542 -49541.904 M 35517.971 -47854.371 35494.161 -47878.18 35422.733 -47901.99 35375.114 -47901.99 35303.685 -47878.18 35256.066 -47830.561 35232.257 -47782.942 35208.447 -47687.704 35208.447 -47616.276 35232.257 -47521.038 35256.066 -47473.419 35303.685 -47425.8 35375.114 -47401.99 35422.733 -47401.99 35494.161 -47425.8 35517.971 -47449.609 M 35994.161 -47901.99 35708.447 -47901.99 M 35851.304 -47901.99 35851.304 -47401.99 35803.685 -47473.419 35756.066 -47521.038 35708.447 -47544.847 M 36160.828 -47401.99 36494.161 -47401.99 36279.876 -47901.99 M 35517.971 -52375.571 35494.161 -52399.38 35422.733 -52423.19 35375.114 -52423.19 35303.685 -52399.38 35256.066 -52351.761 35232.257 -52304.142 35208.447 -52208.904 35208.447 -52137.476 35232.257 -52042.238 35256.066 -51994.619 35303.685 -51947 35375.114 -51923.19 35422.733 -51923.19 35494.161 -51947 35517.971 -51970.809 M 35994.161 -52423.19 35708.447 -52423.19 M 35851.304 -52423.19 35851.304 -51923.19 35803.685 -51994.619 35756.066 -52042.238 35708.447 -52066.047 M 36279.876 -52137.476 36232.257 -52113.666 36208.447 -52089.857 36184.638 -52042.238 36184.638 -52018.428 36208.447 -51970.809 36232.257 -51947 36279.876 -51923.19 36375.114 -51923.19 36422.733 -51947 36446.542 -51970.809 36470.352 -52018.428 36470.352 -52042.238 36446.542 -52089.857 36422.733 -52113.666 36375.114 -52137.476 36279.876 -52137.476 36232.257 -52161.285 36208.447 -52185.095 36184.638 -52232.714 36184.638 -52327.952 36208.447 -52375.571 36232.257 -52399.38 36279.876 -52423.19 36375.114 -52423.19 36422.733 -52399.38 36446.542 -52375.571 36470.352 -52327.952 36470.352 -52232.714 36446.542 -52185.095 36422.733 -52161.285 36375.114 -52137.476 M 38727.866 -51991.39 38561.2 -51753.295 M 38442.152 -51991.39 38442.152 -51491.39 38632.628 -51491.39 38680.247 -51515.2 38704.057 -51539.009 38727.866 -51586.628 38727.866 -51658.057 38704.057 -51705.676 38680.247 -51729.485 38632.628 -51753.295 38442.152 -51753.295 M 39013.58 -51705.676 38965.961 -51681.866 38942.152 -51658.057 38918.342 -51610.438 38918.342 -51586.628 38942.152 -51539.009 38965.961 -51515.2 39013.58 -51491.39 39108.819 -51491.39 39156.438 -51515.2 39180.247 -51539.009 39204.057 -51586.628 39204.057 -51610.438 39180.247 -51658.057 39156.438 -51681.866 39108.819 -51705.676 39013.58 -51705.676 38965.961 -51729.485 38942.152 -51753.295 38918.342 -51800.914 38918.342 -51896.152 38942.152 -51943.771 38965.961 -51967.58 39013.58 -51991.39 39108.819 -51991.39 39156.438 -51967.58 39180.247 -51943.771 39204.057 -51896.152 39204.057 -51800.914 39180.247 -51753.295 39156.438 -51729.485 39108.819 -51705.676 M 35676.733 -55107.685 35510.066 -55107.685 M 35510.066 -55369.59 35510.066 -54869.59 35748.161 -54869.59 M 36105.304 -55107.685 36176.733 -55131.495 36200.542 -55155.304 36224.352 -55202.923 36224.352 -55274.352 36200.542 -55321.971 36176.733 -55345.78 36129.114 -55369.59 35938.638 -55369.59 35938.638 -54869.59 36105.304 -54869.59 36152.923 -54893.4 36176.733 -54917.209 36200.542 -54964.828 36200.542 -55012.447 36176.733 -55060.066 36152.923 -55083.876 36105.304 -55107.685 35938.638 -55107.685 M 36700.542 -55369.59 36414.828 -55369.59 M 36557.685 -55369.59 36557.685 -54869.59 36510.066 -54941.019 36462.447 -54988.638 36414.828 -55012.447 M 38071.457 -54803.657 38052.409 -54822.704 37995.266 -54841.752 37957.171 -54841.752 37900.028 -54822.704 37861.933 -54784.609 37842.885 -54746.514 37823.838 -54670.323 37823.838 -54613.18 37842.885 -54536.99 37861.933 -54498.895 37900.028 -54460.8 37957.171 -54441.752 37995.266 -54441.752 38052.409 -54460.8 38071.457 -54479.847 M 38452.409 -54841.752 38223.838 -54841.752 M 38338.123 -54841.752 38338.123 -54441.752 38300.028 -54498.895 38261.933 -54536.99 38223.838 -54556.038 M 38814.314 -54441.752 38623.838 -54441.752 38604.79 -54632.228 38623.838 -54613.18 38661.933 -54594.133 38757.171 -54594.133 38795.266 -54613.18 38814.314 -54632.228 38833.361 -54670.323 38833.361 -54765.561 38814.314 -54803.657 38795.266 -54822.704 38757.171 -54841.752 38661.933 -54841.752 38623.838 -54822.704 38604.79 -54803.657 M 39417.657 -54803.657 39398.609 -54822.704 39341.466 -54841.752 39303.371 -54841.752 39246.228 -54822.704 39208.133 -54784.609 39189.085 -54746.514 39170.038 -54670.323 39170.038 -54613.18 39189.085 -54536.99 39208.133 -54498.895 39246.228 -54460.8 39303.371 -54441.752 39341.466 -54441.752 39398.609 -54460.8 39417.657 -54479.847 M 39798.609 -54841.752 39570.038 -54841.752 M 39684.323 -54841.752 39684.323 -54441.752 39646.228 -54498.895 39608.133 -54536.99 39570.038 -54556.038 M 40141.466 -54441.752 40065.276 -54441.752 40027.18 -54460.8 40008.133 -54479.847 39970.038 -54536.99 39950.99 -54613.18 39950.99 -54765.561 39970.038 -54803.657 39989.085 -54822.704 40027.18 -54841.752 40103.371 -54841.752 40141.466 -54822.704 40160.514 -54803.657 40179.561 -54765.561 40179.561 -54670.323 40160.514 -54632.228 40141.466 -54613.18 40103.371 -54594.133 40027.18 -54594.133 39989.085 -54613.18 39970.038 -54632.228 39950.99 -54670.323 M 39976.457 -57013.457 39957.409 -57032.504 39900.266 -57051.552 39862.171 -57051.552 39805.028 -57032.504 39766.933 -56994.409 39747.885 -56956.314 39728.838 -56880.123 39728.838 -56822.98 39747.885 -56746.79 39766.933 -56708.695 39805.028 -56670.6 39862.171 -56651.552 39900.266 -56651.552 39957.409 -56670.6 39976.457 -56689.647 M 40109.79 -56651.552 40357.409 -56651.552 40224.076 -56803.933 40281.219 -56803.933 40319.314 -56822.98 40338.361 -56842.028 40357.409 -56880.123 40357.409 -56975.361 40338.361 -57013.457 40319.314 -57032.504 40281.219 -57051.552 40166.933 -57051.552 40128.838 -57032.504 40109.79 -57013.457 M 40605.028 -56651.552 40643.123 -56651.552 40681.219 -56670.6 40700.266 -56689.647 40719.314 -56727.742 40738.361 -56803.933 40738.361 -56899.171 40719.314 -56975.361 40700.266 -57013.457 40681.219 -57032.504 40643.123 -57051.552 40605.028 -57051.552 40566.933 -57032.504 40547.885 -57013.457 40528.838 -56975.361 40509.79 -56899.171 40509.79 -56803.933 40528.838 -56727.742 40547.885 -56689.647 40566.933 -56670.6 40605.028 -56651.552 M 40001.857 -59718.552 39868.523 -59528.076 M 39773.285 -59718.552 39773.285 -59318.552 39925.666 -59318.552 39963.761 -59337.6 39982.809 -59356.647 40001.857 -59394.742 40001.857 -59451.885 39982.809 -59489.98 39963.761 -59509.028 39925.666 -59528.076 39773.285 -59528.076 M 40382.809 -59718.552 40154.238 -59718.552 M 40268.523 -59718.552 40268.523 -59318.552 40230.428 -59375.695 40192.333 -59413.79 40154.238 -59432.838 M 40573.285 -59718.552 40649.476 -59718.552 40687.571 -59699.504 40706.619 -59680.457 40744.714 -59623.314 40763.761 -59547.123 40763.761 -59394.742 40744.714 -59356.647 40725.666 -59337.6 40687.571 -59318.552 40611.38 -59318.552 40573.285 -59337.6 40554.238 -59356.647 40535.19 -59394.742 40535.19 -59489.98 40554.238 -59528.076 40573.285 -59547.123 40611.38 -59566.171 40687.571 -59566.171 40725.666 -59547.123 40744.714 -59528.076 40763.761 -59489.98 M 27936.857 -61242.552 27803.523 -61052.076 M 27708.285 -61242.552 27708.285 -60842.552 27860.666 -60842.552 27898.761 -60861.6 27917.809 -60880.647 27936.857 -60918.742 27936.857 -60975.885 27917.809 -61013.98 27898.761 -61033.028 27860.666 -61052.076 27708.285 -61052.076 M 28089.238 -60880.647 28108.285 -60861.6 28146.38 -60842.552 28241.619 -60842.552 28279.714 -60861.6 28298.761 -60880.647 28317.809 -60918.742 28317.809 -60956.838 28298.761 -61013.98 28070.19 -61242.552 28317.809 -61242.552 M 28565.428 -60842.552 28603.523 -60842.552 28641.619 -60861.6 28660.666 -60880.647 28679.714 -60918.742 28698.761 -60994.933 28698.761 -61090.171 28679.714 -61166.361 28660.666 -61204.457 28641.619 -61223.504 28603.523 -61242.552 28565.428 -61242.552 28527.333 -61223.504 28508.285 -61204.457 28489.238 -61166.361 28470.19 -61090.171 28470.19 -60994.933 28489.238 -60918.742 28508.285 -60880.647 28527.333 -60861.6 28565.428 -60842.552 M 29359.257 -64493.752 29225.923 -64303.276 M 29130.685 -64493.752 29130.685 -64093.752 29283.066 -64093.752 29321.161 -64112.8 29340.209 -64131.847 29359.257 -64169.942 29359.257 -64227.085 29340.209 -64265.18 29321.161 -64284.228 29283.066 -64303.276 29130.685 -64303.276 M 29740.209 -64493.752 29511.638 -64493.752 M 29625.923 -64493.752 29625.923 -64093.752 29587.828 -64150.895 29549.733 -64188.99 29511.638 -64208.038 M 29873.542 -64093.752 30140.209 -64093.752 29968.78 -64493.752 M 36344.257 -64493.752 36210.923 -64303.276 M 36115.685 -64493.752 36115.685 -64093.752 36268.066 -64093.752 36306.161 -64112.8 36325.209 -64131.847 36344.257 -64169.942 36344.257 -64227.085 36325.209 -64265.18 36306.161 -64284.228 36268.066 -64303.276 36115.685 -64303.276 M 36725.209 -64493.752 36496.638 -64493.752 M 36610.923 -64493.752 36610.923 -64093.752 36572.828 -64150.895 36534.733 -64188.99 36496.638 -64208.038 M 36953.78 -64265.18 36915.685 -64246.133 36896.638 -64227.085 36877.59 -64188.99 36877.59 -64169.942 36896.638 -64131.847 36915.685 -64112.8 36953.78 -64093.752 37029.971 -64093.752 37068.066 -64112.8 37087.114 -64131.847 37106.161 -64169.942 37106.161 -64188.99 37087.114 -64227.085 37068.066 -64246.133 37029.971 -64265.18 36953.78 -64265.18 36915.685 -64284.228 36896.638 -64303.276 36877.59 -64341.371 36877.59 -64417.561 36896.638 -64455.657 36915.685 -64474.704 36953.78 -64493.752 37029.971 -64493.752 37068.066 -64474.704 37087.114 -64455.657 37106.161 -64417.561 37106.161 -64341.371 37087.114 -64303.276 37068.066 -64284.228 37029.971 -64265.18 M 42865.723 -65687.552 42865.723 -65287.552 M 43284.771 -65649.457 43265.723 -65668.504 43208.58 -65687.552 43170.485 -65687.552 43113.342 -65668.504 43075.247 -65630.409 43056.2 -65592.314 43037.152 -65516.123 43037.152 -65458.98 43056.2 -65382.79 43075.247 -65344.695 43113.342 -65306.6 43170.485 -65287.552 43208.58 -65287.552 43265.723 -65306.6 43284.771 -65325.647 M 43665.723 -65687.552 43437.152 -65687.552 M 43551.438 -65687.552 43551.438 -65287.552 43513.342 -65344.695 43475.247 -65382.79 43437.152 -65401.838 M 42973.657 -68951.457 42954.609 -68970.504 42897.466 -68989.552 42859.371 -68989.552 42802.228 -68970.504 42764.133 -68932.409 42745.085 -68894.314 42726.038 -68818.123 42726.038 -68760.98 42745.085 -68684.79 42764.133 -68646.695 42802.228 -68608.6 42859.371 -68589.552 42897.466 -68589.552 42954.609 -68608.6 42973.657 -68627.647 M 43106.99 -68589.552 43354.609 -68589.552 43221.276 -68741.933 43278.419 -68741.933 43316.514 -68760.98 43335.561 -68780.028 43354.609 -68818.123 43354.609 -68913.361 43335.561 -68951.457 43316.514 -68970.504 43278.419 -68989.552 43164.133 -68989.552 43126.038 -68970.504 43106.99 -68951.457 M 43735.561 -68989.552 43506.99 -68989.552 M 43621.276 -68989.552 43621.276 -68589.552 43583.18 -68646.695 43545.085 -68684.79 43506.99 -68703.838 M 54314.761 -56949.952 54314.761 -56549.952 54410 -56549.952 54467.142 -56569 54505.238 -56607.095 54524.285 -56645.19 54543.333 -56721.38 54543.333 -56778.523 54524.285 -56854.714 54505.238 -56892.809 54467.142 -56930.904 54410 -56949.952 54314.761 -56949.952 M 54924.285 -56949.952 54695.714 -56949.952 M 54810 -56949.952 54810 -56549.952 54771.904 -56607.095 54733.809 -56645.19 54695.714 -56664.238 M 56092.761 -56975.352 56092.761 -56575.352 56188 -56575.352 56245.142 -56594.4 56283.238 -56632.495 56302.285 -56670.59 56321.333 -56746.78 56321.333 -56803.923 56302.285 -56880.114 56283.238 -56918.209 56245.142 -56956.304 56188 -56975.352 56092.761 -56975.352 M 56473.714 -56613.447 56492.761 -56594.4 56530.857 -56575.352 56626.095 -56575.352 56664.19 -56594.4 56683.238 -56613.447 56702.285 -56651.542 56702.285 -56689.638 56683.238 -56746.78 56454.666 -56975.352 56702.285 -56975.352 M 57870.761 -57000.752 57870.761 -56600.752 57966 -56600.752 58023.142 -56619.8 58061.238 -56657.895 58080.285 -56695.99 58099.333 -56772.18 58099.333 -56829.323 58080.285 -56905.514 58061.238 -56943.609 58023.142 -56981.704 57966 -57000.752 57870.761 -57000.752 M 58232.666 -56600.752 58480.285 -56600.752 58346.952 -56753.133 58404.095 -56753.133 58442.19 -56772.18 58461.238 -56791.228 58480.285 -56829.323 58480.285 -56924.561 58461.238 -56962.657 58442.19 -56981.704 58404.095 -57000.752 58289.809 -57000.752 58251.714 -56981.704 58232.666 -56962.657 M 59648.761 -57000.752 59648.761 -56600.752 59744 -56600.752 59801.142 -56619.8 59839.238 -56657.895 59858.285 -56695.99 59877.333 -56772.18 59877.333 -56829.323 59858.285 -56905.514 59839.238 -56943.609 59801.142 -56981.704 59744 -57000.752 59648.761 -57000.752 M 60220.19 -56734.085 60220.19 -57000.752 M 60124.952 -56581.704 60029.714 -56867.419 60277.333 -56867.419 M 54543.333 -60074.152 54410 -59883.676 M 54314.761 -60074.152 54314.761 -59674.152 54467.142 -59674.152 54505.238 -59693.2 54524.285 -59712.247 54543.333 -59750.342 54543.333 -59807.485 54524.285 -59845.58 54505.238 -59864.628 54467.142 -59883.676 54314.761 -59883.676 M 54733.809 -60074.152 54810 -60074.152 54848.095 -60055.104 54867.142 -60036.057 54905.238 -59978.914 54924.285 -59902.723 54924.285 -59750.342 54905.238 -59712.247 54886.19 -59693.2 54848.095 -59674.152 54771.904 -59674.152 54733.809 -59693.2 54714.761 -59712.247 54695.714 -59750.342 54695.714 -59845.58 54714.761 -59883.676 54733.809 -59902.723 54771.904 -59921.771 54848.095 -59921.771 54886.19 -59902.723 54905.238 -59883.676 54924.285 -59845.58 M 56130.857 -60074.152 55997.523 -59883.676 M 55902.285 -60074.152 55902.285 -59674.152 56054.666 -59674.152 56092.761 -59693.2 56111.809 -59712.247 56130.857 -59750.342 56130.857 -59807.485 56111.809 -59845.58 56092.761 -59864.628 56054.666 -59883.676 55902.285 -59883.676 M 56511.809 -60074.152 56283.238 -60074.152 M 56397.523 -60074.152 56397.523 -59674.152 56359.428 -59731.295 56321.333 -59769.39 56283.238 -59788.438 M 56759.428 -59674.152 56797.523 -59674.152 56835.619 -59693.2 56854.666 -59712.247 56873.714 -59750.342 56892.761 -59826.533 56892.761 -59921.771 56873.714 -59997.961 56854.666 -60036.057 56835.619 -60055.104 56797.523 -60074.152 56759.428 -60074.152 56721.333 -60055.104 56702.285 -60036.057 56683.238 -59997.961 56664.19 -59921.771 56664.19 -59826.533 56683.238 -59750.342 56702.285 -59712.247 56721.333 -59693.2 56759.428 -59674.152 M 57908.857 -60074.152 57775.523 -59883.676 M 57680.285 -60074.152 57680.285 -59674.152 57832.666 -59674.152 57870.761 -59693.2 57889.809 -59712.247 57908.857 -59750.342 57908.857 -59807.485 57889.809 -59845.58 57870.761 -59864.628 57832.666 -59883.676 57680.285 -59883.676 M 58289.809 -60074.152 58061.238 -60074.152 M 58175.523 -60074.152 58175.523 -59674.152 58137.428 -59731.295 58099.333 -59769.39 58061.238 -59788.438 M 58670.761 -60074.152 58442.19 -60074.152 M 58556.476 -60074.152 58556.476 -59674.152 58518.38 -59731.295 58480.285 -59769.39 58442.19 -59788.438 M 59686.857 -60074.152 59553.523 -59883.676 M 59458.285 -60074.152 59458.285 -59674.152 59610.666 -59674.152 59648.761 -59693.2 59667.809 -59712.247 59686.857 -59750.342 59686.857 -59807.485 59667.809 -59845.58 59648.761 -59864.628 59610.666 -59883.676 59458.285 -59883.676 M 60067.809 -60074.152 59839.238 -60074.152 M 59953.523 -60074.152 59953.523 -59674.152 59915.428 -59731.295 59877.333 -59769.39 59839.238 -59788.438 M 60220.19 -59712.247 60239.238 -59693.2 60277.333 -59674.152 60372.571 -59674.152 60410.666 -59693.2 60429.714 -59712.247 60448.761 -59750.342 60448.761 -59788.438 60429.714 -59845.58 60201.142 -60074.152 60448.761 -60074.152 M 48942.657 -59883.657 48923.609 -59902.704 48866.466 -59921.752 48828.371 -59921.752 48771.228 -59902.704 48733.133 -59864.609 48714.085 -59826.514 48695.038 -59750.323 48695.038 -59693.18 48714.085 -59616.99 48733.133 -59578.895 48771.228 -59540.8 48828.371 -59521.752 48866.466 -59521.752 48923.609 -59540.8 48942.657 -59559.847 M 49323.609 -59921.752 49095.038 -59921.752 M 49209.323 -59921.752 49209.323 -59521.752 49171.228 -59578.895 49133.133 -59616.99 49095.038 -59636.038 M 49456.942 -59521.752 49704.561 -59521.752 49571.228 -59674.133 49628.371 -59674.133 49666.466 -59693.18 49685.514 -59712.228 49704.561 -59750.323 49704.561 -59845.561 49685.514 -59883.657 49666.466 -59902.704 49628.371 -59921.752 49514.085 -59921.752 49475.99 -59902.704 49456.942 -59883.657 M 54048.057 -49495.057 54029.009 -49514.104 53971.866 -49533.152 53933.771 -49533.152 53876.628 -49514.104 53838.533 -49476.009 53819.485 -49437.914 53800.438 -49361.723 53800.438 -49304.58 53819.485 -49228.39 53838.533 -49190.295 53876.628 -49152.2 53933.771 -49133.152 53971.866 -49133.152 54029.009 -49152.2 54048.057 -49171.247 M 54429.009 -49533.152 54200.438 -49533.152 M 54314.723 -49533.152 54314.723 -49133.152 54276.628 -49190.295 54238.533 -49228.39 54200.438 -49247.438 M 54771.866 -49266.485 54771.866 -49533.152 M 54676.628 -49114.104 54581.39 -49399.819 54829.009 -49399.819 M 37004.657 -41824.257 36985.609 -41843.304 36928.466 -41862.352 36890.371 -41862.352 36833.228 -41843.304 36795.133 -41805.209 36776.085 -41767.114 36757.038 -41690.923 36757.038 -41633.78 36776.085 -41557.59 36795.133 -41519.495 36833.228 -41481.4 36890.371 -41462.352 36928.466 -41462.352 36985.609 -41481.4 37004.657 -41500.447 M 37157.038 -41500.447 37176.085 -41481.4 37214.18 -41462.352 37309.419 -41462.352 37347.514 -41481.4 37366.561 -41500.447 37385.609 -41538.542 37385.609 -41576.638 37366.561 -41633.78 37137.99 -41862.352 37385.609 -41862.352 M 37518.942 -41462.352 37785.609 -41462.352 37614.18 -41862.352 M 33905.857 -44923.057 33886.809 -44942.104 33829.666 -44961.152 33791.571 -44961.152 33734.428 -44942.104 33696.333 -44904.009 33677.285 -44865.914 33658.238 -44789.723 33658.238 -44732.58 33677.285 -44656.39 33696.333 -44618.295 33734.428 -44580.2 33791.571 -44561.152 33829.666 -44561.152 33886.809 -44580.2 33905.857 -44599.247 M 34058.238 -44599.247 34077.285 -44580.2 34115.38 -44561.152 34210.619 -44561.152 34248.714 -44580.2 34267.761 -44599.247 34286.809 -44637.342 34286.809 -44675.438 34267.761 -44732.58 34039.19 -44961.152 34286.809 -44961.152 M 34629.666 -44561.152 34553.476 -44561.152 34515.38 -44580.2 34496.333 -44599.247 34458.238 -44656.39 34439.19 -44732.58 34439.19 -44884.961 34458.238 -44923.057 34477.285 -44942.104 34515.38 -44961.152 34591.571 -44961.152 34629.666 -44942.104 34648.714 -44923.057 34667.761 -44884.961 34667.761 -44789.723 34648.714 -44751.628 34629.666 -44732.58 34591.571 -44713.533 34515.38 -44713.533 34477.285 -44732.58 34458.238 -44751.628 34439.19 -44789.723 M 41106.733 -43399.057 41087.685 -43418.104 41030.542 -43437.152 40992.447 -43437.152 40935.304 -43418.104 40897.209 -43380.009 40878.161 -43341.914 40859.114 -43265.723 40859.114 -43208.58 40878.161 -43132.39 40897.209 -43094.295 40935.304 -43056.2 40992.447 -43037.152 41030.542 -43037.152 41087.685 -43056.2 41106.733 -43075.247 M 41240.066 -43037.152 41487.685 -43037.152 41354.352 -43189.533 41411.495 -43189.533 41449.59 -43208.58 41468.638 -43227.628 41487.685 -43265.723 41487.685 -43360.961 41468.638 -43399.057 41449.59 -43418.104 41411.495 -43437.152 41297.209 -43437.152 41259.114 -43418.104 41240.066 -43399.057 M 45920.057 -36464.857 45901.009 -36483.904 45843.866 -36502.952 45805.771 -36502.952 45748.628 -36483.904 45710.533 -36445.809 45691.485 -36407.714 45672.438 -36331.523 45672.438 -36274.38 45691.485 -36198.19 45710.533 -36160.095 45748.628 -36122 45805.771 -36102.952 45843.866 -36102.952 45901.009 -36122 45920.057 -36141.047 M 46072.438 -36141.047 46091.485 -36122 46129.58 -36102.952 46224.819 -36102.952 46262.914 -36122 46281.961 -36141.047 46301.009 -36179.142 46301.009 -36217.238 46281.961 -36274.38 46053.39 -36502.952 46301.009 -36502.952 M 46681.961 -36502.952 46453.39 -36502.952 M 46567.676 -36502.952 46567.676 -36102.952 46529.58 -36160.095 46491.485 -36198.19 46453.39 -36217.238 M 47113.857 -41544.857 47094.809 -41563.904 47037.666 -41582.952 46999.571 -41582.952 46942.428 -41563.904 46904.333 -41525.809 46885.285 -41487.714 46866.238 -41411.523 46866.238 -41354.38 46885.285 -41278.19 46904.333 -41240.095 46942.428 -41202 46999.571 -41182.952 47037.666 -41182.952 47094.809 -41202 47113.857 -41221.047 M 47266.238 -41221.047 47285.285 -41202 47323.38 -41182.952 47418.619 -41182.952 47456.714 -41202 47475.761 -41221.047 47494.809 -41259.142 47494.809 -41297.238 47475.761 -41354.38 47247.19 -41582.952 47494.809 -41582.952 M 47742.428 -41182.952 47780.523 -41182.952 47818.619 -41202 47837.666 -41221.047 47856.714 -41259.142 47875.761 -41335.333 47875.761 -41430.571 47856.714 -41506.761 47837.666 -41544.857 47818.619 -41563.904 47780.523 -41582.952 47742.428 -41582.952 47704.333 -41563.904 47685.285 -41544.857 47666.238 -41506.761 47647.19 -41430.571 47647.19 -41335.333 47666.238 -41259.142 47685.285 -41221.047 47704.333 -41202 47742.428 -41182.952 M 49361.733 -36579.152 49228.4 -36388.676 M 49133.161 -36579.152 49133.161 -36179.152 49285.542 -36179.152 49323.638 -36198.2 49342.685 -36217.247 49361.733 -36255.342 49361.733 -36312.485 49342.685 -36350.58 49323.638 -36369.628 49285.542 -36388.676 49133.161 -36388.676 M 49704.59 -36312.485 49704.59 -36579.152 M 49609.352 -36160.104 49514.114 -36445.819 49761.733 -36445.819 M 50682.533 -36579.152 50549.2 -36388.676 M 50453.961 -36579.152 50453.961 -36179.152 50606.342 -36179.152 50644.438 -36198.2 50663.485 -36217.247 50682.533 -36255.342 50682.533 -36312.485 50663.485 -36350.58 50644.438 -36369.628 50606.342 -36388.676 50453.961 -36388.676 M 51044.438 -36179.152 50853.961 -36179.152 50834.914 -36369.628 50853.961 -36350.58 50892.057 -36331.533 50987.295 -36331.533 51025.39 -36350.58 51044.438 -36369.628 51063.485 -36407.723 51063.485 -36502.961 51044.438 -36541.057 51025.39 -36560.104 50987.295 -36579.152 50892.057 -36579.152 50853.961 -36560.104 50834.914 -36541.057 M 35328.257 -33797.857 35309.209 -33816.904 35252.066 -33835.952 35213.971 -33835.952 35156.828 -33816.904 35118.733 -33778.809 35099.685 -33740.714 35080.638 -33664.523 35080.638 -33607.38 35099.685 -33531.19 35118.733 -33493.095 35156.828 -33455 35213.971 -33435.952 35252.066 -33435.952 35309.209 -33455 35328.257 -33474.047 M 35480.638 -33474.047 35499.685 -33455 35537.78 -33435.952 35633.019 -33435.952 35671.114 -33455 35690.161 -33474.047 35709.209 -33512.142 35709.209 -33550.238 35690.161 -33607.38 35461.59 -33835.952 35709.209 -33835.952 M 35937.78 -33607.38 35899.685 -33588.333 35880.638 -33569.285 35861.59 -33531.19 35861.59 -33512.142 35880.638 -33474.047 35899.685 -33455 35937.78 -33435.952 36013.971 -33435.952 36052.066 -33455 36071.114 -33474.047 36090.161 -33512.142 36090.161 -33531.19 36071.114 -33569.285 36052.066 -33588.333 36013.971 -33607.38 35937.78 -33607.38 35899.685 -33626.428 35880.638 -33645.476 35861.59 -33683.571 35861.59 -33759.761 35880.638 -33797.857 35899.685 -33816.904 35937.78 -33835.952 36013.971 -33835.952 36052.066 -33816.904 36071.114 -33797.857 36090.161 -33759.761 36090.161 -33683.571 36071.114 -33645.476 36052.066 -33626.428 36013.971 -33607.38 M 44980.257 -34813.857 44961.209 -34832.904 44904.066 -34851.952 44865.971 -34851.952 44808.828 -34832.904 44770.733 -34794.809 44751.685 -34756.714 44732.638 -34680.523 44732.638 -34623.38 44751.685 -34547.19 44770.733 -34509.095 44808.828 -34471 44865.971 -34451.952 44904.066 -34451.952 44961.209 -34471 44980.257 -34490.047 M 45132.638 -34490.047 45151.685 -34471 45189.78 -34451.952 45285.019 -34451.952 45323.114 -34471 45342.161 -34490.047 45361.209 -34528.142 45361.209 -34566.238 45342.161 -34623.38 45113.59 -34851.952 45361.209 -34851.952 M 45513.59 -34490.047 45532.638 -34471 45570.733 -34451.952 45665.971 -34451.952 45704.066 -34471 45723.114 -34490.047 45742.161 -34528.142 45742.161 -34566.238 45723.114 -34623.38 45494.542 -34851.952 45742.161 -34851.952 M 49704.657 -32197.657 49685.609 -32216.704 49628.466 -32235.752 49590.371 -32235.752 49533.228 -32216.704 49495.133 -32178.609 49476.085 -32140.514 49457.038 -32064.323 49457.038 -32007.18 49476.085 -31930.99 49495.133 -31892.895 49533.228 -31854.8 49590.371 -31835.752 49628.466 -31835.752 49685.609 -31854.8 49704.657 -31873.847 M 49857.038 -31873.847 49876.085 -31854.8 49914.18 -31835.752 50009.419 -31835.752 50047.514 -31854.8 50066.561 -31873.847 50085.609 -31911.942 50085.609 -31950.038 50066.561 -32007.18 49837.99 -32235.752 50085.609 -32235.752 M 50447.514 -31835.752 50257.038 -31835.752 50237.99 -32026.228 50257.038 -32007.18 50295.133 -31988.133 50390.371 -31988.133 50428.466 -32007.18 50447.514 -32026.228 50466.561 -32064.323 50466.561 -32159.561 50447.514 -32197.657 50428.466 -32216.704 50390.371 -32235.752 50295.133 -32235.752 50257.038 -32216.704 50237.99 -32197.657 M 47240.857 -31334.057 47221.809 -31353.104 47164.666 -31372.152 47126.571 -31372.152 47069.428 -31353.104 47031.333 -31315.009 47012.285 -31276.914 46993.238 -31200.723 46993.238 -31143.58 47012.285 -31067.39 47031.333 -31029.295 47069.428 -30991.2 47126.571 -30972.152 47164.666 -30972.152 47221.809 -30991.2 47240.857 -31010.247 M 47393.238 -31010.247 47412.285 -30991.2 47450.38 -30972.152 47545.619 -30972.152 47583.714 -30991.2 47602.761 -31010.247 47621.809 -31048.342 47621.809 -31086.438 47602.761 -31143.58 47374.19 -31372.152 47621.809 -31372.152 M 47964.666 -31105.485 47964.666 -31372.152 M 47869.428 -30953.104 47774.19 -31238.819 48021.809 -31238.819 M 45183.457 -29403.657 45164.409 -29422.704 45107.266 -29441.752 45069.171 -29441.752 45012.028 -29422.704 44973.933 -29384.609 44954.885 -29346.514 44935.838 -29270.323 44935.838 -29213.18 44954.885 -29136.99 44973.933 -29098.895 45012.028 -29060.8 45069.171 -29041.752 45107.266 -29041.752 45164.409 -29060.8 45183.457 -29079.847 M 45335.838 -29079.847 45354.885 -29060.8 45392.98 -29041.752 45488.219 -29041.752 45526.314 -29060.8 45545.361 -29079.847 45564.409 -29117.942 45564.409 -29156.038 45545.361 -29213.18 45316.79 -29441.752 45564.409 -29441.752 M 45697.742 -29041.752 45945.361 -29041.752 45812.028 -29194.133 45869.171 -29194.133 45907.266 -29213.18 45926.314 -29232.228 45945.361 -29270.323 45945.361 -29365.561 45926.314 -29403.657 45907.266 -29422.704 45869.171 -29441.752 45754.885 -29441.752 45716.79 -29422.704 45697.742 -29403.657 M 62061.761 -31067.352 62061.761 -30667.352 62157 -30667.352 62214.142 -30686.4 62252.238 -30724.495 62271.285 -30762.59 62290.333 -30838.78 62290.333 -30895.923 62271.285 -30972.114 62252.238 -31010.209 62214.142 -31048.304 62157 -31067.352 62061.761 -31067.352 M 62652.238 -30667.352 62461.761 -30667.352 62442.714 -30857.828 62461.761 -30838.78 62499.857 -30819.733 62595.095 -30819.733 62633.19 -30838.78 62652.238 -30857.828 62671.285 -30895.923 62671.285 -30991.161 62652.238 -31029.257 62633.19 -31048.304 62595.095 -31067.352 62499.857 -31067.352 62461.761 -31048.304 62442.714 -31029.257 M 62376.066 -37944.428 62242.733 -37944.428 M 62242.733 -38153.952 62242.733 -37753.952 62433.209 -37753.952 M 62795.114 -38153.952 62566.542 -38153.952 M 62680.828 -38153.952 62680.828 -37753.952 62642.733 -37811.095 62604.638 -37849.19 62566.542 -37868.238 M 59610.666 -40484.428 59477.333 -40484.428 M 59477.333 -40693.952 59477.333 -40293.952 59667.809 -40293.952 M 59953.523 -40484.428 60010.666 -40503.476 60029.714 -40522.523 60048.761 -40560.619 60048.761 -40617.761 60029.714 -40655.857 60010.666 -40674.904 59972.571 -40693.952 59820.19 -40693.952 59820.19 -40293.952 59953.523 -40293.952 59991.619 -40313 60010.666 -40332.047 60029.714 -40370.142 60029.714 -40408.238 60010.666 -40446.333 59991.619 -40465.38 59953.523 -40484.428 59820.19 -40484.428 M 60201.142 -40332.047 60220.19 -40313 60258.285 -40293.952 60353.523 -40293.952 60391.619 -40313 60410.666 -40332.047 60429.714 -40370.142 60429.714 -40408.238 60410.666 -40465.38 60182.095 -40693.952 60429.714 -40693.952 M 58239.057 -37252.257 58220.009 -37271.304 58162.866 -37290.352 58124.771 -37290.352 58067.628 -37271.304 58029.533 -37233.209 58010.485 -37195.114 57991.438 -37118.923 57991.438 -37061.78 58010.485 -36985.59 58029.533 -36947.495 58067.628 -36909.4 58124.771 -36890.352 58162.866 -36890.352 58220.009 -36909.4 58239.057 -36928.447 M 58372.39 -36890.352 58620.009 -36890.352 58486.676 -37042.733 58543.819 -37042.733 58581.914 -37061.78 58600.961 -37080.828 58620.009 -37118.923 58620.009 -37214.161 58600.961 -37252.257 58581.914 -37271.304 58543.819 -37290.352 58429.533 -37290.352 58391.438 -37271.304 58372.39 -37252.257 M 58772.39 -36928.447 58791.438 -36909.4 58829.533 -36890.352 58924.771 -36890.352 58962.866 -36909.4 58981.914 -36928.447 59000.961 -36966.542 59000.961 -37004.638 58981.914 -37061.78 58753.342 -37290.352 59000.961 -37290.352 M 58112.057 -39817.657 58093.009 -39836.704 58035.866 -39855.752 57997.771 -39855.752 57940.628 -39836.704 57902.533 -39798.609 57883.485 -39760.514 57864.438 -39684.323 57864.438 -39627.18 57883.485 -39550.99 57902.533 -39512.895 57940.628 -39474.8 57997.771 -39455.752 58035.866 -39455.752 58093.009 -39474.8 58112.057 -39493.847 M 58245.39 -39455.752 58493.009 -39455.752 58359.676 -39608.133 58416.819 -39608.133 58454.914 -39627.18 58473.961 -39646.228 58493.009 -39684.323 58493.009 -39779.561 58473.961 -39817.657 58454.914 -39836.704 58416.819 -39855.752 58302.533 -39855.752 58264.438 -39836.704 58245.39 -39817.657 M 58626.342 -39455.752 58873.961 -39455.752 58740.628 -39608.133 58797.771 -39608.133 58835.866 -39627.18 58854.914 -39646.228 58873.961 -39684.323 58873.961 -39779.561 58854.914 -39817.657 58835.866 -39836.704 58797.771 -39855.752 58683.485 -39855.752 58645.39 -39836.704 58626.342 -39817.657 M 49933.257 -38496.857 49914.209 -38515.904 49857.066 -38534.952 49818.971 -38534.952 49761.828 -38515.904 49723.733 -38477.809 49704.685 -38439.714 49685.638 -38363.523 49685.638 -38306.38 49704.685 -38230.19 49723.733 -38192.095 49761.828 -38154 49818.971 -38134.952 49857.066 -38134.952 49914.209 -38154 49933.257 -38173.047 M 50066.59 -38134.952 50314.209 -38134.952 50180.876 -38287.333 50238.019 -38287.333 50276.114 -38306.38 50295.161 -38325.428 50314.209 -38363.523 50314.209 -38458.761 50295.161 -38496.857 50276.114 -38515.904 50238.019 -38534.952 50123.733 -38534.952 50085.638 -38515.904 50066.59 -38496.857 M 50657.066 -38268.285 50657.066 -38534.952 M 50561.828 -38115.904 50466.59 -38401.619 50714.209 -38401.619 M 53794.057 -42116.352 53660.723 -41925.876 M 53565.485 -42116.352 53565.485 -41716.352 53717.866 -41716.352 53755.961 -41735.4 53775.009 -41754.447 53794.057 -41792.542 53794.057 -41849.685 53775.009 -41887.78 53755.961 -41906.828 53717.866 -41925.876 53565.485 -41925.876 M 54175.009 -42116.352 53946.438 -42116.352 M 54060.723 -42116.352 54060.723 -41716.352 54022.628 -41773.495 53984.533 -41811.59 53946.438 -41830.638 M 54517.866 -41849.685 54517.866 -42116.352 M 54422.628 -41697.304 54327.39 -41983.019 54575.009 -41983.019 M 55318.057 -42141.752 55184.723 -41951.276 M 55089.485 -42141.752 55089.485 -41741.752 55241.866 -41741.752 55279.961 -41760.8 55299.009 -41779.847 55318.057 -41817.942 55318.057 -41875.085 55299.009 -41913.18 55279.961 -41932.228 55241.866 -41951.276 55089.485 -41951.276 M 55699.009 -42141.752 55470.438 -42141.752 M 55584.723 -42141.752 55584.723 -41741.752 55546.628 -41798.895 55508.533 -41836.99 55470.438 -41856.038 M 55832.342 -41741.752 56079.961 -41741.752 55946.628 -41894.133 56003.771 -41894.133 56041.866 -41913.18 56060.914 -41932.228 56079.961 -41970.323 56079.961 -42065.561 56060.914 -42103.657 56041.866 -42122.704 56003.771 -42141.752 55889.485 -42141.752 55851.39 -42122.704 55832.342 -42103.657 M 58670.857 -46650.257 58651.809 -46669.304 58594.666 -46688.352 58556.571 -46688.352 58499.428 -46669.304 58461.333 -46631.209 58442.285 -46593.114 58423.238 -46516.923 58423.238 -46459.78 58442.285 -46383.59 58461.333 -46345.495 58499.428 -46307.4 58556.571 -46288.352 58594.666 -46288.352 58651.809 -46307.4 58670.857 -46326.447 M 58823.238 -46326.447 58842.285 -46307.4 58880.38 -46288.352 58975.619 -46288.352 59013.714 -46307.4 59032.761 -46326.447 59051.809 -46364.542 59051.809 -46402.638 59032.761 -46459.78 58804.19 -46688.352 59051.809 -46688.352 M 59242.285 -46688.352 59318.476 -46688.352 59356.571 -46669.304 59375.619 -46650.257 59413.714 -46593.114 59432.761 -46516.923 59432.761 -46364.542 59413.714 -46326.447 59394.666 -46307.4 59356.571 -46288.352 59280.38 -46288.352 59242.285 -46307.4 59223.238 -46326.447 59204.19 -46364.542 59204.19 -46459.78 59223.238 -46497.876 59242.285 -46516.923 59280.38 -46535.971 59356.571 -46535.971 59394.666 -46516.923 59413.714 -46497.876 59432.761 -46459.78 M 66024.133 -52733.552 65890.8 -52543.076 M 65795.561 -52733.552 65795.561 -52333.552 65947.942 -52333.552 65986.038 -52352.6 66005.085 -52371.647 66024.133 -52409.742 66024.133 -52466.885 66005.085 -52504.98 65986.038 -52524.028 65947.942 -52543.076 65795.561 -52543.076 M 66366.99 -52333.552 66290.8 -52333.552 66252.704 -52352.6 66233.657 -52371.647 66195.561 -52428.79 66176.514 -52504.98 66176.514 -52657.361 66195.561 -52695.457 66214.609 -52714.504 66252.704 -52733.552 66328.895 -52733.552 66366.99 -52714.504 66386.038 -52695.457 66405.085 -52657.361 66405.085 -52562.123 66386.038 -52524.028 66366.99 -52504.98 66328.895 -52485.933 66252.704 -52485.933 66214.609 -52504.98 66195.561 -52524.028 66176.514 -52562.123 M 64703.333 -52733.552 64570 -52543.076 M 64474.761 -52733.552 64474.761 -52333.552 64627.142 -52333.552 64665.238 -52352.6 64684.285 -52371.647 64703.333 -52409.742 64703.333 -52466.885 64684.285 -52504.98 64665.238 -52524.028 64627.142 -52543.076 64474.761 -52543.076 M 64836.666 -52333.552 65103.333 -52333.552 64931.904 -52733.552 M 44129.333 -43957.857 44110.285 -43976.904 44053.142 -43995.952 44015.047 -43995.952 43957.904 -43976.904 43919.809 -43938.809 43900.761 -43900.714 43881.714 -43824.523 43881.714 -43767.38 43900.761 -43691.19 43919.809 -43653.095 43957.904 -43615 44015.047 -43595.952 44053.142 -43595.952 44110.285 -43615 44129.333 -43634.047 M 44472.19 -43729.285 44472.19 -43995.952 M 44376.952 -43576.904 44281.714 -43862.619 44529.333 -43862.619 M 44103.933 -45100.857 44084.885 -45119.904 44027.742 -45138.952 43989.647 -45138.952 43932.504 -45119.904 43894.409 -45081.809 43875.361 -45043.714 43856.314 -44967.523 43856.314 -44910.38 43875.361 -44834.19 43894.409 -44796.095 43932.504 -44758 43989.647 -44738.952 44027.742 -44738.952 44084.885 -44758 44103.933 -44777.047 M 44465.838 -44738.952 44275.361 -44738.952 44256.314 -44929.428 44275.361 -44910.38 44313.457 -44891.333 44408.695 -44891.333 44446.79 -44910.38 44465.838 -44929.428 44484.885 -44967.523 44484.885 -45062.761 44465.838 -45100.857 44446.79 -45119.904 44408.695 -45138.952 44313.457 -45138.952 44275.361 -45119.904 44256.314 -45100.857 M 40166.933 -47869.457 40147.885 -47888.504 40090.742 -47907.552 40052.647 -47907.552 39995.504 -47888.504 39957.409 -47850.409 39938.361 -47812.314 39919.314 -47736.123 39919.314 -47678.98 39938.361 -47602.79 39957.409 -47564.695 39995.504 -47526.6 40052.647 -47507.552 40090.742 -47507.552 40147.885 -47526.6 40166.933 -47545.647 M 40509.79 -47507.552 40433.6 -47507.552 40395.504 -47526.6 40376.457 -47545.647 40338.361 -47602.79 40319.314 -47678.98 40319.314 -47831.361 40338.361 -47869.457 40357.409 -47888.504 40395.504 -47907.552 40471.695 -47907.552 40509.79 -47888.504 40528.838 -47869.457 40547.885 -47831.361 40547.885 -47736.123 40528.838 -47698.028 40509.79 -47678.98 40471.695 -47659.933 40395.504 -47659.933 40357.409 -47678.98 40338.361 -47698.028 40319.314 -47736.123 M 54136.933 -46243.857 54117.885 -46262.904 54060.742 -46281.952 54022.647 -46281.952 53965.504 -46262.904 53927.409 -46224.809 53908.361 -46186.714 53889.314 -46110.523 53889.314 -46053.38 53908.361 -45977.19 53927.409 -45939.095 53965.504 -45901 54022.647 -45881.952 54060.742 -45881.952 54117.885 -45901 54136.933 -45920.047 M 54270.266 -45881.952 54536.933 -45881.952 54365.504 -46281.952 M 54136.933 -47386.857 54117.885 -47405.904 54060.742 -47424.952 54022.647 -47424.952 53965.504 -47405.904 53927.409 -47367.809 53908.361 -47329.714 53889.314 -47253.523 53889.314 -47196.38 53908.361 -47120.19 53927.409 -47082.095 53965.504 -47044 54022.647 -47024.952 54060.742 -47024.952 54117.885 -47044 54136.933 -47063.047 M 54365.504 -47196.38 54327.409 -47177.333 54308.361 -47158.285 54289.314 -47120.19 54289.314 -47101.142 54308.361 -47063.047 54327.409 -47044 54365.504 -47024.952 54441.695 -47024.952 54479.79 -47044 54498.838 -47063.047 54517.885 -47101.142 54517.885 -47120.19 54498.838 -47158.285 54479.79 -47177.333 54441.695 -47196.38 54365.504 -47196.38 54327.409 -47215.428 54308.361 -47234.476 54289.314 -47272.571 54289.314 -47348.761 54308.361 -47386.857 54327.409 -47405.904 54365.504 -47424.952 54441.695 -47424.952 54479.79 -47405.904 54498.838 -47386.857 54517.885 -47348.761 54517.885 -47272.571 54498.838 -47234.476 54479.79 -47215.428 54441.695 -47196.38 M 51393.733 -57826.257 51374.685 -57845.304 51317.542 -57864.352 51279.447 -57864.352 51222.304 -57845.304 51184.209 -57807.209 51165.161 -57769.114 51146.114 -57692.923 51146.114 -57635.78 51165.161 -57559.59 51184.209 -57521.495 51222.304 -57483.4 51279.447 -57464.352 51317.542 -57464.352 51374.685 -57483.4 51393.733 -57502.447 M 51584.209 -57864.352 51660.4 -57864.352 51698.495 -57845.304 51717.542 -57826.257 51755.638 -57769.114 51774.685 -57692.923 51774.685 -57540.542 51755.638 -57502.447 51736.59 -57483.4 51698.495 -57464.352 51622.304 -57464.352 51584.209 -57483.4 51565.161 -57502.447 51546.114 -57540.542 51546.114 -57635.78 51565.161 -57673.876 51584.209 -57692.923 51622.304 -57711.971 51698.495 -57711.971 51736.59 -57692.923 51755.638 -57673.876 51774.685 -57635.78 M 52498.657 -57826.257 52479.609 -57845.304 52422.466 -57864.352 52384.371 -57864.352 52327.228 -57845.304 52289.133 -57807.209 52270.085 -57769.114 52251.038 -57692.923 52251.038 -57635.78 52270.085 -57559.59 52289.133 -57521.495 52327.228 -57483.4 52384.371 -57464.352 52422.466 -57464.352 52479.609 -57483.4 52498.657 -57502.447 M 52879.609 -57864.352 52651.038 -57864.352 M 52765.323 -57864.352 52765.323 -57464.352 52727.228 -57521.495 52689.133 -57559.59 52651.038 -57578.638 M 53127.228 -57464.352 53165.323 -57464.352 53203.419 -57483.4 53222.466 -57502.447 53241.514 -57540.542 53260.561 -57616.733 53260.561 -57711.971 53241.514 -57788.161 53222.466 -57826.257 53203.419 -57845.304 53165.323 -57864.352 53127.228 -57864.352 53089.133 -57845.304 53070.085 -57826.257 53051.038 -57788.161 53031.99 -57711.971 53031.99 -57616.733 53051.038 -57540.542 53070.085 -57502.447 53089.133 -57483.4 53127.228 -57464.352 M 44624.657 -59324.857 44605.609 -59343.904 44548.466 -59362.952 44510.371 -59362.952 44453.228 -59343.904 44415.133 -59305.809 44396.085 -59267.714 44377.038 -59191.523 44377.038 -59134.38 44396.085 -59058.19 44415.133 -59020.095 44453.228 -58982 44510.371 -58962.952 44548.466 -58962.952 44605.609 -58982 44624.657 -59001.047 M 45005.609 -59362.952 44777.038 -59362.952 M 44891.323 -59362.952 44891.323 -58962.952 44853.228 -59020.095 44815.133 -59058.19 44777.038 -59077.238 M 45386.561 -59362.952 45157.99 -59362.952 M 45272.276 -59362.952 45272.276 -58962.952 45234.18 -59020.095 45196.085 -59058.19 45157.99 -59077.238 M 44624.657 -60467.857 44605.609 -60486.904 44548.466 -60505.952 44510.371 -60505.952 44453.228 -60486.904 44415.133 -60448.809 44396.085 -60410.714 44377.038 -60334.523 44377.038 -60277.38 44396.085 -60201.19 44415.133 -60163.095 44453.228 -60125 44510.371 -60105.952 44548.466 -60105.952 44605.609 -60125 44624.657 -60144.047 M 45005.609 -60505.952 44777.038 -60505.952 M 44891.323 -60505.952 44891.323 -60105.952 44853.228 -60163.095 44815.133 -60201.19 44777.038 -60220.238 M 45157.99 -60144.047 45177.038 -60125 45215.133 -60105.952 45310.371 -60105.952 45348.466 -60125 45367.514 -60144.047 45386.561 -60182.142 45386.561 -60220.238 45367.514 -60277.38 45138.942 -60505.952 45386.561 -60505.952 M 40030.419 -26393.771 40335.18 -26393.771 M 40182.8 -26546.152 40182.8 -26241.39 M 54457.619 -57457.971 54762.38 -57457.971 M 54610 -57610.352 54610 -57305.59 M 56235.619 -57457.971 56540.38 -57457.971 M 56388 -57610.352 56388 -57305.59 M 58013.619 -57457.971 58318.38 -57457.971 M 58166 -57610.352 58166 -57305.59 M 59791.619 -57457.971 60096.38 -57457.971 M 59944 -57610.352 59944 -57305.59 M 40995.619 -44910.371 41300.38 -44910.371 M 41148 -45062.752 41148 -44757.99" fill="none" stroke-width="100"/><path d="M 32199.533 -59339.171 31866.2 -59339.171 M 31866.2 -59862.98 31866.2 -58862.98 32342.39 -58862.98 M 33199.533 -59862.98 32723.342 -59862.98 32723.342 -58862.98 M 33485.247 -59577.266 33961.438 -59577.266 M 33390.009 -59862.98 33723.342 -58862.98 34056.676 -59862.98 M 34342.39 -59815.361 34485.247 -59862.98 34723.342 -59862.98 34818.58 -59815.361 34866.2 -59767.742 34913.819 -59672.504 34913.819 -59577.266 34866.2 -59482.028 34818.58 -59434.409 34723.342 -59386.79 34532.866 -59339.171 34437.628 -59291.552 34390.009 -59243.933 34342.39 -59148.695 34342.39 -59053.457 34390.009 -58958.219 34437.628 -58910.6 34532.866 -58862.98 34770.961 -58862.98 34913.819 -58910.6 M 35342.39 -59862.98 35342.39 -58862.98 M 35342.39 -59339.171 35913.819 -59339.171 M 35913.819 -59862.98 35913.819 -58862.98 M 36913.819 -59862.98 36342.39 -59862.98 M 36628.104 -59862.98 36628.104 -58862.98 36532.866 -59005.838 36437.628 -59101.076 36342.39 -59148.695 M 36219.314 -24139.085 35969.314 -23781.942 M 35790.742 -24139.085 35790.742 -23389.085 36076.457 -23389.085 36147.885 -23424.8 36183.6 -23460.514 36219.314 -23531.942 36219.314 -23639.085 36183.6 -23710.514 36147.885 -23746.228 36076.457 -23781.942 35790.742 -23781.942 M 36540.742 -23746.228 36790.742 -23746.228 M 36897.885 -24139.085 36540.742 -24139.085 36540.742 -23389.085 36897.885 -23389.085 M 37612.171 -23424.8 37540.742 -23389.085 37433.6 -23389.085 37326.457 -23424.8 37255.028 -23496.228 37219.314 -23567.657 37183.6 -23710.514 37183.6 -23817.657 37219.314 -23960.514 37255.028 -24031.942 37326.457 -24103.371 37433.6 -24139.085 37505.028 -24139.085 37612.171 -24103.371 37647.885 -24067.657 37647.885 -23817.657 37505.028 -23817.657 M 38362.171 -24139.085 37933.6 -24139.085 M 38147.885 -24139.085 38147.885 -23389.085 38076.457 -23496.228 38005.028 -23567.657 37933.6 -23603.371" fill="none" stroke-width="150"/><path d="M 51732 -69220 48357 -69220 M 45832 -64020 45832 -63720 M 46482 -64727.107 46982 -64020 M 45982 -64020 46482 -64727.107 M 44982 -69220 48357 -69220 M 44982 -63720 44982 -69220 M 48357 -64020 50882 -64020 M 45832 -63720 44982 -63720 M 48357 -64020 45832 -64020 M 51732 -63720 51732 -69220 M 50882 -64020 50882 -63720 51732 -63720 M 53713 -47494 52713 -47494 52713 -46994 53713 -46994 53713 -47494 M 36291 -53082 35291 -53082 M 36291 -52582 36291 -53082 M 35291 -53082 35291 -52582 36291 -52582 M 49653 -35019.5 49653 -36019.5 M 49153 -35019.5 49653 -35019.5 M 49153 -36019.5 49153 -35019.5 M 49653 -36019.5 49153 -36019.5 M 55749 -41521 55249 -41521 M 55749 -40521 55749 -41521 M 55249 -40521 55749 -40521 M 55249 -41521 55249 -40521 M 35674.3 -26371.6 37274.3 -26371.6 M 37274.3 -27171.6 35674.3 -27171.6 35674.3 -26371.6 M 37274.3 -26371.6 37274.3 -27171.6 M 39782.8 -24549.1 39782.8 -22949.1 M 40582.8 -24549.1 39782.8 -24549.1 M 40582.8 -22949.1 40582.8 -24549.1 M 39782.8 -22949.1 40582.8 -22949.1 M 42703 -43565 43703 -43565 M 43703 -44065 42703 -44065 42703 -43565 M 43703 -43565 43703 -44065 M 39374 -54244 39374 -53244 M 39874 -54244 39374 -54244 M 39374 -53244 39874 -53244 39874 -54244 M 38426.2 -29268.8 38426.2 -30268.8 M 37926.2 -30268.8 37926.2 -29268.8 38426.2 -29268.8 M 38426.2 -30268.8 37926.2 -30268.8 M 45481 -36072 45481 -36572 44481 -36572 M 44481 -36072 45481 -36072 M 44481 -36572 44481 -36072 M 46705 -41152 46705 -41652 M 45705 -41652 45705 -41152 M 46705 -41652 45705 -41652 M 45705 -41152 46705 -41152 M 44735 -33786 45735 -33786 M 44735 -34286 44735 -33786 M 45735 -34286 44735 -34286 M 45735 -33786 45735 -34286 M 44943 -29595 45943 -29595 45943 -30095 44943 -30095 44943 -29595 M 47121 -31527 47621 -31527 M 47121 -32527 47121 -31527 M 47621 -32527 47121 -32527 M 47621 -31527 47621 -32527 M 48495 -31204 49295 -31204 M 49295 -32804 48495 -32804 48495 -31204 M 49295 -31204 49295 -32804 M 36761.8 -42066.4 37761.8 -42066.4 37761.8 -42566.4 M 36761.8 -42566.4 36761.8 -42066.4 M 37761.8 -42566.4 36761.8 -42566.4 M 34852.8 -44102.4 35352.8 -44102.4 35352.8 -45102.4 M 34852.8 -45102.4 34852.8 -44102.4 M 35352.8 -45102.4 34852.8 -45102.4 M 35083 -33295.4 35083 -32795.4 M 36083 -33295.4 35083 -33295.4 M 35083 -32795.4 36083 -32795.4 36083 -33295.4 M 58440.7 -46122.4 58440.7 -45622.4 M 59440.7 -46122.4 58440.7 -46122.4 M 59440.7 -45622.4 59440.7 -46122.4 M 58440.7 -45622.4 59440.7 -45622.4 M 40736 -57781 39736 -57781 39736 -57281 40736 -57281 40736 -57781 M 43703 -68449 42703 -68449 42703 -67949 M 43703 -67949 43703 -68449 M 42703 -67949 43703 -67949 M 59167 -36834 60167 -36834 M 59167 -37334 59167 -36834 M 60167 -36834 60167 -37334 59167 -37334 M 58170 -39235 58170 -38235 58670 -38235 M 58670 -39235 58170 -39235 M 58670 -38235 58670 -39235 M 51431 -38831 50931 -38831 M 51431 -37831 51431 -38831 M 50931 -38831 50931 -37831 51431 -37831 M 55988 -57137.5 55988 -58437.5 M 56788 -58737.5 56788 -57137.5 55988 -57137.5 M 56288 -58737.5 56788 -58737.5 M 55988 -58437.5 56288 -58737.5 M 58566 -57137.5 57766 -57137.5 57766 -58437.5 M 58566 -58737.5 58566 -57137.5 M 57766 -58437.5 58066 -58737.5 58566 -58737.5 M 59844 -58737.5 60344 -58737.5 M 59544 -57137.5 59544 -58437.5 M 60344 -58737.5 60344 -57137.5 M 59544 -58437.5 59844 -58737.5 M 60344 -57137.5 59544 -57137.5 M 61214 -30561 61564 -31061 60864 -31061 M 61214 -31061 61214 -31311 M 61914 -29961 61914 -31761 M 61564 -30561 60864 -30561 M 61214 -30561 61214 -30361 M 61914 -31761 60514 -31761 60514 -29961 M 60864 -31061 61214 -30561 M 60514 -29961 61914 -29961 M 31169 -50609.5 30919 -50609.5 M 32269 -51309.5 30469 -51309.5 M 31669 -50959.5 31669 -50259.5 M 31669 -50609.5 31169 -50959.5 M 30469 -49909.5 32269 -49909.5 M 31169 -50959.5 31169 -50259.5 M 32269 -49909.5 32269 -51309.5 M 31669 -50609.5 31869 -50609.5 M 31169 -50259.5 31669 -50609.5 M 30469 -51309.5 30469 -49909.5 M 61195 -38798.5 61195 -37198.5 61995 -37198.5 61995 -38798.5 61195 -38798.5 M 59544 -40068.5 59544 -38468.5 M 60344 -40068.5 59544 -40068.5 M 59544 -38468.5 60344 -38468.5 60344 -40068.5 M 54253 -69220 57628 -69220 M 60153 -63720 61003 -63720 M 61003 -69220 57628 -69220 M 55103 -63720 54253 -63720 M 57628 -64020 60153 -64020 M 55753 -64727.107 56253 -64020 M 60153 -64020 60153 -63720 M 55253 -64020 55753 -64727.107 M 55103 -64020 55103 -63720 M 61003 -63720 61003 -69220 M 57628 -64020 55103 -64020 M 54253 -63720 54253 -69220 M 63720 -53424 69220 -53424 M 63720 -60174 69220 -60174 M 64020 -56799 64020 -59324 63720 -59324 M 69220 -53424 69220 -56799 M 64020 -56799 64020 -54274 63720 -54274 M 69220 -60174 69220 -56799 M 64727.107 -58674 64020 -58174 M 63720 -54274 63720 -53424 M 63720 -59324 63720 -60174 M 64020 -59174 64727.107 -58674 M 32419 -52387.5 32419 -54402.5 M 30319 -52387.5 32419 -52387.5 M 32419 -54402.5 31894 -54927.5 M 30319 -54927.5 30319 -52387.5 M 31894 -54927.5 30319 -54927.5 M 33195 -40338 33195 -35338 M 34195 -34338 39195 -34338 M 33195 -35338 34195 -34338 M 39195 -34338 39195 -40338 33195 -40338 M 26270 -28950 26270 -48000 M 21190 -49270 21190 -28950 26270 -28950 M 26270 -48000 25000 -49270 21190 -49270 M 26271.22 -29616.4 26906.22 -28981.4 28811.22 -28981.4 M 28811.22 -49301.4 26271.22 -49301.4 26271.22 -29616.4 M 28811.22 -28981.4 28811.22 -49301.4 M 40082.8 -27673.1 40582.8 -27673.1 M 40582.8 -26073.1 39782.8 -26073.1 M 39782.8 -27373.1 40082.8 -27673.1 M 40582.8 -27673.1 40582.8 -26073.1 M 39782.8 -26073.1 39782.8 -27373.1 M 42691.8 -27910.6 41691.8 -27910.6 M 42691.8 -27410.6 42691.8 -27910.6 M 41691.8 -27410.6 42691.8 -27410.6 M 41691.8 -27910.6 41691.8 -27410.6 M 50486.5 -36019.5 50486.5 -35019.5 M 50986.5 -35019.5 50986.5 -36019.5 M 50486.5 -35019.5 50986.5 -35019.5 M 50986.5 -36019.5 50486.5 -36019.5 M 66353.5 -51062 66353.5 -52062 M 65853.5 -52062 65853.5 -51062 66353.5 -51062 M 66353.5 -52062 65853.5 -52062 M 65020 -51062 65020 -52062 M 64520 -51062 65020 -51062 M 64520 -52062 64520 -51062 M 65020 -52062 64520 -52062 M 54360 -60229 54860 -60229 54860 -61229 M 54360 -61229 54360 -60229 M 54860 -61229 54360 -61229 M 57916 -60229 58416 -60229 M 57916 -61229 57916 -60229 M 58416 -60229 58416 -61229 57916 -61229 M 60194 -60233.8 60194 -61233.8 M 59694 -61233.8 59694 -60233.8 M 60194 -61233.8 59694 -61233.8 M 59694 -60233.8 60194 -60233.8 M 54479 -41523.4 53979 -41523.4 53979 -40523.4 M 54479 -40523.4 54479 -41523.4 M 53979 -40523.4 54479 -40523.4 M 30091 -65147 29091 -65147 M 30091 -64647 30091 -65147 M 29091 -65147 29091 -64647 30091 -64647 M 37076 -64647 37076 -65147 M 36076 -65147 36076 -64647 37076 -64647 M 37076 -65147 36076 -65147 M 40736 -59051 39736 -59051 39736 -58551 40736 -58551 40736 -59051 M 28653.5 -61972 27653.5 -61972 27653.5 -61472 28653.5 -61472 28653.5 -61972 M 50792 -25896 50292 -25188.893 M 45042 -20696 48417 -20696 M 50292 -25188.893 49792 -25896 M 48417 -25896 50942 -25896 50942 -26196 M 45892 -25896 45892 -26196 M 51792 -26196 51792 -20696 M 45042 -26196 45042 -20696 M 51792 -20696 48417 -20696 M 48417 -25896 45892 -25896 M 45892 -26196 45042 -26196 M 50942 -26196 51792 -26196 M 67110 -47679 67110 -48724 M 65840 -48724 66240 -48724 M 63700 -43224 63700 -44269 M 68380 -48724 68780 -48724 M 69215 -47679 63300 -47679 M 68780 -48724 68780 -47679 M 62865 -47244 62865 -44269 M 63700 -48724 63700 -47679 M 65840 -43224 66240 -43224 M 65840 -44269 65840 -43224 M 67110 -43224 67510 -43224 M 68780 -43224 68780 -44269 M 65840 -47679 65840 -48724 M 63300 -44269 63300 -43224 M 64970 -48724 64970 -47679 M 63300 -43224 63700 -43224 M 69215 -44269 69215 -47679 M 63300 -48724 63700 -48724 M 64570 -48724 64970 -48724 M 66240 -43224 66240 -44269 M 64970 -43224 64970 -44269 M 68380 -47679 68380 -48724 M 68380 -43224 68780 -43224 M 66240 -48724 66240 -47679 M 67110 -48724 67510 -48724 M 67110 -44269 67110 -43224 M 64570 -44269 64570 -43224 M 67510 -48724 67510 -47679 M 63300 -47679 62865 -47244 M 64570 -47679 64570 -48724 M 64570 -43224 64970 -43224 M 62865 -44269 69215 -44269 M 63300 -47679 63300 -48724 M 67510 -43224 67510 -44269 M 68380 -44269 68380 -43224 M 59341 -33593.2 59991 -32943.2 M 61141 -32943.2 61141 -36043.2 M 61141 -32943.2 59991 -32943.2 M 59341 -33593.2 59341 -36043.2 M 61141 -36043.2 59341 -36043.2 M 52259 -38170 52259 -34220 M 57469 -38170 52259 -38170 M 57469 -35220 56469 -34220 M 52259 -34220 56469 -34220 M 57469 -35220 57469 -38170 M 33123 -20696 30998 -20696 M 29723 -25896 29723 -26196 M 32273 -26196 33123 -26196 M 32123 -25896 31623 -25188.893 M 28873 -20696 30998 -20696 M 31623 -25188.893 31123 -25896 M 32273 -25896 32273 -26196 M 33123 -26196 33123 -20696 M 29723 -26196 28873 -26196 M 30998 -25896 32273 -25896 M 30998 -25896 29723 -25896 M 28873 -26196 28873 -20696 M 56638 -60229 56638 -61229 56138 -61229 56138 -60229 56638 -60229 M 38339 -51304 38339 -50804 39339 -50804 39339 -51304 38339 -51304 M 35564 -48354 34564 -49354 M 37064 -48554 37064 -51354 M 34564 -48554 34764 -48354 M 36864 -51554 34764 -51554 M 34564 -51354 34564 -48554 M 34764 -51554 34564 -51354 M 36864 -48354 37064 -48554 M 37064 -51354 36864 -51554 M 34764 -48354 36864 -48354" fill="none" stroke-width="100"/><path d="M 51736 -57070 41736 -57070 M 51736 -47070 51736 -57070 M 41736 -48070 42736 -47070 M 41736 -57070 41736 -48070 M 42736 -47070 51736 -47070" fill="none" stroke-width="150"/><path d="M 35268 -53956 36868 -53956 M 35268 -54756 35268 -53956 M 36868 -54756 35268 -54756 M 36868 -53956 36868 -54756 M 52455 -59047 52455 -58047 52955 -58047 M 52955 -59047 52455 -59047 M 52955 -58047 52955 -59047 M 43188 -60075 44188 -60075 M 44188 -60575 43188 -60575 M 44188 -60075 44188 -60575 M 43188 -60575 43188 -60075 M 51312 -59047 51312 -58047 51812 -58047 51812 -59047 51312 -59047 M 52713 -46325.6 52713 -45825.6 M 53713 -46325.6 52713 -46325.6 M 53713 -45825.6 53713 -46325.6 M 52713 -45825.6 53713 -45825.6 M 39759 -46867 40759 -46867 M 39759 -47367 39759 -46867 M 40759 -47367 39759 -47367 M 40759 -46867 40759 -47367 M 53833 -48391 54833 -48391 54833 -48891 53833 -48891 53833 -48391 M 50415 -60167 49915 -60167 49915 -59167 M 50415 -59167 50415 -60167 M 49915 -59167 50415 -59167 M 36337 -46740 36337 -47240 M 35337 -47240 35337 -46740 M 36337 -47240 35337 -47240 M 35337 -46740 36337 -46740 M 38604 -54244 38104 -54244 38104 -53244 38604 -53244 38604 -54244 M 44188 -58932 44188 -59432 M 43188 -59432 43188 -58932 44188 -58932 M 44188 -59432 43188 -59432 M 43703 -45208 42703 -45208 M 42703 -44708 43703 -44708 M 42703 -45208 42703 -44708 M 43703 -44708 43703 -45208 M 41548 -43650 41548 -45250 M 40748 -45250 40748 -43650 41548 -43650 M 41548 -45250 40748 -45250 M 55010 -57137.5 54210 -57137.5 54210 -58437.5 54510 -58737.5 M 55010 -58737.5 55010 -57137.5 M 54510 -58737.5 55010 -58737.5 M 60086 -26196 60936 -26196 M 60936 -20696 57561 -20696 M 57561 -25896 60086 -25896 M 57561 -25896 55036 -25896 M 59436 -25188.893 58936 -25896 M 60936 -26196 60936 -20696 M 55036 -26196 54186 -26196 54186 -20696 57561 -20696 M 59936 -25896 59436 -25188.893 M 60086 -25896 60086 -26196 M 55036 -25896 55036 -26196 M 28563.5 -60431.5 20963.5 -60431.5 M 21363.5 -53431.5 28563.5 -53431.5 M 26601.5 -59636.5 24508.5 -57544.5 M 26601.5 -56136.5 24508.5 -54043.5 M 26418.5 -56319.5 24325.5 -54226.5 M 21363.5 -53431.5 21363.5 -60431.5 M 22463.5 -53431.5 22463.5 -60431.5 M 20963.5 -60431.5 20963.5 -53831.5 21363.5 -53431.5 M 28563.5 -53431.5 28563.5 -60431.5 M 26418.5 -59819.5 24325.5 -57727.5 M 26963.5 -55181.5 A 1500 1500 0 0 1 23963.5 -55181.5 1500 1500 0 0 1 26963.5 -55181.5 M 26963.5 -58681.5 A 1500 1500 0 0 1 23963.5 -58681.5 1500 1500 0 0 1 26963.5 -58681.5" fill="none" stroke-width="100"/><path d="M 63917 -38163 69317 -38163 M 69317 -30463 69317 -30163 63917 -30163 M 70517 -37863 70517 -30463 M 63217 -35238 63442 -35238 M 69317 -38163 69317 -37863 M 63617 -35463 63442 -35688 M 70517 -30463 69317 -30463 M 69317 -37863 70517 -37863 M 63217 -35688 63217 -35238 M 63442 -35688 63217 -35688 M 69917 -36863 69917 -31463 M 63917 -30163 63917 -38163 M 63442 -35238 63617 -35463" fill="none" stroke-width="150"/></g></svg>